<?xml version="1.0" encoding="UTF-8" standalone="no"?>
<svg
   xmlns:dc="http://purl.org/dc/elements/1.1/"
   xmlns:cc="http://creativecommons.org/ns#"
   xmlns:rdf="http://www.w3.org/1999/02/22-rdf-syntax-ns#"
   xmlns:svg="http://www.w3.org/2000/svg"
   xmlns="http://www.w3.org/2000/svg"
   height="351.27087"
   width="320"
   id="svg49"
   version="1.1"
   viewBox="0 0 319.99999 351.27087">
  <metadata
     id="metadata55">
    <rdf:RDF>
      <cc:Work
         rdf:about="">
        <dc:format>image/svg+xml</dc:format>
        <dc:type
           rdf:resource="http://purl.org/dc/dcmitype/StillImage" />
        <dc:title></dc:title>
      </cc:Work>
    </rdf:RDF>
  </metadata>
  <defs
     id="defs53" />
  <radialGradient
     gradientUnits="userSpaceOnUse"
     gradientTransform="matrix(1,-0.1,0.1,0.6,-1.4,9.5)"
     r="21.549999"
     cy="21.389999"
     cx="14.5"
     id="a">
    <stop
       id="stop6"
       stop-color="#a39c95"
       offset="0" />
    <stop
       id="stop8"
       stop-color="#c4beb5"
       offset=".4" />
    <stop
       id="stop10"
       stop-color="#ccc6bd"
       offset=".6" />
  </radialGradient>
  <linearGradient
     gradientTransform="matrix(0.2,15.6,-33.3,0.35,811.8,-4.2)"
     y2="24"
     x2="1"
     y1="24"
     x1="0.40000001"
     gradientUnits="userSpaceOnUse"
     id="c">
    <stop
       id="stop17"
       stop-color="#3d1c10"
       offset="0" />
    <stop
       id="stop19"
       stop-color="#654031"
       offset=".8" />
    <stop
       id="stop21"
       stop-color="#7c5443"
       offset="1" />
  </linearGradient>
  <radialGradient
     gradientUnits="userSpaceOnUse"
     gradientTransform="matrix(-0.9,0.4,-0.6,-1.2,50,16)"
     r="9.6000004"
     cy="12"
     cx="23"
     id="d">
    <stop
       id="stop26"
       stop-color="#e8decd"
       offset=".8" />
    <stop
       id="stop28"
       stop-color="#a8a39c"
       offset="1" />
  </radialGradient>
  <radialGradient
     gradientUnits="userSpaceOnUse"
     gradientTransform="matrix(13,7.6,3.6,-6.1,-71,157)"
     r="1"
     cy="24"
     cx="-0.2"
     id="e">
    <stop
       id="stop33"
       stop-color="#ffb48a"
       offset="0" />
    <stop
       id="stop35"
       stop-color="#ff9768"
       offset=".6" />
    <stop
       id="stop37"
       stop-color="#ff7e4a"
       offset="1" />
  </radialGradient>
  <radialGradient
     gradientUnits="userSpaceOnUse"
     gradientTransform="matrix(7.3,3.3,31,-69,-751,1705)"
     r="0.40000001"
     cy="24"
     cx="0.30000001"
     id="f">
    <stop
       id="stop42"
       stop-color="#faf1df"
       offset=".8" />
    <stop
       id="stop44"
       stop-color="#e6ded4"
       offset="1" />
  </radialGradient>
  <g
     transform="matrix(13.405336,0,0,13.405336,-1.2604825,-18.151206)"
     id="g870">
    <path
       style="fill:#a5a5a5"
       d="m 22.2,19.2 0.5,-1.8 c 0,0 0.9,-0.2 0.33,-0.1 0.16,0.06 0.1,0.3 0.1,0.3 l -0.6,1.67 c 0,0 -0.1,0.07 -0.2,0.05 -0.1,-0.02 -0.16,-0.11 -0.16,-0.11 z M 3.45,20 c 0,0 0.1,-0.16 0.2,-0.2 0.1,-0.04 0.26,0.02 0.26,0 l 0.84,1.7 c 0,0 -0.05,0.1 -0.15,0.12 -0.1,0.03 -0.22,-0.04 -0.2,-0.04 l -0.9,-1.6 z m -2.6,-5.15 c 0,0 0.06,-0.13 0.2,-0.2 0.14,-0.07 0.25,0.02 0.25,0.02 l 0.5,1.45 c 0,0 -0.04,0.1 -0.13,0.1 -0.1,0.02 -0.2,-0.02 -0.2,-0.02 L 0.84,14.83 Z"
       id="path2" />
    <path
       style="fill:#b55c47"
       d="M 4.74,21.5 15.2,2.1 C 17,8.2 18.8,13.7 22.35,19 Z"
       id="path4" />
    <path
       style="fill:url(#a)"
       d="m 14.45,6.55 c 0.63,4.43 2.86,8.36 5.56,12.57 l -13,1.79 z"
       id="path13" />
    <path
       style="fill:#b4aea6"
       d="m 14.45,6.55 -0.94,0.21 -7.43,12.77 0.93,1.4 c 2.4,-3.3 5.73,-8.6 7.44,-14.36 z"
       id="path15" />
    <path
       style="fill:url(#c)"
       d="m 16.74,19.6 -2.5,-9 -3.54,9.8 z"
       id="path24" />
    <path
       style="fill:url(#d)"
       d="m 16.74,19.6 a 4,4 0 0 0 2.2,-1.2 c -2.1,-1.3 -4.02,-5.05 -4.7,-7.8 0.5,3.9 1.2,6.6 2.5,9 z"
       id="path31" />
    <path
       style="fill:url(#e)"
       d="M 15.18,2.13 A 14.45,14.45 0 0 1 8.41,3.73 C 6.44,8 4.73,12.4 1.63,16 c 2.15,1.41 1.94,3.56 3.1,5.53 5.7,-6.9 9.36,-14.46 10.45,-19.36 z"
       id="path40" />
    <path
       style="fill:url(#f)"
       d="m 14.24,10.6 c -1.17,3.2 -3.3,7.02 -5.72,9.1 0,0 1.05,0.6 2.2,0.7 1.41,-2.44 2.36,-4.2 3.5,-9.8 z"
       id="path47" />
  </g>
  <g
     id="text874"
     style="font-style:normal;font-variant:normal;font-weight:normal;font-stretch:normal;font-size:42.1566658px;line-height:1.25;font-family:Inter;-inkscape-font-specification:Inter;letter-spacing:0px;word-spacing:0px;fill:#000000;fill-opacity:1;stroke:none;stroke-width:3.95218706"
     aria-label="eCamp">
    <path
       id="path1153"
       style="font-style:normal;font-variant:normal;font-weight:500;font-stretch:normal;font-size:63.23499298px;font-family:Inter;-inkscape-font-specification:'Inter Medium';stroke-width:3.95218706"
       d="m 73.01473,329.03258 q -5.097423,0 -8.780143,-2.17819 -3.660264,-2.20065 -5.658813,-6.1753 -1.976094,-3.99709 -1.976094,-9.36398 0,-5.29953 1.976094,-9.34154 1.998549,-4.04201 5.568991,-6.31002 3.592897,-2.26802 8.398397,-2.26802 2.919229,0 5.658813,0.96559 2.739585,0.96559 4.917779,3.03151 2.178194,2.06591 3.435708,5.36689 1.257514,3.27852 1.257514,7.97174 v 2.38029 H 60.394678 v -5.03005 h 20.838805 q 0,-2.64976 -1.07787,-4.69322 -1.077869,-2.06592 -3.031507,-3.25607 -1.931182,-1.19014 -4.536033,-1.19014 -2.829406,0 -4.940233,1.39224 -2.088372,1.36979 -3.233608,3.5929 -1.12278,2.20065 -1.12278,4.78304 v 3.92974 q 0,3.45816 1.212602,5.88337 1.235059,2.4252 3.435708,3.70517 2.20065,1.25751 5.142335,1.25751 1.908727,0 3.480619,-0.53893 1.571893,-0.56139 2.717129,-1.66171 1.145236,-1.10033 1.751537,-2.71713 l 6.354937,1.14523 q -0.76349,2.80695 -2.739584,4.91778 -1.953638,2.08837 -4.917778,3.25606 -2.941685,1.14524 -6.714227,1.14524 z" />
    <path
       id="path1155"
       style="font-style:normal;font-variant:normal;font-weight:500;font-stretch:normal;font-size:63.23499298px;font-family:Inter;-inkscape-font-specification:'Inter Medium';stroke-width:3.95218706"
       d="m 134.0603,297.30281 h -7.00615 q -0.4042,-2.24557 -1.50453,-3.95219 -1.10032,-1.70663 -2.69467,-2.89677 -1.59435,-1.19015 -3.57044,-1.79645 -1.95364,-0.6063 -4.15429,-0.6063 -3.97464,0 -7.11843,1.99854 -3.12132,1.99855 -4.94023,5.86092 -1.79645,3.86236 -1.79645,9.43135 0,5.61391 1.79645,9.47627 1.81891,3.86236 4.96269,5.83846 3.14379,1.97609 7.07352,1.97609 2.17819,0 4.13183,-0.58384 1.97609,-0.60631 3.57044,-1.774 1.59435,-1.16769 2.69467,-2.85186 1.12278,-1.70663 1.54944,-3.90728 l 7.00615,0.0225 q -0.56139,3.3908 -2.17819,6.24266 -1.59435,2.82941 -4.10938,4.89532 -2.49257,2.04346 -5.70372,3.16624 -3.21116,1.12278 -7.00615,1.12278 -5.9732,0 -10.64396,-2.8294 -4.670769,-2.85187 -7.365442,-8.15139 -2.672218,-5.29952 -2.672218,-12.64251 0,-7.36544 2.694673,-12.6425 2.694673,-5.29953 7.365437,-8.12893 4.67077,-2.85187 10.62151,-2.85187 3.66026,0 6.8265,1.05542 3.1887,1.03296 5.72618,3.05396 2.53748,1.99855 4.1992,4.89532 1.66171,2.87432 2.24556,6.5795 z" />
    <path
       id="path1157"
       style="font-style:normal;font-variant:normal;font-weight:500;font-stretch:normal;font-size:63.23499298px;font-family:Inter;-inkscape-font-specification:'Inter Medium';stroke-width:3.95218706"
       d="m 151.92374,329.09995 q -3.27852,0 -5.92829,-1.21261 -2.64976,-1.23505 -4.19919,-3.57044 -1.52699,-2.33538 -1.52699,-5.72618 0,-2.91923 1.12279,-4.8055 1.12278,-1.88627 3.0315,-2.98659 1.90873,-1.10033 4.26657,-1.66172 2.35784,-0.56139 4.8055,-0.85331 3.09887,-0.35929 5.03005,-0.58385 1.93119,-0.24701 2.80696,-0.78594 0.87576,-0.53894 0.87576,-1.75154 v -0.15719 q 0,-2.94169 -1.66171,-4.55849 -1.63926,-1.6168 -4.89532,-1.6168 -3.3908,0 -5.34444,1.50452 -1.93118,1.48207 -2.67222,3.30098 l -6.31002,-1.43716 q 1.12278,-3.14379 3.27852,-5.07497 2.17819,-1.95364 5.0076,-2.82941 2.8294,-0.89822 5.95073,-0.89822 2.06592,0 4.37885,0.49402 2.33538,0.47157 4.35639,1.75154 2.04346,1.27997 3.34588,3.66026 1.30243,2.35784 1.30243,6.13039 v 22.90472 h -6.55704 v -4.71568 h -0.26947 q -0.65121,1.30242 -1.95364,2.55994 -1.30242,1.25751 -3.34588,2.08837 -2.04346,0.83086 -4.89532,0.83086 z m 1.45961,-5.38935 q 2.7845,0 4.76059,-1.10032 1.99855,-1.10033 3.03151,-2.87432 1.05541,-1.79645 1.05541,-3.83991 v -4.44621 q -0.35929,0.35929 -1.39225,0.67367 -1.0105,0.29192 -2.31293,0.51648 -1.30242,0.2021 -2.53748,0.38174 -1.23506,0.15719 -2.06592,0.26947 -1.95363,0.24701 -3.57044,0.83086 -1.59435,0.58384 -2.55994,1.68417 -0.94313,1.07787 -0.94313,2.87431 0,2.49258 1.84136,3.77255 1.84136,1.25751 4.69322,1.25751 z" />
    <path
       id="path1159"
       style="font-style:normal;font-variant:normal;font-weight:500;font-stretch:normal;font-size:63.23499298px;font-family:Inter;-inkscape-font-specification:'Inter Medium';stroke-width:3.95218706"
       d="m 177.82628,328.33646 v -34.49182 h 6.44476 v 5.6139 h 0.42666 q 1.07786,-2.85186 3.52553,-4.44621 2.44766,-1.6168 5.86091,-1.6168 3.45816,0 5.79355,1.6168 2.35784,1.61681 3.48062,4.44621 h 0.35929 q 1.23505,-2.76204 3.92973,-4.4013 2.69467,-1.66171 6.4223,-1.66171 4.69322,0 7.65736,2.94168 2.9866,2.94169 2.9866,8.86997 v 23.12928 h -6.71423 v -22.50052 q 0,-3.50308 -1.90872,-5.07497 -1.90873,-1.57189 -4.55849,-1.57189 -3.27852,0 -5.09743,2.021 -1.8189,1.99855 -1.8189,5.14234 v 21.98404 h -6.69177 v -22.92718 q 0,-2.80695 -1.75154,-4.51358 -1.75154,-1.70662 -4.55849,-1.70662 -1.90872,0 -3.52553,1.0105 -1.59435,0.98805 -2.58239,2.76204 -0.96559,1.77399 -0.96559,4.10938 v 21.26546 z" />
    <path
       id="path1161"
       style="font-style:normal;font-variant:normal;font-weight:500;font-stretch:normal;font-size:63.23499298px;font-family:Inter;-inkscape-font-specification:'Inter Medium';stroke-width:3.95218706"
       d="m 233.65092,341.27089 v -47.42625 h 6.55704 v 5.59145 h 0.56139 q 0.58384,-1.07787 1.68417,-2.49257 1.10032,-1.41471 3.05396,-2.47012 1.95364,-1.07787 5.16479,-1.07787 4.17674,0 7.45526,2.11083 3.27852,2.11082 5.14234,6.08547 1.88627,3.97464 1.88627,9.56609 0,5.59144 -1.86382,9.58854 -1.86381,3.97464 -5.11988,6.13038 -3.25606,2.13328 -7.4328,2.13328 -3.14379,0 -5.14234,-1.05541 -1.97609,-1.05541 -3.09887,-2.47012 -1.12278,-1.4147 -1.72908,-2.51502 h -0.40421 v 18.30132 z m 6.57949,-30.18034 q 0,3.63781 1.05541,6.37739 1.05542,2.73959 3.05397,4.28902 1.99855,1.52698 4.89532,1.52698 3.00905,0 5.03006,-1.59434 2.021,-1.61681 3.05396,-4.37885 1.05541,-2.76204 1.05541,-6.2202 0,-3.41325 -1.03296,-6.13038 -1.0105,-2.71713 -3.05396,-4.28902 -2.021,-1.5719 -5.05251,-1.5719 -2.91923,0 -4.94023,1.50453 -1.99855,1.50453 -3.03151,4.1992 -1.03296,2.69467 -1.03296,6.28757 z" />
  </g>
</svg>
