<?xml version="1.0" encoding="utf-8"?>
<!-- Generator: Adobe Illustrator 27.6.1, SVG Export Plug-In . SVG Version: 6.00 Build 0)  -->
<svg version="1.1" id="Ebene_1" xmlns="http://www.w3.org/2000/svg" xmlns:xlink="http://www.w3.org/1999/xlink" x="0px" y="0px"
	 viewBox="0 0 1780 514.3" style="enable-background:new 0 0 1780 514.3;" xml:space="preserve">
<style type="text/css">
	.st0{fill:#575C7A;}
	.st1{fill:#9AA3B2;}
	.st2{fill:#A9B2BF;}
</style>
<path class="st0" d="M158.7,295.5l3.4-3.4l3.4,3.4l-3.4,3.4L158.7,295.5z M302.7,238l2.8-2.8l2.8,2.9l-2.8,2.8L302.7,238z
	 M567,324.2l2-2l1.9,2l-2,2L567,324.2z M479.7,186.2l2.8-2.8l2.8,2.8l-2.8,2.8L479.7,186.2z"/>
<path class="st1" d="M795.5,67.6l2.8-2.8l2.8,2.8l-2.8,2.8L795.5,67.6z"/>
<path class="st0" d="M980,192.4l3.5-3.4l3.4,3.4l-3.4,3.4L980,192.4z M569,379.2l3.4-3.4l3.4,3.4l-3.4,3.4L569,379.2z"/>
<path class="st2" d="M806.7,159.9l2.8-2.8l2.8,2.8l-2.8,2.8L806.7,159.9z M767.4,131l2.8-2.8l2.8,2.8l-2.8,2.8L767.4,131z"/>
<path class="st0" d="M558.2,471l3.4-3.5l3.4,3.4l-3.4,3.4L558.2,471z M589.3,184.2l2.8-2.8l2.8,2.8l-2.8,2.9L589.3,184.2z
	 M454.9,405l3.4-3.5l3.4,3.4l-3.4,3.4L454.9,405z M630.2,299l3.4-3.4l3.4,3.4l-3.4,3.4L630.2,299z M231.1,262.3l3.4-3.4l3.4,3.4
	l-3.4,3.4L231.1,262.3z M493.1,358.1l3.4-3.4l3.4,3.4l-3.4,3.4L493.1,358.1z M339.4,300.8l3.4-3.4l3.4,3.4l-3.4,3.4L339.4,300.8z
	 M102.7,457.2l3.4-3.4l3.4,3.4l-3.4,3.4L102.7,457.2z M434.2,371.3l3.4-3.4l3.4,3.4l-3.4,3.4L434.2,371.3z M186.4,234.8l3.4-3.4
	l3.4,3.4l-3.4,3.4L186.4,234.8z M129.7,184.1l2.8-2.8l2.8,2.8l-2.8,2.8L129.7,184.1z M49.6,310.5l3.4-3.4l3.4,3.4L53,314L49.6,310.5
	z M48.3,209.4l3.4-3.4l3.4,3.4l-3.4,3.4L48.3,209.4z M195.3,150.4l2.8-2.8l2.8,2.8l-2.8,2.8L195.3,150.4z M746.8,344.5l3.3-3.4
	l3.4,3.4l-3.4,3.4L746.8,344.5z M369.4,427.9l3.4-3.4l3.4,3.4l-3.4,3.4L369.4,427.9z M319.4,154.9l3.4-3.4l3.4,3.4l-3.4,3.4
	L319.4,154.9z M985.7,175.9l3.4-3.4l3.4,3.4l-3.4,3.4L985.7,175.9z M422.8,256.6l3.4-3.4l3.4,3.4l-3.4,3.4L422.8,256.6z M524,272.4
	l1.9-2l2,2l-2,2L524,272.4z M9.5,375.2l3.4-3.4l3.4,3.4l-3.4,3.4L9.5,375.2z M310,415.5l3.3-3.4l3.4,3.4l-3.4,3.4L310,415.5z
	 M366,287.8l3.4-3.4l3.4,3.4l-3.4,3.4L366,287.8z M324,284.3l2.2-2.2l2.2,2.2l-2.2,2.2L324,284.3z M139.3,389.4l2.2-2.2l2.2,2.2
	l-2.2,2.2L139.3,389.4z M117.7,254.6l2.2-2.2l2.2,2.2l-2.2,2.1L117.7,254.6z M191,444.8l2.2-2.2l2.2,2.2l-2.2,2.2L191,444.8z
	 M177.8,356.6l3.1-0.4l0.4,3.1l-3.1,0.4L177.8,356.6z M1122.7,184.4l3.4-3.4l3.4,3.4l-3.4,3.4L1122.7,184.4z M1065.7,133.7l3.4-3.4
	l3.4,3.4l-3.4,3.4L1065.7,133.7z M414.8,172.5l3.4-3.4l3.4,3.4l-3.4,3.4L414.8,172.5z M540,172.6l3.3-3.4l3.4,3.4l-3.4,3.4
	L540,172.6z M40.4,415.2l3.4-3.4l3.4,3.4l-3.4,3.4L40.4,415.2z M257.1,370.8l2.4-2.4l2.4,2.4l-2.4,2.4L257.1,370.8z M609.4,389.3
	l3.4-3.4l3.4,3.4l-3.4,3.4L609.4,389.3z M464.5,303.6l2.9-2.8l2.8,2.8l-2.8,2.8L464.5,303.6z M406,203l3.5-3.3l3.4,3.4l-3.4,3.4
	L406,203z M437.7,463.8l3.4-3.4l3.4,3.4l-3.4,3.4L437.7,463.8z M257.3,198.6l2.8-2.8l2.8,2.8l-2.8,2.8L257.3,198.6z M206,292.1
	l2.4-2.4l2.4,2.4l-2.4,2.4L206,292.1z M308,434.6l2.4-2.4l2.4,2.4l-2.4,2.4L308,434.6z M279.3,316.4l2.4-2.4l2.4,2.4l-2.4,2.4
	L279.3,316.4z M165,236.8l3.3-3.4l3.4,3.4l-3.4,3.4L165,236.8z M730.4,418.8l3.4-3.4l3.4,3.4l-3.4,3.4L730.4,418.8z M724.9,250.7
	l3.4-3.4l3.3,3.4l-3.3,3.4L724.9,250.7z M134.5,317.4l2.4-2.4l2.4,2.4l-2.4,2.4L134.5,317.4z M571.5,224.5l3.4-3.4l3.4,3.4l-3.4,3.4
	L571.5,224.5z"/>
<path class="st2" d="M776.1,60.1l3.4-3.4l3.4,3.4l-3.4,3.4L776.1,60.1z"/>
<path class="st0" d="M550.4,323.7l2-2l2,2l-2,2L550.4,323.7z M79.2,355.8l2.2-2.2l2.2,2.2l-2.2,2.2L79.2,355.8z M1260.2,139.6
	l3.4-3.4l3.4,3.4l-3.4,3.4L1260.2,139.6z M907.1,352.1l1.2-2.9l2.8,1.2l-1.1,2.9L907.1,352.1z M980,467.5l1.2-2.9l2.8,1.2l-1.1,2.9
	L980,467.5z M837.7,321.4l1.1-2.9l3,1.2l-1.2,2.9L837.7,321.4z M884.3,394.3l2.6-1.5l1.6,2.6l-2.7,1.6L884.3,394.3z M1170,361.7
	l1.1-2.8l2.9,1.1l-1.2,2.9L1170,361.7z"/>
<path class="st2" d="M810.4,89.2l1.2-2.9l2.9,1.2l-1.2,2.9L810.4,89.2z"/>
<path class="st1" d="M760.8,104.5l1.2-2.9l2.8,1.2l-1.1,2.9L760.8,104.5z"/>
<path class="st0" d="M1259.7,341.5l1.2-2.9l2.8,1.2l-1.1,2.9L1259.7,341.5z M1217.8,375.1l1.2-3.1l3.2,1.2l-1.3,3.2L1217.8,375.1z
	 M805.5,415.9l1.3-3.2l3.1,1.3l-1.2,3.1L805.5,415.9z M1088.6,426l1.3-3.2l3.1,1.2l-1.2,3.2L1088.6,426z M1150.6,424.9l1.3-3.2
	l3.1,1.3l-1.2,3.1L1150.6,424.9z M883.5,467.8l1.2-3.1l3.2,1.2l-1.3,3.2L883.5,467.8z M806.7,474.3l1.3-3.1l3.1,1.2l-1.3,3.2
	L806.7,474.3z M939.3,416.8l1.3-3.2l3.1,1.3l-1.2,3.1L939.3,416.8z M975.4,359.2l1.2-2.9l2.8,1.2l-1.1,2.8L975.4,359.2z M1216.5,360
	l1.1-2.9l2.9,1.2l-1.2,2.8L1216.5,360z M1250.6,292.4l1.2-2.9l2.8,1.2l-1.1,2.9L1250.6,292.4z M1147.3,244.8l0.6-4.8l4.7,0.7
	l-0.6,4.7L1147.3,244.8z M823,211.6l0.7-4.8l4.7,0.7l-0.6,4.7L823,211.6z"/>
<path class="st1" d="M762.9,83.4l0.6-4.8l4.7,0.6l-0.6,4.8L762.9,83.4z"/>
<path class="st0" d="M786.2,282.1l0.6-4.8l4.8,0.7l-0.7,4.7L786.2,282.1z M676.9,317.7l0.6-4.8l4.7,0.7l-0.6,4.7L676.9,317.7z
	 M970.5,286.6l0.6-4.8l4.7,0.7l-0.6,4.7L970.5,286.6z M838.2,276.7l0.6-4.8l4.7,0.7l-0.6,4.7L838.2,276.7z M1162.2,274.4l0.6-4.8
	l4.7,0.7l-0.6,4.7L1162.2,274.4z M630,209.1l0.7-4.8l4.7,0.7l-0.6,4.7L630,209.1z M1045.3,282.1l0.6-4.8l4.7,0.7l-0.6,4.7
	L1045.3,282.1z M917.8,214.2l0.6-4.7l4.8,0.6l-0.6,4.8L917.8,214.2z M854,262l0.7-4.8l4.7,0.7l-0.6,4.7L854,262z M1162.4,318.4
	l0.6-4.8l4.7,0.7l-0.6,4.7L1162.4,318.4z M1081.8,342.7l3.4-3.4l3.4,3.4l-3.4,3.4L1081.8,342.7z M1026.4,370l3.4-3.3l3.4,3.4
	l-3.4,3.4L1026.4,370z M1179.7,453.7l3.4-3.4l3.4,3.4l-3.4,3.4L1179.7,453.7z M1213.1,221.2l3.4-3.4l3.4,3.4l-3.4,3.4L1213.1,221.2z
	 M1197.7,295.6l3.4-3.4l3.4,3.4l-3.4,3.4L1197.7,295.6z M1034.7,162l2.2-2.1l2.2,2.2l-2.2,2.2L1034.7,162z"/>
<path class="st1" d="M855.4,82.5l2.2-2.2l2.2,2.2l-2.2,2.2L855.4,82.5z M862.2,57.1l0.3-3l3,0.3l-0.2,3L862.2,57.1z M684.8,108.2
	l2.2-2.2l2.2,2.2l-2.2,2.2L684.8,108.2z M724.7,125.4l2.2-2.2l2.2,2.2l-2.2,2.1L724.7,125.4z M718.3,151.1l2.2-2.2l2.2,2.2l-2.2,2.2
	L718.3,151.1z M707,108.9l2.2-2.2l2.2,2.2l-2.2,2.1L707,108.9z M877.3,74.7l2.2-2.2l2.1,2.2l-2.1,2.2L877.3,74.7z M890.6,121.1
	l0.2-3.1l3,0.2l-0.1,3L890.6,121.1z M694,133.8l2.3-2.2l2.2,2.2l-2.2,2.2L694,133.8z"/>
<path class="st0" d="M1051.5,224.8l2.4-2.4l2.4,2.4l-2.4,2.4L1051.5,224.8z M996.4,263.5l2.2-2.2l2.2,2.2l-2.2,2.2L996.4,263.5z
	 M1101.8,16.3l3.4-3.4l3.3,3.4l-3.3,3.4L1101.8,16.3z M1046.3,43.7l3.4-3.4l3.4,3.4l-3.4,3.4L1046.3,43.7z M1733.1,36.4l3.4-3.4
	l3.4,3.4l-3.4,3.4L1733.1,36.4z M1308.4,40.4l3.4-3.4l3.4,3.4l-3.4,3.4L1308.4,40.4z M1242.3,14.9l3.4-3.4l3.4,3.4l-3.4,3.4
	L1242.3,14.9z M1476.7,22l3-0.4l0.4,3.1l-3,0.4L1476.7,22z M1556.2,35.8l2.4-2.4l2.4,2.4l-2.4,2.4L1556.2,35.8z M1378.3,21.1
	l2.2-2.2l2.2,2.2l-2.2,2.2L1378.3,21.1z"/>
<path class="st2" d="M698.4,74.7l3.4-3.4l3.4,3.4l-3.4,3.4L698.4,74.7z M673.5,139.6l3.4-3.4l3.4,3.4l-3.4,3.4L673.5,139.6z"/>
<path class="st0" d="M673.6,23.4L677,20l3.4,3.4l-3.4,3.4L673.6,23.4z M614.7,36.5l3.4-3.4l3.3,3.4l-3.3,3.4L614.7,36.5z"/>
<path class="st2" d="M867.8,37.2L870,35l2.2,2.2l-2.2,2.2L867.8,37.2z"/>
<path class="st0" d="M1314.5,365.6l3.4-3.4l3.4,3.4l-3.4,3.4L1314.5,365.6z M1536.2,278.8l3.4-3.4l3.4,3.4l-3.4,3.4L1536.2,278.8z
	 M1680.1,221.4l2.9-2.8l2.8,2.8l-2.8,2.8L1680.1,221.4z M1298.8,151.1l2.4-2.4l2.4,2.4l-2.4,2.4L1298.8,151.1z M1608.5,245.3
	l3.4-3.4l3.4,3.4l-3.4,3.4L1608.5,245.3z M1716.7,283.8l3.3-3.4l3.4,3.4l-3.4,3.4L1716.7,283.8z M1480.1,440.3l3.4-3.4l3.4,3.4
	l-3.4,3.4L1480.1,440.3z M1329.8,137.2l3.4-3.3l3.4,3.3l-3.4,3.4L1329.8,137.2z M1563.9,218l3.4-3.5l3.4,3.4l-3.4,3.4L1563.9,218z
	 M1507.1,167.3l2.9-2.8l2.8,2.8l-2.8,2.8L1507.1,167.3z M1347.2,170.8l3.4-3.4l3.4,3.4l-3.4,3.4L1347.2,170.8z M1427,293.5l3.4-3.4
	l3.3,3.4l-3.3,3.4L1427,293.5z M1425.9,192.5l3.4-3.4l3.4,3.4l-3.4,3.4L1425.9,192.5z M1572.8,133.6l2.8-2.8l2.8,2.8l-2.8,2.8
	L1572.8,133.6z M1696.7,137.9l3.3-3.4l3.4,3.4l-3.4,3.4L1696.7,137.9z M1386.8,358.3l3.3-3.4l3.4,3.4l-3.4,3.4L1386.8,358.3z
	 M1320.8,333l3.4-3.5l3.4,3.4l-3.4,3.4L1320.8,333z M1687.3,398.6l3.4-3.4l3.4,3.4l-3.4,3.4L1687.3,398.6z M1701.5,267.5l2.2-2.2
	l2.2,2.2l-2.2,2.2L1701.5,267.5z M1516.8,372.5l2.2-2.1l2.2,2.1l-2.2,2.2L1516.8,372.5z M1495.1,237.7l2.2-2.2l2.2,2.2l-2.2,2.2
	L1495.1,237.7z M1568.5,428l2.2-2.2l2.2,2.2l-2.2,2.2L1568.5,428z M1555.3,340l3-0.4l0.4,3.1l-3,0.4L1555.3,340z M1418,398.2
	l3.4-3.4l3.4,3.4l-3.4,3.4L1418,398.2z M1634.6,354l2.4-2.4l2.4,2.4l-2.4,2.4L1634.6,354z M1378.4,233.1l2.4-2.4l2.4,2.4l-2.4,2.4
	L1378.4,233.1z M1321,209.9l2.4-2.4l2.4,2.4l-2.4,2.4L1321,209.9z M1634.7,181.6l2.8-2.8l2.8,2.8l-2.8,2.8L1634.7,181.6z
	 M1583.4,275.3l2.4-2.4l2.4,2.4l-2.4,2.4L1583.4,275.3z M1685.5,417.7l2.4-2.4l2.4,2.4l-2.4,2.4L1685.5,417.7z M1656.7,299.6
	l2.4-2.4l2.4,2.4l-2.4,2.4L1656.7,299.6z M1542.4,219.9l3.4-3.4l3.4,3.4l-3.4,3.4L1542.4,219.9z M1512,300.5l2.4-2.4l2.4,2.4
	l-2.4,2.4L1512,300.5z M1347.4,298l3.4-3.3l3.4,3.4l-3.4,3.4L1347.4,298z M1456.8,339l2.2-2.1l2.2,2.2l-2.2,2.1L1456.8,339z
	 M1765.8,274.3l3.4-3.4l3.4,3.4l-3.4,3.4L1765.8,274.3z M1740.6,304.3l2.4-2.4l2.4,2.4l-2.4,2.4L1740.6,304.3z M125.6,7.8l3.4-3.4
	l3.4,3.4l-3.4,3.4L125.6,7.8z M306.1,13l3.4-3.3l3.4,3.4l-3.4,3.4L306.1,13z M16.3,22.7l3.4-3.4l3.4,3.4l-3.4,3.4L16.3,22.7z
	 M144.5,69l3.1-0.3l0.4,3.1l-3.1,0.4L144.5,69z M246,28.6l2.4-2.4l2.4,2.4l-2.4,2.4L246,28.6z M101.2,29.6l2.4-2.4l2.4,2.4l-2.4,2.4
	L101.2,29.6z M46,68.2l2.3-2.2l2.1,2.2l-2.1,2.2L46,68.2z M463.4,42l3.4-3.4l3.4,3.4l-3.4,3.4L463.4,42z M490,28.9l3.4-3.4l3.4,3.4
	l-3.4,3.4L490,28.9z M448,25.6l2.2-2.2l2.2,2.2l-2.2,2.1L448,25.6z M330,33.4l2.4-2.4l2.4,2.4l-2.4,2.4L330,33.4z M403.2,57.7
	l2.4-2.4l2.4,2.4l-2.4,2.4L403.2,57.7z M567,72.4l1.9-2l2,2l-2,2L567,72.4z M569,127.6l3.4-3.4l3.4,3.4l-3.4,3.4L569,127.6z
	 M493,106.4l3.4-3.4l3.4,3.4l-3.4,3.4L493,106.4z M434.3,119.6l3.4-3.4l3.4,3.4l-3.4,3.4L434.3,119.6z"/>
<path class="st2" d="M711.4,128.8l3.4-3.4l3.4,3.4l-3.4,3.4L711.4,128.8z M724.7,173.7l3.4-3.4l3.4,3.4l-3.4,3.4L724.7,173.7z"/>
<path class="st0" d="M9.4,123.7l3.4-3.4l3.4,3.4l-3.4,3.4L9.4,123.7z M139.3,137.6l2.1-2.2l2.2,2.2l-2.2,2.2L139.3,137.6z
	 M177.7,105.2l3.1-0.4l0.4,3.1l-3.1,0.4L177.7,105.2z M257.1,119l2.4-2.4l2.4,2.4l-2.4,2.4L257.1,119z M609.4,137.7l3.4-3.4l3.4,3.4
	l-3.4,3.4L609.4,137.7z M550.4,72.1l2-2l2,2l-2,2L550.4,72.1z M79.3,104.2l2.2-2.2l2.2,2.2l-2.2,2.2L79.3,104.2z"/>
<path class="st1" d="M902.3,95.2l1.1-2.9l3,1.2l-1.2,2.9L902.3,95.2z"/>
<path class="st2" d="M895.8,140l2.7-1.5l1.5,2.7l-2.7,1.6L895.8,140z"/>
<path class="st0" d="M1170.1,109.9l1.2-2.9l2.9,1.2l-1.2,2.9L1170.1,109.9z M1259.9,89.7l1.1-2.9l3,1.2l-1.2,2.8L1259.9,89.7z
	 M1217.6,123.7l1.3-3.2l3.1,1.3l-1.2,3.1L1217.6,123.7z M975.2,107.8l1.2-3l2.9,1.2l-1.2,2.9L975.2,107.8z M1216.4,108.3l1.2-2.9
	l2.9,1.2l-1.2,2.8L1216.4,108.3z M1081.9,91l3.4-3.4l3.4,3.4l-3.4,3.4L1081.9,91z M963.5,29l3.4-3.3l3.4,3.4l-3.4,3.4L963.5,29z"/>
<path class="st2" d="M853,102.7l3.4-3.4l3.4,3.4l-3.4,3.3L853,102.7z"/>
<path class="st0" d="M1026.3,118.5l3.4-3.4l3.4,3.4l-3.4,3.4L1026.3,118.5z"/>
<path class="st2" d="M882.6,97l3.4-3.5l3.4,3.4l-3.4,3.4L882.6,97z"/>
<path class="st0" d="M1314.6,113.9l3.4-3.4l3.4,3.4l-3.4,3.4L1314.6,113.9z M1387,106.7l3.3-3.4l3.4,3.4l-3.4,3.4L1387,106.7z"/>
<path class="st1" d="M776,151.1l3.5-3.4l3.4,3.4l-3.4,3.4L776,151.1z"/>
<path class="st0" d="M1320.8,81.3l3.4-3.4l3.4,3.4l-3.4,3.4L1320.8,81.3z"/>
<path class="st1" d="M818,131l3.3-3.4l3.4,3.4l-3.4,3.4L818,131z"/>
<path class="st0" d="M1687.3,147l3.4-3.4l3.4,3.4l-3.4,3.4L1687.3,147z M1516.9,120.7l2.2-2.1l2.1,2.1l-2.1,2.2L1516.9,120.7z
	 M1555.2,88.2l3-0.4l0.4,3.1l-3,0.4L1555.2,88.2z M1417.9,146.6l3.4-3.4l3.4,3.4l-3.4,3.4L1417.9,146.6z M1634.7,102.2l2.4-2.4
	l2.4,2.4l-2.4,2.4L1634.7,102.2z M1456.8,87.4l2.2-2.2l2.2,2.2l-2.2,2.2L1456.8,87.4z"/>
</svg>
