<svg xmlns="http://www.w3.org/2000/svg" viewBox="0 0 24 24">
    <path fill="#A5A5A5" d="M22.2 19.2l.5-1.8s.9-.2.33-.1c.16.06.1.3.1.3l-.6 1.67s-.1.07-.2.05-.16-.11-.16-.11zM3.45 20s.1-.16.2-.2.26.02.26 0l.84 1.7s-.05.1-.15.12c-.1.03-.22-.04-.2-.04l-.9-1.6zM.85 14.85s.06-.13.2-.2.25.02.25.02l.5 1.45s-.04.1-.13.1c-.1.02-.2-.02-.2-.02l-.63-1.37z"/>
    <path fill="#B55C47" d="M4.74 21.5L15.2 2.1c1.8 6.1 3.6 11.6 7.15 16.9L4.74 21.5z"/>
    <radialGradient id="innertent" cx="14.5" cy="21.39" r="21.55" gradientTransform="matrix(1 -.1 .1 .6 -1.4 9.5)" gradientUnits="userSpaceOnUse">
        <stop offset="0" stop-color="#a39c95"/>
        <stop offset=".4" stop-color="#c4beb5"/>
        <stop offset=".6" stop-color="#ccc6bd"/>
    </radialGradient>
    <path fill="url(#innertent)" d="M14.45 6.55c.63 4.43 2.86 8.36 5.56 12.57l-13 1.79 7.44-14.36z"/>
    <path fill="#b4aea6" d="M14.45 6.55l-.94.21-7.43 12.77.93 1.4c2.4-3.3 5.73-8.6 7.44-14.36z"/>
    <linearGradient id="innershadow" gradientUnits="userSpaceOnUse" x1=".4" y1="24" x2="1" y2="24" gradientTransform="matrix(.2 15.6 -33.3 .35 811.8 -4.2)">
        <stop offset="0" stop-color="#3d1c10"/>
        <stop offset=".8" stop-color="#654031"/>
        <stop offset="1" stop-color="#7c5443"/>
    </linearGradient>
    <path fill="url(#innershadow)" d="M16.74 19.6l-2.5-9-3.54 9.8z"/>
    <radialGradient id="doorright" cx="23" cy="12" r="9.6" gradientTransform="matrix(-.9 .4 -.6 -1.2 50 16)" gradientUnits="userSpaceOnUse">
        <stop offset=".8" stop-color="#e8decd"/>
        <stop offset="1" stop-color="#a8a39c"/>
    </radialGradient>
    <path fill="url(#doorright)" d="M16.74 19.6a4 4 0 002.2-1.2c-2.1-1.3-4.02-5.05-4.7-7.8.5 3.9 1.2 6.6 2.5 9z"/>
    <radialGradient id="outertent" cx="-.2" cy="24" r="1" gradientTransform="matrix(13 7.6 3.6 -6.1 -71 157)" gradientUnits="userSpaceOnUse">
        <stop offset="0" stop-color="#ffb48a"/>
        <stop offset=".6" stop-color="#ff9768"/>
        <stop offset="1" stop-color="#ff7e4a"/>
    </radialGradient>
    <path fill="url(#outertent)" d="M15.18 2.13a14.45 14.45 0 01-6.77 1.6C6.44 8 4.73 12.4 1.63 16c2.15 1.41 1.94 3.56 3.1 5.53 5.7-6.9 9.36-14.46 10.45-19.36z"/>
    <radialGradient id="doorleft" cx=".3" cy="24" r=".4" gradientTransform="matrix(7.3 3.3 31 -69 -751 1705)" gradientUnits="userSpaceOnUse">
        <stop offset=".8" stop-color="#faf1df"/>
        <stop offset="1" stop-color="#e6ded4"/>
    </radialGradient>
    <path fill="url(#doorleft)" d="M14.24 10.6c-1.17 3.2-3.3 7.02-5.72 9.1 0 0 1.05.6 2.2.7 1.41-2.44 2.36-4.2 3.5-9.8z"/>
</svg>
