<svg xmlns="http://www.w3.org/2000/svg" viewBox="17 103 1328 561">
    <title>Error 404</title>
    <style>
        .orange-gray-outer-tent{fill:#b55c47}
    </style>
    <defs>

        <radialGradient id="gray-inner-tent-base" cx="682.04" cy="381.38" fx="682.04" fy="381.38" r="242.51"
                        gradientUnits="userSpaceOnUse">
            <stop offset="0" stop-color="#a39c95"/>
            <stop offset=".4" stop-color="#c4beb5"/>
            <stop offset=".6" stop-color="#ccc6bd"/>
        </radialGradient>
        <radialGradient id="light-gray-inner-tent" cx="262.67" cy="76.54" fx="262.67" fy="76.54" r="525.06"
                        href="#gray-inner-tent-base"/>
        <radialGradient id="gray-inner-tent-base-3" cx="117.33" cy="284.42" fx="117.33" fy="284.42" r="243.01"
                        gradientUnits="userSpaceOnUse">
            <stop offset=".8" stop-color="#e8decd"/>
            <stop offset="1" stop-color="#a8a39c"/>
        </radialGradient>
        <radialGradient id="orange-outer-tent" cx="366.75" cy="244.4" fx="366.75" fy="244.4" r="133.71"
                        gradientUnits="userSpaceOnUse">
            <stop offset="0" stop-color="#ffb48a"/>
            <stop offset=".6" stop-color="#ff9768"/>
            <stop offset="1" stop-color="#ff7e4a"/>
        </radialGradient>
        <radialGradient id="transformed-gray-inner-tent" cx="1166.64" cy="76.54" fx="1166.64" fy="76.54" r="525.06"
                        href="#gray-inner-tent-base"/>
        <radialGradient id="orange-brown-darker-outer-tent" cx="1021.3" fx="1021.3" r="243.01"
                        href="#gray-inner-tent-base-3"/>
        <radialGradient id="orange-outer-tent-transformed" cx="1270.73" fx="1270.73" href="#orange-outer-tent"/>
        <linearGradient id="orange-brown-shaded-one" x1="212.47" y1="195.55" x2="215.27" y2="414.67"
                        gradientUnits="userSpaceOnUse">
            <stop offset="0" stop-color="#3d1c10"/>
            <stop offset=".8" stop-color="#654031"/>
            <stop offset="1" stop-color="#7c5443"/>
        </linearGradient>
        <linearGradient id="orange-brown-shaded" x1="1116.44" x2="1119.25" y2="414.67"
                        href="#orange-brown-shaded-one"/>
    </defs>
    <path d="M487.37 378.96c0-185.18 77.73-279.93 194.67-279.93s194.67 95.46 194.67 279.93-77.73 284.77-194.67 284.77-194.67-99.59-194.67-284.77Zm270.14 0c0-148.47-33.05-182.52-75.47-182.52s-75.47 34.04-75.47 182.52 33.05 187.36 75.47 187.36 75.47-38.88 75.47-187.36Z"
          style="fill:url(#gray-inner-tent-base)" id="zero"/>
    <g id="first-four">
        <path class="orange-gray-outer-tent"
              d="M374.06 108.51h-59.78L88.64 524.08h347.54c-30.2-85.62-49.27-239.02-62.12-415.57Z"/>
        <path d="m85.95 524.09 225.64-415.58h55.98l3.82 319.18v96.4s-.01 87.11-.01 130.67H251.42l-.1-130.62-165.36-.05Z"
              style="fill:url(#light-gray-inner-tent)"/>
        <path style="fill:url(#orange-brown-shaded-one)" d="m265.15 199 24.74 228.24-148.91.45L265.15 199z"/>
        <path d="M265.67 203.77c15.94 90 31.14 167.54 58.77 212.26-8.22 6.56-19.16 11.33-35.27 11.22-20.28-47.37-26.76-129.74-23.5-223.48Z"
              style="fill:url(#gray-inner-tent-base-3)"/>
        <path d="M88.64 524.09H20.61v-91.15l199.22-324.43h154.23C320.85 123.64 254.1 219.35 254.1 219.35L88.64 524.08Z"
              style="fill:url(#orange-outer-tent)"/>
    </g>
    <g id="second-four">
        <path class="orange-gray-outer-tent"
              d="M1278.03 108.51h-59.78L992.61 524.08h347.54c-30.2-85.62-49.27-239.02-62.12-415.57Z"/>
        <path d="m989.92 524.09 225.64-415.57h55.98l3.82 319.18v96.4s-.01 87.11-.01 130.67h-119.96l-.1-130.62-165.36-.05Z"
              style="fill:url(#transformed-gray-inner-tent)"/>
        <path style="fill:url(#orange-brown-shaded)" d="m1169.12 199 24.75 228.24-148.91.45L1169.12 199z"/>
        <path d="M1169.64 203.77c15.94 90 31.14 167.54 58.77 212.26-8.22 6.56-19.16 11.33-35.27 11.22-20.28-47.37-26.76-129.74-23.5-223.48Z"
              style="fill:url(#orange-brown-darker-outer-tent)"/>
        <path d="M992.62 524.09h-68.04v-91.15l199.22-324.42h154.23c-53.21 15.13-119.96 110.84-119.96 110.84L992.61 524.09Z"
              style="fill:url(#orange-outer-tent-transformed)"/>
    </g>
</svg>