<svg version="1.1" xmlns="http://www.w3.org/2000/svg" xmlns:xlink="http://www.w3.org/1999/xlink" x="0px" y="0px" viewBox="0 0 140 180" style="enable-background:new 0 0 140 180;" xml:space="preserve">
<g id="Ebene_1">
	<g>
		<path class="st0" d="M21.1,102.5c0,0,0.9-0.7,2.1-0.9c0,0,1.8-0.4,2.6-0.2c0,0,3,0.2,3.1,0.3l2,0.6c0,0-0.4-0.4-0.9-1    c-0.7-0.2-1.6-0.5-1.6-0.5s-2.4-0.3-2.8-0.3c0,0-1.6-0.1-4,0.9c0,0-2.8,1.5-3.3,2.3c0,0-1.3,1.3-1.3,3.4c0,0,0,0.1,0,0.2    c-0.8,0-2,0.1-2.5,0.5c0,0-2.8,1.4-3.5,2.4c0,0-2,1.8-2.8,2.7c0,0-0.9,1.7-1.1,2.3c0,0-1.1,1.3-1.2,2c0,0-1.5,2.8-1.5,3.7    c0,0-0.9,3.5-0.9,4.4c0,0,0,0.9,0.7,1.9c-0.4,0.4-0.7,0.8-0.7,0.9c0,0-0.1,7.1,0.1,8c0,0,0.8,2.6,3.4,0.9c0,0,1.4-1,0.5-1.1    c0,0-0.3-0.3-0.8,0.2c0,0-1.1,1.2-2.1,0.3c0,0-0.6,0-0.5-4l0-4c0,0,0.2-0.3,0.6-0.5c0.3,0.3,0.8,0.7,1.3,1c0,0,2.2,0.2,1.4-1.5    c0,0,0.1-1.7-2.2-1.1c0,0-0.1,0.1-0.3,0.3c-0.2-0.3-0.4-0.6-0.5-0.8c0,0-0.2-1.4,0.2-1.7c0,0,0.2-1.8,0.4-2.1c0,0,0.9-3.5,1.4-3.7    c0,0,0.8-2,1.5-2.8c0,0,0.8-1.8,1.9-3.2c0,0,1.9-1.8,2.1-2.1l2.2-1.4c0,0,1.1-0.6,2.5-0.7c0,0,0.2,0,0.4,0    c0.1,0.5,0.3,1.1,0.6,1.7c0,0,0.9,2,2.2,0.7c0,0,1.6-1,0.6-2.4c0,0-1.1-0.9-2.7-0.8c0,0-0.1,0-0.2,0c0-0.3,0.1-0.6,0.1-0.8    c0,0,0.3-0.8,0.2-1.3c0,0,0.8-1.1,1.2-1.4C19.1,103.8,20.5,102.9,21.1,102.5z M5.7,127.1c0.4-0.3,0.4,0,0.8,0    c0.4,0,0.4,0.3,0.4,0.6c0,0.3-0.1,0.4-0.4,0.4c-0.3,0-0.4-0.2-0.4-0.2c0-0.1-0.2-0.2-0.4-0.4C5.7,127.4,5.3,127.3,5.7,127.1z     M19.5,108.4c0,0,1,0.2,0.4,1.3c0,0-1.2,0.8-1.4-0.2c0,0-0.7-1-0.8-1.1c0,0,0-0.1,0-0.2C18.2,108.2,18.9,108.2,19.5,108.4z"/>
		<path class="st0" d="M34.4,135.7c0,0-0.5,0.6-1,0.1c0,0-0.3-0.2-0.5-2c0,0,0-0.6-0.5-0.6c0,0-0.6-0.1-1,0.4c0,0-1.2,1.4-1.4,1.8    c0,0-0.3,0.6-0.5,0.5c0,0-0.3-0.6-0.2-0.9c0,0,0.1-1.7,0.1-1.7c0,0,0.1-0.9-0.2-1c0,0-0.4-0.3-0.7,0.3c0,0-1.9,2.5-2.4,3    c0,0-0.4,0.6-1.4,0.1c0,0-0.4-0.3-0.4-0.8c0,0,0.8-0.2,0.9-0.5c0,0,0.4-0.5,0.1-0.7c0,0-0.5-0.5-1-0.5c0,0-0.7-0.2-0.9,0.2    c0,0-0.2,0.2-0.2,0.3c0,0-0.1,0.5,0,0.6c0,0-0.8,0.4-0.2,0.8c0,0,0.1,0.1,0.4,0.2c0,0,0.2,1.5,2,1.6c0,0,0.9,0.1,1.4-0.7    c0,0,1.5-1.7,1.8-2.2c0,0-0.1,1.8,0.2,2.5c0,0,0.5,1.1,1.3,0.3c0,0,1-1,1.2-1.6c0,0,0.7-0.9,0.9-1c0,0,0.1,0.8,0.2,1.2    c0,0,0.1,0.9,0.7,1.3c0,0,0.2,0.3,0.8,0.2c0,0,0.8-0.1,1-0.5c0,0,0.4-0.1,0.3-0.6C35,135.7,34.9,135.4,34.4,135.7z M23.8,134.2    c0.1-0.7,0.4-0.2,0.4-0.2l0,0c0,0,0,0,0,0L23.8,134.2C23.8,134.2,23.8,134.2,23.8,134.2L23.8,134.2z"/>
		<path class="st0" d="M19.5,132.2c0,0-0.7,0.2-1.9,2.3l0.1-4.4c0,0-0.4-0.6-0.9,0.1c0,0-2.5,3.9-4.1,5.4c0,0-1,1.2-2.5,0.4    c0,0-0.9-0.6-0.7-1.4c0,0,1.7-0.2,1.7-0.3c0,0,0.6-0.5,0.1-1c0,0-0.2-0.7-1.1-0.9c0,0-1.3-0.1-1.7,1.8c0,0-0.3,2.4,2.1,2.8    c0,0,1.6,0.5,3.3-1.4c0,0,1.9-2.5,2.9-4c0,0,0,5,0,5.2c0,0.2,0.7,0.5,1.3,0.2c0,0,1.8-0.9,2.4-3.9C20.5,133.2,20.6,132,19.5,132.2    z M9.5,133.5c0.2-0.4,0.8-0.3,0.8-0.3c0.1,0,0.2,0.1,0.2,0.3c0,0,0,0.1,0,0.1c-0.1,0.2-1,0.3-1,0.3c0,0,0-0.1,0-0.1   C9.4,133.6,9.5,133.5,9.5,133.5z M19.8,133.5c0,0.3-0.8,1.7-0.8,1.7c-0.5,0.9-1.1,1.2-1.1,1.2c-0.2-0.1-0.2-0.2-0.2-0.2    c0-0.2,0.6-1.4,0.6-1.4c0.3-0.7,1.1-1.6,1.1-1.6C20,132.6,19.8,133.5,19.8,133.5z"/>
		<path class="st0" d="M10.3,133.2c0.1,0,0.2,0.1,0.2,0.2C10.5,133.3,10.4,133.2,10.3,133.2c0,0-0.6-0.1-0.8,0.3    c0,0-0.1,0.1-0.1,0.2c0-0.1,0.1-0.2,0.1-0.2C9.8,133.1,10.3,133.2,10.3,133.2z"/>
		<path class="st0" d="M24.2,134L24.2,134c0,0-0.3-0.5-0.4,0.2l0,0C23.9,133.6,24.1,134,24.2,134z"/>
		<path class="st0" d="M37.7,132.1c0,0-0.7,0-0.6,0.7c0,0,0,2.9,0,3.1c0,0-0.4,0.2-1.2-0.8c0,0-0.5-0.7-0.7-0.6c0,0-0.3-0.1-0.5,0.2    c0,0,0,0.4,0.1,0.5c0,0,1.1,1.1,1.5,1.4c0,0,0.9,0.4,1.2,0.3c0,0,0.4-0.1,0.4-0.4c0,0-0.1-3,0-3.1c0,0,0.2,0.1,0.3,0.3    c0,0,0.2,0.6,0.5,0.1c0,0,0.1-0.1,0-0.7C38.8,133.1,38.3,132.2,37.7,132.1z"/>
		<path class="st0" d="M48.9,133c0,0-0.5-0.2-1.3,0.2c0,0-0.7,0.2-1.1,1.4c0,0-0.2-1-0.7-0.9c0,0-0.6,0-1.4,0.4c0,0-1.1,0.9-1.5,1.2    l-1.1,1l0.1-2.1c0,0,0.1-2.5,0.2-2.6c0,0,0.1-1.1,0.3-1.3c0,0,0.4,0.3,0.4,0.6c0,0,0.3,0.6,0.6,0.5c0,0,0.6-0.2,0-1.2    c0,0-0.7-1.1-1.3-0.9c0,0-0.8,0.2-0.9,2.7c0,0-0.2,3.9-0.2,5c0,0-0.6,0.4-0.9,0.4c0,0-0.3-0.1-0.4,0.2c0,0-0.5,0.4,0,0.7    c0,0,0.2,0.1,0.3,0.1c0,0,0.4-0.1,0.8-0.3l0,7.7c0,0,0,4.6,0.3,5.1c0,0,0.4,0.4,0.7-0.1c0,0-0.1-2.7-0.2-3.1c0,0,0-6.4,0-6.6    l0-3.5c0,0,0.8-0.7,2.4-2.2c0,0,0.6-0.6,1.3-0.8c0,0,0.3,0.3,0.2,1.1l0,1.4c0,0,0.4,0.4,0.6,0.3c0,0,0.3,0,0.4-0.8    c0,0,0.2-1,1.1-2.4c0,0,0.4-0.4,1.2-0.5C49,133.6,49.3,133.2,48.9,133z"/>
		<path class="st0" d="M59.7,135.4c0,0-0.3,0.5-0.5,0.5c0,0-0.3,0-0.2-0.9l0.2-1.4c0,0,0.2-0.5-0.4-0.7c0,0-0.4-0.1-1.3,1.1    c0,0-0.7,1-0.9,1.1c0,0-0.2,0.3-0.2,0.3c0,0-0.2,0.2-0.2-0.3c0,0-0.1-0.7,0-1.2c0,0,0-0.3-0.5-0.3c0,0-0.2,0-1,1    c0,0-1.3,1.4-1.5,1.6c0,0-0.5,0.5-0.8,0.2c0,0-0.5,0-0.7-0.6l0-0.7c0,0,1.5-0.6,1.6-0.6c0,0,0.3-0.3,0.1-0.7c0,0-0.2-0.3-0.4-0.2    c0,0-0.2-0.2-0.5-0.3c0,0-0.7-0.2-1.1,0.3c0,0-0.3,0.3-0.4,0.9c0,0-0.8,0-1,0c0,0-0.4,0-0.4,0.6c0,0,0.4,0.3,0.6,0.3l0.7,0    c0,0-0.1,1.3,0.8,1.7c0,0,1,0.5,1.6,0.1c0,0,0.5-0.2,1.5-1.3c0,0,0.5-0.4,0.6-0.6c0,0,0.1,0.6,0.2,0.7c0,0,0.3,0.4,0.5,0.5    c0,0,0.6,0.1,0.9-0.2c0,0,0.7-0.7,0.8-1l0.5-0.6l0.1,1.3c0,0,0.3,0.7,0.6,0.7c0,0,0.5,0.2,0.9,0c0,0,0.6-0.4,1.2-1.3    c0,0,0.1-0.2-0.2-0.4C60.6,134.8,60.4,134.5,59.7,135.4z M51.7,134.1c0.4-0.1,0.4,0.1,0.4,0.1l0,0c0,0,0,0,0,0l-0.6,0.2    c0,0,0-0.1,0-0.1C51.6,134.2,51.7,134.1,51.7,134.1z"/>
		<path class="st0" d="M51.7,134.1c0.3-0.1,0.4,0,0.4,0.1l0,0C52.1,134.2,52.1,134,51.7,134.1c0,0-0.2,0.1-0.2,0.2    C51.6,134.2,51.7,134.1,51.7,134.1z"/>
		<path class="st0" d="M62.8,134.8c0,0-0.1-4.6,0.1-5.1c0,0,0-0.5,0.3-0.5c0,0,0.2-0.6-0.2-0.8l-0.4,0c0,0-0.7,0.6-0.6,5.8    c0,0,0,5,1.3,6.6c0,0,0.7,0.2,0.4-0.4C63.8,140.4,62.9,138.8,62.8,134.8z"/>
		<path class="st0" d="M70.2,135.3c-0.3,0.1-0.9,0.7-0.9,0.7c-0.4,0.7-0.6-0.3-0.6-0.3c-0.1-0.2-0.3-2.3-0.3-2.3    c-0.2-1.1-1.1-0.7-1.1-0.7c-0.8,0.5-1.6,2.1-1.6,2.1l0-1.3c-0.6-0.7-1,0.2-1,0.2c-1,1.2-1.1,1.6-1.1,1.7c0,0,0.1,0.1,0.1,0.2    c0.3,0.4,0.6,0,0.6,0c0.3-0.3,0.5-0.6,0.5-0.6v1.1c0,0.9,0.4,0.8,0.4,0.8c0.5,0.1,0.8-0.6,0.8-0.6c0.6-1.3,1.5-2.4,1.5-2.4    c0.2,0.1,0.2,0.7,0.2,0.7c0,2.1,0.9,2.6,0.9,2.6c1,0.4,1.8-1,1.8-1C71,135.3,70.2,135.3,70.2,135.3z"/>
		<path class="st0" d="M63.6,135.2C63.6,135.2,63.6,135.2,63.6,135.2C63.6,135.1,63.6,135.2,63.6,135.2z"/>
		<path class="st0" d="M71.7,127.9c0,0-0.5-0.1-0.5,0.4c0,0,2.1,3,0.9,9.6c0,0-0.4,4-1.6,6.1c0,0,0,0.6,0.5,0.3c0,0,1.1-0.8,2-6.6    c0,0,0.9-5.1-0.4-8.5C72.5,129.2,72,127.9,71.7,127.9z"/>
		<path class="st0" d="M80.8,137.5c0,0-0.5,0.4-0.7,0.3c0,0-0.8-0.4-0.9-1.9c0,0-0.3-1.7,0.2-4.5c0,0,0.1-1.2,0-1.4    c0,0-0.4-0.8-1,0.8l-0.9,2.3c0,0-0.4,0.8-0.5,0.9c0,0-0.3-0.4-1-0.1c0,0-0.8,0.5-1.2,1.9c0,0-0.4,1.5,0.7,1.6c0,0,0.4,0.3,1.3-1.3    c0,0,1.1-2,1.4-2.8c0,0-0.2,3.2,0.6,4.6c0,0,0.7,1,1.4,0.8c0,0,0.3,0,0.9-0.6C81.2,138,81.4,137.4,80.8,137.5z M75.6,136.6    c-0.2-0.1-0.2-0.5-0.2-0.5c0-0.8,1-1.8,1-1.8c0.3,0,0.3,0.6,0.3,0.6C76.3,135.8,75.6,136.6,75.6,136.6z"/>
		<path class="st0" d="M85.7,134.1c0,0-0.3-0.4-1,0.6c0,0-1.2,1.4-1.8,1.6c0,0-0.8,0.4-1-0.6c0,0-0.1-0.2,0.4-0.4    c0,0,0.9-0.4,1.3-1.2c0,0,0.3-0.8-0.5-0.9c0,0-1-0.2-1.5,1.1c0,0-0.1,0.5-0.3,0.2c0,0-0.6,0-0.7,0.6c0,0,0,0.2,0,0.3    c0,0,0.2,0.2,0.4,0.2c0,0,0,1.1,0.5,1.4c0,0,0.9,0.8,2.2-0.1c0,0,1.2-1.1,1.8-1.9C85.4,135,85.9,134.5,85.7,134.1z M82.2,134.4    l0.1-0.2c0.2-0.4,0.4-0.3,0.4-0.3c0.1,0,0.1,0,0.1,0.1c0,0.1-0.1,0.2-0.1,0.2C82.4,134.4,82.2,134.4,82.2,134.4L82.2,134.4    C82.2,134.4,82.2,134.4,82.2,134.4z"/>
		<path class="st0" d="M82.7,133.9C82.8,133.9,82.8,133.9,82.7,133.9C82.8,133.9,82.8,133.9,82.7,133.9c0,0-0.2-0.1-0.4,0.3    l-0.1,0.2c0,0,0,0,0,0l0.1-0.2C82.5,133.8,82.7,133.9,82.7,133.9z"/>
	</g>
	<g>
		<path class="st0" d="M82.8,36.9c-1,0.1-1.9-0.2-2.8-0.1c-0.6,1.4-1.4,2.7-2.4,3.9c-1.6,1.4-3.5,2.2-5.7,2.1    c-1.4-0.4-2.2,1.4-3.1,2.1c-0.6,0.2-0.7,0.9-1.2,1.2c-1.1,1.8-1.5,3.9-2.5,5.7c-0.1,0.4-0.4,0.8-0.7,1.1c-0.8,0.8,0.5,0.8,0.6,1.5    c0.5,1.8,2.1,3.3,3.8,4c0.6,0.8,1.7,1.5,1.8,2.6c0.3,0.2,0.4,0.6,0.8,0.7c0.7-0.3,0.7-1.2,1.2-1.6c-0.2-0.7,0.5-0.9,0.4-1.5    c-0.3-1.3,0.9-2.3,1.7-3.3c0.6-0.9,1.4-1.6,2-2.5c0.7-0.5,1.2-1.1,1.9-1.4c0.4-0.8,1.1-1.4,1.7-2.1c1.1-0.6,2.4-0.8,3.5-1.5    c0.4-0.4,0.9-0.3,1.2-0.8c1.2-0.2,1.4-1.6,2.4-2.1c0-0.7,0.4-1.2,0.7-1.7c0.8-0.4,1.1-1.1,1.3-1.9c-0.3-0.1-0.4,0.3-0.7,0.1    c-0.8-0.4-2.1,0.4-2.6-0.7c0.3-0.6,0.7-1.3,1.1-2c-0.9-0.7-1.9-1.3-2.9-1.9C83.9,36.8,83.3,37.1,82.8,36.9z"/>
		<path class="st0" d="M43.1,90.8c-0.5,0.2-1,0.1-1.4,0.5c-0.6,0-1.1,0.1-1.6,0.2c-1.9,0.7-3.9,1.2-5.7,2.2    c-0.4,0.8-1.5,0.7-1.6,1.6c1.8,0.4,3.6,0.8,5.4,0.7c1,0.1,2.2-0.2,3.3-0.1c1.1,0,2.3-0.3,3.5-0.5c-0.1-0.7-0.1-1.5,0.1-2.2    c-0.1-0.9,0.3-1.8,0.2-2.8l-0.6,0.3C44,90.6,43.6,90.9,43.1,90.8z"/>
		<path class="st0" d="M65.7,37.5c0.3-0.7-0.5-1.4,0.2-1.9c0.6-0.6,1.5-0.8,2.2-0.6c0.4,0.2,0.8,0.7,0.5,1.2c-0.2,0.5-0.9,0.8-1,1.2    c0.5,0.1,0.9-0.1,1.3-0.4c0.6-0.8,0.6-2.1,0.3-3c-0.4-0.6-0.9-0.7-1.4-0.9c-0.8,0.3-1.6,0.4-2.1,1.2c-0.1,0.6-0.8,0.9-0.8,1.5    c-0.4,0.4-0.3,1.3-0.2,1.8C65.1,37.9,65.3,37.5,65.7,37.5z"/>
		<path class="st0" d="M44.7,100.9c-0.7,0.8-1.2,1.6-1.8,2.5c-0.5,0.6-0.6,1.5-0.5,2.3c-0.3,0.9,0.5,0.8,1,1.2    c0.4-0.1,0.6,0.3,1,0.2c0-0.6-0.3-1.4-0.2-2.1c0.2-0.5,0.1-1.1,0.7-1.5l-0.3-0.3L44.7,100.9z"/>
		<path class="st0" d="M71.4,113.4c-0.3-0.8-0.9-1.6-0.9-2.5c0-0.5,0.2-1.3,0-1.9c0.5-1.4,0.7-2.9,1.1-4.3c-0.1-0.9,0.3-1.6,0.2-2.6    c0.2-1.6,0.8-3.1,1-4.8c0.9-1.6,1.7-3.2,2.6-4.8c0.3-1,0.1-2.3,0.2-3.4c-0.3-0.4-0.7,0.2-1.1,0.1c-3.5,1.3-7,2.2-10.4,3.5    c-1.2,0.6-2.8,0.4-4,0.9c-0.9,0.5-2.1,0-3.1,0.3c-2.4,0.4-4.8,1.2-7.1,1.3c-0.4-0.2-0.7,0.4-1,0c-1,0.5-2,0.6-3,1    c0.3,0.8-0.1,1.9,0.2,2.6c0.7-0.3,1.6-0.3,2.4-0.5c1.7,0.8,3.2,2,4.4,3.8c0.5,1.8-1.1,4.1-1.1,5.1c0.3,0.3,0.7,0,1,0.3    c1.5,0,2.9-0.2,4.4-0.2c-0.4-0.8-1.5-1.7-1-2.9c0.3-0.6,0.3-1.2,0.9-1.7c0.1-0.8,1-1.2,1.5-1.9c1.7-0.5,3.5-1.4,5.3-0.4    c0.6,0.3,1.1,0.6,1.4,1.3c0.3,1.5,0.3,3.4-1,4.5c-1,0.4-1.5,2.1-2.8,1.6c-0.2,0.3-0.6,0-0.8,0.2c0.8,0.7,1.6,1.2,2.2,1.9    c0.4,0.5,0.4,1.2,0.8,1.8c0.1,0.8-0.1,1.8,0.5,2.5c0.1,0.6,0.2,1.2,0.3,1.8c2.4-0.1,4.7-0.4,7-0.9C71.3,114.5,71.3,114,71.4,113.4    z"/>
		<path class="st0" d="M67.6,35.8c-0.3-0.1-0.9-0.2-1,0.3c-0.2,0.3,0,0.7,0.4,0.7C67.3,36.6,67.8,36.3,67.6,35.8z"/>
		<path class="st0" d="M32.8,99.2c-0.4-0.3-0.7-0.8-1.1-1c-0.2,0-0.5-0.1-0.6,0.2c-0.2,0.7,0.1,1.3,0.3,1.9    c-0.2,0.6,0.6,0.7,0.6,1.2C32.6,100.8,32.9,100.1,32.8,99.2z"/>
		<path class="st0" d="M61.1,102.7c-0.9,0.5-1,1.3-1.3,2.1c0.2,0.2,0,0.7,0.3,0.8c0.3-0.3,0.5-0.9,1-1.1c0.6,0.1,1.3-0.2,1.6,0.4    c0.2,0.6-0.4,0.7-0.4,1.2c-0.4,0.5-0.8,0.9-1.6,0.7l0,0.3c0.4,0.1,0.8-0.1,1.2-0.1c0.6-0.4,1.5-0.9,1.6-1.6c0.3-0.8,0-1.4-0.2-2.1    C63.1,102.1,61.7,102.4,61.1,102.7z"/>
		<path class="st0" d="M81.8,109c-0.4,0.1-0.9,0-1.2,0.2c0.7,0.5,1.2,1.3,2.1,1.6c0.5-0.3,1.1-0.6,1.6-0.9c-0.3-0.3-0.7-0.5-1.1-0.6    C82.8,109.2,82.2,109.5,81.8,109z"/>
		<path class="st0" d="M80.5,110.2c-0.7-0.3-0.9-1-1.5-1.4c0.1-0.2,0-0.5,0.3-0.6c1.9,0.2,4.2-0.4,5.7,1.3c0,0,0,0,0,0    c1.4-0.9,2.7-1.8,3.9-2.8c-1.5-0.6-2.7-1.5-4.2-1.8c-0.8-0.3-1.6-0.1-2.3-0.7c-1-0.2-0.3-1.2-0.7-1.8c-0.6-1.5,0.4-3,0.3-4.6    c0.4-0.4,0-1,0.7-1.3c-0.2-0.8,0.4-1.3,0.3-2.1c0.5-0.7,0.6-1.7,1.4-2.2c0.6-0.2,1.2-0.6,2-0.6c2.2-0.4,4.8,0.6,6.8-1    c-0.5-0.6-1.3-0.6-2-1.2c-0.8-0.2-1.5-0.2-2.3-0.4c-1,0.5-2,0-3,0.3c-0.3-0.1-0.5-0.4-0.4-0.8c0.7-0.4,1.5-0.8,2.1-1.4    c0-0.2,0.1-0.5,0-0.6c-0.5-0.2-1,0.4-1.4,0c-1,0.7-2.2,1-3.3,1.5c-1.4,0.3-0.6-1.2-1.1-1.8c0.2-0.4-0.3-0.6-0.1-1    c-0.6-0.5-0.3-1.5-0.7-2.1c-0.6-0.5-1.4,0.4-1.9,0.2c-1.6-0.4-3-1.4-4.5-2.2c-0.6,0.3-1.4,0.2-2,0.7c-0.6,0-1.1,0.4-1.5,0.2    c-0.3-0.1-0.6,0.1-0.9-0.2c-1.7-0.1-3-1.3-4-2.7c0-0.5-0.4-1-0.2-1.4c-0.2-0.7,0.3-1.1,0.3-1.8c0.4-0.5,0.7-1.1,1.2-1.6    c-0.4,0.4-1.1,0.1-1.5,0.8c0.2,0.5-0.7,0.5-0.4,1c-0.5,0.6-1.2,1-1.8,1.4c-1.1,0.5-2.4,1-3.7,1.4c-0.9-0.2-1.8,0-2.6,0    c-1-0.5-2.2-0.9-3.3-0.9c-1.2-0.3-2.2,0.6-3.4,0.6c-0.4,0.5-0.9,0.6-1.4,0.9c-0.6-0.3-0.7,0.4-1.2,0.4c-0.4,0.9-1.2,1-1.9,1.7    c0.1,0.5-0.3,0.7-0.2,1.2c0.5,0.5,1-0.2,1.5,0.3c2.6,0.2,5.3-0.1,8,0.3c1.6,0.1,3.2-0.4,4.9-0.3c1.4-0.8,3.2-0.7,4.6-1.3    c0.3-0.1,0.8-0.1,1,0.2c-0.2,0.8-0.4,1.5-0.8,2.2c-1.2,0.7-2.2,1.6-3.6,2.1c-4.7,1-9.4,2.2-14,3.6c-0.6-0.1-1.1,0.1-1.6,0.2    c0.2,0.2,0.1,0.6,0.1,1c-0.4,0.4,0,0.9-0.3,1.3c0,1-0.3,1.7-0.1,2.7c0.9,0,1.6-0.5,2.5-0.6c1.8-0.2,3.6-0.5,5.4-0.7    c0.8-0.4,1.5-0.7,2.4-0.9c0.8-0.1,1.6-0.2,2.4-0.1c1.3-0.1,2.4-0.7,3.7-0.8c0.2,0,0.6-0.1,0.8,0.1c0.6-0.7,1.5-0.6,2.2-1.2    c0.6-0.1,1.3-0.2,1.9-0.3c0.4-0.3,1-0.3,1.4-0.6c1.5-0.3,3-0.5,4.4-1.1c0.7-0.5,1.6-0.6,2.3-1c0.5,0.1,0.8,0,1.2-0.1    c0.4,0.1,0.5,0.5,0.4,0.9c-0.5,0.5-0.1,1.4-0.4,1.9c0,0.2-0.1,0.4,0.1,0.5c0,0.8-0.3,1.5-0.6,2.3c-1.3,1.8-2.1,3.8-2.9,5.8    c0.1,0.8-0.3,1.6-0.2,2.4c-0.1,0.3-0.3,0.7-0.4,1c0.1,0.9-0.3,1.5-0.2,2.3c-0.4,1.3-0.2,2.9-0.7,4.2c-0.1,1.1,0.1,2.1,0.2,3.1    c0.5,0.4,0.5,1.1,0.6,1.7c0,0.2,0,0.5,0,0.7c3.3-0.8,6.5-2,9.5-3.5C81.3,111,80.9,110.7,80.5,110.2z"/>
		<path class="st0" d="M76.6,40.4c0.6-1.2,2-2.1,2.1-3.5c-1.6,0.9-2.9,2.1-4.7,2.8c-0.6,0.7-1.4,1.4-2.1,2.1    C73.7,42,75.2,41.3,76.6,40.4z"/>
		<path class="st0" d="M58.3,106.9c0.2,0.4,0.4-0.3,0.6,0.1c0.2-0.1,0.6,0.2,0.6-0.2c-0.6-0.3,0-1-0.5-1.4c0-1,0.3-2.2,1.1-2.9    c0.3-0.7,1.1-0.8,1.8-0.9c0.5-0.3,1.1,0.1,1.6,0.2c1.1,0.8,1.1,2.1,0.9,3.3c0.7-0.6,0.7-1.6,0.5-2.4c0-0.3-0.2-0.6-0.4-0.9    c-1-0.7-2.1-0.8-3.5-0.7c-0.7,0.2-1.4,0.5-2,0.7c-0.7,0.8-1.4,1.7-1.9,2.6c0,0.2,0.1,0.4-0.1,0.5c0.1,0.4,0.2,0.9,0.3,1.3    C57.5,106.5,57.6,107.1,58.3,106.9z"/>
		<path class="st0" d="M89.8,107c2.7,1.9,5.7,3.2,8.5,5l0.4,0.5c-0.6,0.4-1.4,0.3-2.2,0.5c-1.9-0.4-3.7-1-5.6-1.4    c-1.3-0.2-2.6,0-3.8-0.3c-0.5-1-1.7-0.8-2.1-1.8c-0.2,0.2-0.5,0.3-0.7,0.5c0.6,0.5,1.1,1.1,1.7,1.5c-0.8-0.4-2.1,0.1-2.8-0.5    c-0.2,0-0.3,0-0.5-0.1c-0.3,0.2-0.6,0.3-0.9,0.5c0.7,0.4,1.4,0.8,2.2,1l2.7,0.1c1,0.8,2.3,1.2,3.4,1.7c1.7,1.3,3.8,2.2,5.6,3.3    c-0.2,0.2-0.6,0.3-1,0.4c-1,0.4-1.9,0.3-2.9-0.1c-3-1.3-6.1-1.6-9-2.9c-0.4-0.4-1.1-0.3-1.5-0.8c-0.5,0.1-1.2-0.4-1.6,0.1    c-0.5,0.3,0,0.8,0.1,1.2c0.7,0.7,1.7,1.1,2.3,1.8c2,2.1,5.2,1.9,7.6,3.7c1.9,0.4,3.4,1.8,5.3,2c0.6-0.2,0.9,0.3,1.4,0.3    c0.5,0.5,1.5,0.5,1.8,1.1c-1.4-0.1-2.9,0.1-4.3-0.2c-1.9,0.2-3.3-1.5-5-2c-1.2-0.8-1.9-2-3.3-2.5c-1.4-0.8-2.8-1.3-4.3-1.8    c-1.4-0.5-2.5-1.4-3.9-1.9c-0.4,0.2-0.3,0.6-0.3,1c0.3,1.2,1.9,1.8,2,3.2c0,0.3,0.3,0.5,0.2,0.9c1,1.1,1.6,2.9,3.2,3.2    c1.1,1.2,2.3,2,3.7,2.6c3,0.9,5.5,3,8.4,4c-1-0.2-2.1,0.3-3.1-0.1c-1.2,0.1-2.5-0.3-3.5,0.2c-1.4,0.2-2.7-0.3-4-0.6    c-0.6-0.3-1.3-0.5-1.9-0.8c-1.5-2.3-4.1-1.9-5.5-4.3c-0.6-0.9-1.8-1.6-1.7-2.8c0-1.2-0.8-2.3-1.2-3.5c-0.6-1.2-0.9-2.6-1-3.9    c-0.3,0.1-0.6,0.1-0.9,0.2c0.1,0.5,0.1,1,0.2,1.5c1,2.5,1.6,5.2,2.7,7.7c1.2,0.9,1.7,2.4,3,3c1.4,1,3.1,1.7,4.3,3    c0.8,0.3,1.5,0.6,2.4,0.7c1,0.7,2.4,0.6,3.6,0.7c0.4-0.3,1.1-0.2,1.6-0.2c1.9,0,3.8,0.2,5.7,0.2c0.7,0.4,1.3,0,1.9-0.3    c0.3-1-0.9-0.5-1.1-1.1c-0.6,0-1-0.6-1.5-0.9c-0.6-0.1-1.2-0.2-1.8-0.4c-1.9-0.8-3.5-2.1-5.5-2.8c-1.5-0.3-2.7-1.4-3.7-2.6    c-1.2-0.6-2.2-1.5-3-2.7c-0.5-0.8-0.9-1.4-0.7-2.3c-0.3-0.2-0.7-0.6-0.7-1c2.6,1,5.3,2.1,7.7,3.5c1.1,2,3.2,1.9,4.7,3.3    c0.5,0,0.8,0.5,1.4,0.5c1.5,0.1,3.2-0.1,4.8,0.3c0.6-0.2,1.5,0.1,1.9-0.7c0.5-0.3-0.1-0.6-0.3-0.9c-0.6-0.3-1.3-0.9-2-1.2    c-1.1-0.4-2.2-0.5-3.3-0.9c-0.4-0.5-1.3-0.1-1.6-0.8c-0.4,0.2-0.5-0.3-0.9-0.2c-2.1-1.3-4.6-1.7-6.7-3c-1.2-0.5-2-1.4-3.1-2.4    c1.4,0.5,2.9,1,4.3,1.6c0.3-0.4,0.4,0.2,0.8,0c0.5,0.4,1.1,0.5,1.6,0.7c1,0,1.6,0.6,2.5,0.6c0.3,0.8,1.1,0.2,1.4,0.7    c0.9,0,1.6,0.2,2.5,0.2c1.1-0.2,2.1-0.6,3.1-1.1c0.2-0.5-0.4-0.5-0.6-0.8c-2.7-1.4-5.5-2.8-8.1-4.5c0.5-0.1,1.1,0,1.6-0.1    c0.5,0.1,1.4,0.3,2.2,0.3c0.5,0.6,1.4,0.3,2,0.8c1.1,0.2,2.2,0.4,3.3,0.3c0.6-0.5,1.5-0.2,2-0.6c0.2-0.6-0.2-0.9-0.5-1.4    c-1-0.8-2.2-1.5-3.3-2.3c-0.7,0-1.1-0.6-1.8-0.7c-0.9-1-2.1-1.1-3-2.1c-0.5-0.2-1.1-0.4-1.6-0.6c-0.2,0.2-0.5,0.4-0.7,0.6    C89.2,106.8,89.5,106.9,89.8,107z"/>
		<path class="st0" d="M94.7,49.8c0,1-0.7,1.6-0.4,2.6c0.2,0.2,0.1,0.5,0.1,0.7c-0.5,1.4-0.1,3-0.5,4.4c-1.4,0-2.6-0.3-4-0.8    c-1-0.4-1.9-0.7-2.8-1.2c-0.3,1,0.7,1.5,0.7,2.5c0.7,1,2,1.2,2.6,2.2c0.3,0.1,0.5,0.5,0.9,0.3c0.4,1.1,1.7,1.2,2.2,2.4    c0.4,0.1,0.5,0.5,0.4,0.9c-0.8,0.5-1.6,0.9-2.4,1.1c-1.1,0.2-2.2-0.1-3.3,0.3c-0.6-0.2-1.4-0.2-2,0c-0.5-0.3-1.1,0.1-1.5-0.3    c-0.9,0.4-2,0.2-2.7,0.3c-2.6-0.3-5.1-0.5-7.6-0.9c-0.8-0.4-1.6-0.8-2.3-1.4c-0.6,1-1.8,1.4-2.1,2.5c-1.2,1.8-1.5,3.8-2.3,5.7    c-0.3,0.5,0.1,1.2-0.4,1.6c0.3,0.3-0.2,0.6,0.1,0.8c1.5-0.1,2.2-2.1,3.9-1.7c0.8,0.5,1.6,0.6,2.4,1c0.8,0.7,1.2,1.6,1.9,2.3    c0.7,0.9,0.1,2.1,0.5,3c-0.1,0.5-0.3,1-0.4,1.5c-0.4,0.2-0.3,0.6-0.5,0.9c0.8,0.4,1.5,0.8,2.4,1c-0.4-0.5-1.3-1.1-1.1-2    c0-0.5,0.4-0.7,0.3-1.2c0.1-0.9,0.9-1.5,1.2-2.3c1-0.8,2.2-1.1,3.3-1.2c0.8-0.1,1.6-0.5,2.4-0.1c1,0,1.4,1.2,1.9,1.8    c0.1,1,0.8,1.9,0.3,3c-0.1,1-0.5,1.9-1.4,2.4c-0.8,0.2-1.4,0.6-2.2,0.6c-0.5,0.2-0.2,0.8-0.3,1.2c1,0.8,0.4,2.3,1.2,3.2    c1.2-0.1,1.8-1.1,2.9-1.1c0.5-0.5,1.5,0,2.1-0.3c0.4-0.1,0.6,0.1,0.8,0.4c-0.7,0.7,0,1.6-0.8,2.2c0.8,0.2,1.9-0.1,2.7,0.4    c0.7,0.2,1.4,0.3,1.9,0.7c0.6,0.7,1.4,0.9,2,1.3c0.1,0.3-0.1,0.7-0.4,0.7c-1,0.1-1.7,0.9-2.7,1.1c-1.4,0.3-2.8-0.3-4.2,0.1    c-0.9,0.1-2.1,0.2-2.8,0.8c-0.7,1.7-1.1,3.4-1.6,5.3c-0.1,0.8,0,1.7-0.4,2.4c-0.1,0.8,0,1.6,0.3,2.3c0.4,0,0.2,0.4,0.5,0.5    c0.5,0.1,1.3-0.2,1.6,0.3c1.7,0.4,3.2,1.3,4.8,2c9.4-7.9,15.4-19.7,15.4-32.9c0-8.9-2.7-17.2-7.4-24.1c-0.4,0-0.8,0-1.2,0.1    C95.9,49.2,95.3,49.6,94.7,49.8z"/>
		<path class="st0" d="M80.7,56.6c0.4-0.3,0.6-0.6,0.9-1c0.3-1,1-1.8,0.9-2.8l-0.2,0c-0.3-0.4-0.8-0.6-1.2-0.7    c-0.6,0-1.2,0.1-1.7,0.2c-0.5,0.6-1.1,1.1-1,2C79.3,55.1,79.4,56.7,80.7,56.6z"/>
		<path class="st0" d="M61.3,106.2c0.4,0,0.5-0.6,0.4-0.8c-0.4-0.3-0.9,0.3-0.8,0.6C60.8,106.2,61.1,106.2,61.3,106.2z"/>
		<path class="st0" d="M83.7,78.1c-0.4,0-0.5-0.7-1-0.5c-0.3-0.3-1-0.3-1.4-0.1c-0.4,0.3-0.6,0.7-0.7,1.1c0,0.5-0.2,1.3,0.3,1.5    c-0.1-0.5,0.3-0.7,0.4-1c0.3-0.4,0.8-0.2,1.2-0.4c0.3,0.2,1,0.5,0.7,1.1c0-0.1,0.1-0.1,0.2-0.1C83.7,79.2,83.8,78.6,83.7,78.1z"/>
		<path class="st0" d="M78,80.9c-0.1,0.6,0.7,0.6,0.8,1.1c0.7,0.1,1.2-0.1,1.8-0.3c-0.4-0.6-0.8-1.3-0.8-2c0-1.2-0.1-2.4,1.1-3.1    c0.8-0.5,1.7,0,2.5,0.2c1.3,0.5,0.9,1.9,1,2.9c-0.1,0.6-0.8,1-0.9,1.6c0.7,0,1-0.8,1.4-1.3c0.2-1.5-0.2-2.9-1-4    c-0.5-0.1-1-0.3-1.5-0.3c-0.6,0-1.1,0.3-1.7,0.2c-0.7,0.7-1.8,0.2-2.4,1c-0.4,0.7-0.6,1.5-1,2.2C77.1,79.8,77.4,80.4,78,80.9z"/>
		<path class="st0" d="M81.5,80.5c0.1,0.2,0.3,0.1,0.5,0.1c0.3-0.2,0.4-0.5,0.3-0.8C81.8,79.5,81.3,79.8,81.5,80.5z"/>
		<path class="st0" d="M72.4,77.9c0.2-0.5,0.2-1,0.1-1.6c-0.9-1.1-2.4-0.3-3.1,0.5c0.1,0.5-0.3,1,0,1.4c0.2,0.1,0.3,0.4,0.6,0.3    c0-0.4-0.4-0.7-0.2-1.2c0.2-0.4,0.5-0.7,0.9-0.9c0.5-0.2,1,0.1,1.3,0.5C72.3,77.1,71.9,77.8,72.4,77.9z"/>
		<path class="st0" d="M64.5,75.7c-1.4,0.2-2.9,0.4-4.3,0.6c-0.8-0.2-1.8-0.2-2.6-0.5c-0.7,0.1-1.1-0.7-1.8-0.4    c-0.6,0.4-0.7,1.2-1.1,1.9c0.5,0.1,0.9,0.1,1.4,0.2c0.5,0.1,0.9,0.1,1.2,0.6c1.2,0.1,2.4,0,3.7,0c1.2-0.6,2.5-1.2,3.7-2.1    C64.6,75.9,64.6,75.8,64.5,75.7z"/>
		<path class="st0" d="M74.4,80.1l0.6-1.2c0.1-0.4,0.1-0.9,0.3-1.3c0-0.6,0.2-1.6-0.4-1.8l0,1.2c-0.5,0.7-0.2,1.8-1,2.5    C74,79.7,74.2,80,74.4,80.1z"/>
		<path class="st0" d="M66.9,77.6c0.1,0.6-0.3,0.9,0.1,1.4c1,1.2,2,1.8,3.3,2.3c0.7-0.2,1.5,0.2,2.2-0.4c0.4,0.2,0.8-0.3,1-0.5    c-1.3-1.6-3.8-0.2-4.8-2c-0.2-0.3-0.1-0.6-0.4-0.9c0.1-0.7,0.2-1.5,0.9-1.9c0.7-0.9,1.9-0.7,3-0.7c0.3,0.3,0.5,0.5,0.8,0.7    c0.8,0.8,0.4,2.1,0.1,2.9c0.1,0,0.3,0.2,0.4,0.1c0.4-0.6,0.4-1.3,0.5-1.9c0.7-1.2-0.7-2.1-1.3-2.9l-0.5-0.4    c-0.7,0.1-1.5-0.2-2,0.2c-1.7,0.1-1.7,1.8-2.8,2.7C67.1,76.7,67.1,77.2,66.9,77.6z"/>
		<path class="st0" d="M45.5,87.9c0.3,0.4-0.2,1.3,0.3,1.5c1.1-0.3,2.4-0.4,3.6-0.7c1.9-0.8,3.9-1.2,5.9-1.8c0.7,0,1.1-0.4,1.8-0.2    c1.6-0.6,3.4-0.5,4.9-1.4c0.9-0.6,2.2-0.8,2.5-2c-3.1,1-6.2,1.3-9.3,1.5c-3.1,0.1-6.2-0.3-9.3-0.7c-0.1,0.6,0,1.3-0.4,1.7    C45.6,86.5,45.4,87.1,45.5,87.9z"/>
		<path class="st0" d="M48.3,77.9c-0.2,0-0.5,0.1-0.6-0.1c-2.2,0.5-4.6,1.2-6.9,1.9c-1.3,0.7-2.4,1.4-3.6,2.4    c-0.7,0.7-1.1,1.4-1.9,2.1c0,0.2,0,0.4,0.1,0.5c0.7,0.1,1.1-0.3,1.8-0.1c0.3-0.3,0.7-0.1,1-0.4c0.8-0.2,1.9,0.1,2.6-0.3    c1.6-0.3,3-0.8,4.6-1c-0.1-0.3,0-0.8,0.2-1.2c-0.1-0.6,0.8-1,1-1.4c1.5-1,2.9-2.1,4.6-2.7l-1.5,0C49.2,77.4,48.7,77.7,48.3,77.9z"/>
		<path class="st0" d="M49.1,105c0.4,0,0.2-0.5,0.3-0.7c-0.2-0.3-0.3-0.5-0.8-0.5l-0.1,0.5C48.6,104.5,48.5,105.2,49.1,105z"/>
		<path class="st0" d="M47.4,103.3c0,0.2,0,0.6,0.4,0.4l0-0.2c0.2-0.3,0.4-0.7,0.9-0.5c0.6,0.1,1,0.5,1.4,1c0,0.3,0.1,0.8-0.2,1    c-0.3,0.4-0.6,0.7-1,0.9c-0.1,0.3,0.2,0.4,0.4,0.3c0.4-0.4,0.9-0.8,1.1-1.4c0.3-1,0.5-2,0.2-3l-0.6-0.7c-0.5-0.1-0.8-0.2-1.3-0.2    C48.2,101.6,47.5,102.3,47.4,103.3z"/>
		<path class="st0" d="M50,106.4l0.6,0.1c0.9-1.2,1.9-2.6,1.6-4.2c-0.1-0.4-0.5-0.6-0.7-0.9c-0.2-0.1-0.3,0.1-0.2,0.3    c0.4,0.4,0.2,1.1,0.4,1.6c-0.5,0.5-0.2,1.3-0.8,1.8C51,105.8,50.3,106.1,50,106.4z"/>
		<path class="st0" d="M48,107.5c-0.5,0.7-1.6,0.5-2.3,0.6l0.1,0.5c1.3,0,2.5-0.4,3.4-1C48.9,107.3,48.3,107.4,48,107.5z"/>
		<path class="st0" d="M45.4,104.2c-0.1,0.6-0.3,1.1-0.4,1.7c0.1,0.4,0.3,0.7,0.2,1.2c0.4,0.3,1.1,0.2,1.5,0.1    c0.6,0.2,0.9-0.3,1.4-0.5c-0.1-1.3-1.3-1.1-1.2-2.4c0.1-0.6-0.3-1.2-0.1-1.9c0.1-0.7,0.9-1.2,1.1-1.9c0.3-0.6,1.1-0.2,1.6-0.2    c-0.1-0.5-0.7-0.4-0.8-0.9c-0.9,0.1-1.8-0.3-2.6,0.4c-0.5,0.3-0.5,1-0.7,1.5L45.4,104.2z"/>
		<path class="st0" d="M88,45.7c-0.7,1.3-2.1,1.9-3.2,2.8c-1,0.7-2.3,0.7-3.4,1.5c-0.6-0.1-0.7,0.7-1.1,1.1c0.5-0.1,1.1,0.4,1.6,0.3    c0.6,0.6,1.4,0.7,1.6,1.6c0.2,0.8-0.7,1.1-0.4,1.8c-0.7,0.9-0.8,2.2-1.9,2.8c-0.4-0.2-0.5,0.3-0.9,0.1c-1.3-0.7-2.1-2-3-3.2l0-0.5    c-0.4,0.3-0.8,1-1.2,1.3c-0.8,1-1.5,2-2,3.1c0.4,1.1-0.7,1.6-0.6,2.7c-0.2,0.4-0.6,0.7-0.7,1.2c0.9,0.5,1.7,1.2,2.7,1.3    c0.5,0.3,1.2,0,1.7,0.3c3.8,0.7,7.5-0.1,11.3,0.5c1.3-0.4,2.9-0.1,4.2-0.8c-1.3-1.5-2.9-2.8-4.5-4c-0.7-0.5-1.3-1.3-1.6-2    c0.3-1.4-1.5-2.1-0.7-3.4c1.2,0.3,2.4,0.9,3.6,1.4c1.2,0.2,2.3,0.4,3.5,0.7c0.1-0.4,0.3-0.7,0.3-1.1c0.2-1.3-0.2-2.8,0.1-4.3    c0.5-0.7,0.1-1.6,0.9-2.2c0.5,0.1,1.1-0.1,1.7-0.3c0.3-0.1,0.6-0.1,1-0.1c-1.8-2.5-3.8-4.7-6.1-6.7c-0.6,0.9-1.2,1.8-2,2.6    C88.9,44.7,88.1,45,88,45.7z"/>
		<path class="st0" d="M36.4,42c0.5,0.2,1.1-0.2,1.5,0.2c0.3-0.1,0.4-0.3,0.5-0.6c-0.2-0.6,0.1-1.4,0.4-1.9c0.7-0.4,1.2-1.4,2.3-1    c0.3,0.1,0.5,0.4,0.8,0.7c0.2,0.4-0.3,0.6-0.2,1.1c-0.4,1-1.4,1.3-2.1,2.1c-0.1,0.4,0.1,0.7,0.3,1.1c0.5-0.3,0.8,0.3,1.1-0.3    c0.5,0,0.8-0.6,1.3-0.8c-0.3-0.7-0.1-1.5,0.4-2c0.7-0.7,1.6-0.7,2.7-0.7c0.1,0.2,0.3,0.2,0.4,0.4c-0.1,1.3-2.1,1.7-2.4,3.1    c0.2,0.3,0.3,0.6,0.6,0.9c0.4,0.2,0.6-0.3,1.1-0.1c0.4-0.5,1.3,0,1.3-0.8c-0.2-0.3,0-0.8,0.3-1.1c0.4-0.6,1.2-0.7,1.9-0.6    c0.3,0.2,0.5,0.5,0.4,0.9c-0.3,0.5-1,1-1.3,1.4c-0.1,0.1,0,0.5,0.3,0.3l0.7-0.2c0.9-1.4,2.1-2.5,2.5-4.1c0.2-1.3,0.9-2.6,0.7-4    c-0.2-1.3-0.7-2.5-1.3-3.7c-4.8,1.4-9.3,3.6-13.2,6.5C37.4,39.7,36.6,40.9,36.4,42z"/>
		<path class="st0" d="M57.7,37.9c0.3,0.8,1.3,0.6,2,0.7c0.7,0.2,1.6,0.2,2.4,0c0.4-0.4,1.1-0.2,1.5-0.7c0.2-0.8-0.3-1.5,0-2.2    c0-0.6,0.6-0.9,0.7-1.4c0.5-0.6,0.8-1.1,1.4-1.6c0.9-0.7,2.3-0.8,3.3-0.3c0.8,0.3,0.9,1,1.4,1.6c-0.2,1.4-0.1,2.9-1.3,3.7    c-0.4,0.7-1.4,0.5-2.1,0.4v-0.1c-0.7,0-1.2,0.4-1.9,0.7c0.2,0.4,0.5,0.9,0.5,1.4c0.4,0.6,1.1,0.7,1.8,0.9c0.9,0.5,2,0.5,3.1,0.5    c1-1,1.9-2.1,3-2.9c1.9-1.3,4.1-2.3,6.1-3.5c0.1-0.3,0.2-0.6,0.4-0.9c-5.4-2.5-11.4-3.8-17.7-3.8c-1.4,0-2.7,0.1-4,0.2    c-0.4,1.5-0.6,3.1-0.8,4.7C57.3,36,58,37,57.7,37.9z"/>
		<path class="st0" d="M87.6,32.6c-0.1-1.6-1-3.2-2.5-3.7c-1.2,0.5-2,1.8-1.9,3c-1.2,0.4-2.4,1.3-3.1,2.4c0.3,0.2,0.7,0.3,1,0.5    c0.3-0.4,0.6-0.8,0.8-1.2c0.4,0,0.6-0.6,1.1-0.5l0.5,0.8c0.6,0.3,0.9,1,1.6,0.9c-0.2,0.3-0.9,0.6-1.3,0.9c-0.2,0-0.5,0-0.8,0.1    c0.5,0.3,1,0.6,1.5,0.8c0.3-0.2,0.6-0.3,0.8-0.4C85.8,34.7,88.1,34.4,87.6,32.6z M85,30.2c0.7,0.1,1.1,0.8,1.5,1.2l0.1,1.4    c-0.4-0.1-0.2-0.9-0.7-0.9c-0.6-0.1-1.2-0.5-1.7-0.1C84,31,84.5,30.7,85,30.2z M84.5,33.5c0.1-0.4-0.7-0.4-0.2-0.7    c0.4-0.2,1-0.1,1.3,0.2c0,0.2,0.2,0.4,0.1,0.7C85.2,34,84.9,33.6,84.5,33.5z"/>
		<path class="st0" d="M32.6,45.8c0.9-0.6,1.4-2,2-2.8c-0.6-0.1-1.3-0.4-1.8-0.7c-0.9,0.9-1.8,1.8-2.6,2.7    C30.9,45.7,31.6,46.8,32.6,45.8z"/>
		<path class="st0" d="M33.1,41.3c-0.5-0.1-0.6-0.8-0.9-1c0.1-0.6-0.4-1.6,0.4-2c0.6-0.4,1.5-0.9,2.4-0.5c0.5,0.2,0.8,0.6,1.1,1    c0.1,0.2,0.1,0.3,0.1,0.5c0.3-0.2,0.6-0.4,0.9-0.7c0-0.2-0.1-0.4-0.2-0.6c-0.5-0.8-1.4-1.2-2.3-1.3c-0.6-0.3-1.3,0.4-1.9,0.4    c-0.4,0.6-1.2,0.9-1.1,1.7c-0.3,0.6-0.3,1.3,0,1.8c0.2,0.7,0.7,1.2,1.2,1.6c0.3-0.3,0.5-0.5,0.8-0.8    C33.5,41.4,33.3,41.3,33.1,41.3z"/>
		<path class="st0" d="M35,41.9c0.2-0.4,0.5-0.7,0.6-1.1c0.3-0.5,0.7-1,0.7-1.6c-0.9,0.7-1.8,1.4-2.7,2.2    C34.1,41.6,34.5,41.8,35,41.9z"/>
		<path class="st0" d="M30,101.3c0,0,0.7,0.8,0.9,1c0,0,0,0,0,0C30.6,102,30.3,101.7,30,101.3C30,101.3,30,101.3,30,101.3z"/>
		<path class="st0" d="M101,49.2c0.9,0.4,1.5,1.2,2.5,1.3c0.4,0.7,0.9-0.2,1.3,0.3c0.3-0.2,0.3-0.5,0.3-0.7    c-0.2-1.5,0.5-2.9,0.2-4.3c0.2-1.1-0.7-1.9-1.4-2.6c-1.2-0.4-2.2-1.3-3.3-2c-3.1-1.1-6.3-0.6-9.5-1.1c0.5-2.5,1.3-4.8,2-7.3    c0-1.8,0.9-3.6,0.7-5.5c-0.5-0.9,0.2-2.2-0.6-3.1c-0.4-1.2-0.8-2.1-1-3.2c-1.5-1.3-3.4-2.3-4.9-3.6c-0.1-0.5-0.7-0.4-0.8-0.9    c-0.5-0.9-1.3-1.5-2.3-1.6c-1.2-0.2-2.7,0-4-0.1c-0.3,0.1-0.6,0.4-1.1,0.2c-1.7-0.1-3.4,0-5.2-0.2c-1.6,0.5-3.4,0.7-4.8,1.7    c-1,1-2.4,1.4-3.2,2.6c-1.6,0.4-2,2.7-3.8,2.7c0.2,0.9-0.5,1.8-1.1,2.5c-1.5,0.9-2.6,2.5-3.2,3.9c-0.1-2.1,1.5-3.8,1.8-5.8    c0.5-0.6,0.2-1.6,0.3-2.4c0.3-0.7,0-1.6,0.8-2.1c0.8-1,2.1-1.3,3.1-2.1c0.6,0.3,0.4-0.7,1-0.4c2.2-1.5,4.1-3.6,6.4-5    c0.3-0.2,0.8-0.4,0.8-0.9c0.9-1.3,0.9-2.9,1.6-4.3c-0.2-0.3-0.3-0.8-0.7-0.9c-1.4,0.2-2.8,0.4-4.2,1c-1.6,0.3-1.6,2.1-2.7,3    c0.4-1.8,1-3.6,1.7-5.3c-0.1-0.8,0.2-1.4,0.3-2.1c-0.4-1-0.8,0.2-1.4-0.1c-0.4,0.5-1.1,0.3-1.5,0.7c-0.7,0.5-0.9,1.3-1.5,1.9    c-0.3,1.3-1,2.5-1.5,3.8c-0.7,0.4-0.4,1.4-1,1.8c0.1-1.6,0.1-3.2,0.1-4.8c-0.3-0.3-0.7-0.5-0.5-1c-0.4-0.8-1.2-1.2-2.1-1.2    c-0.5,0.7-0.8,1.6-1,2.5c-0.3,0.6-0.1,1.4-0.4,2c-0.5-1.4-2-0.8-2.8-1.4c-1.4-0.2-2.7-0.3-4-0.5c-0.6,0.8-0.3,1.9-0.3,2.9    c0.7,0.4,1,1,1,1.7c0.5,0.7,1.3,0.9,1.7,1.6c0.1,0.3,0.5,0.7,0.5,1c-0.8,0-1.5-0.3-2.4-0.2c-0.6,0.3-1.3,0.5-2,0.5    c-1.7,0.5-2.7,1.9-4,2.9c0,0.3-0.1,0.7,0.2,0.8c0.6-0.2,1.3-0.1,2-0.1c1.7-0.1,3.2-1.2,5-0.9c0.5-0.4,0.8,0.2,1.4,0    c0.6,0.3,0.8,1.1,1.2,1.7c-0.3,1.5,0.2,3-0.3,4.5c-0.3,1-0.5,2-0.9,3c-0.6,0.4-0.4,1.4-1,1.9l-2,1.8c-0.6,0-0.9,0.5-1.4,0.5    c-0.4-1.5-1.4-2.6-1.5-4.3c-0.5-1.2-0.9-2.6-1.9-3.4c-0.7-0.1-1.6-1-2.6-0.5c-0.3,0.4-1.1,0.5-1.4,1c-0.5,0.7-0.8,2-0.4,2.9    c0.2-0.1,0.2,0.3,0.2,0.4c-0.3,0-0.3-0.2-0.6-0.2c-1.1,0-2.1,0-3.1,0.5c-0.5,0.6-1.4,1.3-1,2.3c0.2,0.8,0.7,1.7,1.6,1.9    c1.3,0.7,2.9,0.6,4.3,1.2c1.1-0.2,2.4-0.1,3.5-0.3l0,0.1c0.9-0.1,1.7-0.3,2.4-0.4c0.5,0.7,0.9,1.4,1.4,2.1    c0.1,0.2,0.2,0.4,0.3,0.6c0.3-0.1,0.6-0.2,0.8-0.2c-0.1-0.2-0.1-0.3-0.1-0.5l-1.6-2.2l2.8-1.4c0.4-0.3,0.7-0.7,1.1-0.9    c0-0.7,0.4-1.1,0.8-1.7c0.9-1.3,0.8-3,1.4-4.4c0.3-1.5,0.1-3.1,0.1-4.6c0.2-1-0.9-1.4-1.1-2.2c-0.8-0.4-1.5-0.3-2.3-0.2    c-1.8,0.6-3.8,0.5-5.6,1.1c0-0.6,0.9-0.6,0.9-1.2c0.5-0.3,1.1-0.3,1.6-0.8c0.8-0.1,1.4-0.8,2.2-0.4c1.2-0.2,2.7,0.6,3.9,0.1    c-0.4-1.1-1.3-1.9-1.9-2.9c-0.6,0-0.5-0.7-1-0.8c0.1-1.3-1.9-1.8-1.4-3.3c0.2-0.3,0.6,0,0.8-0.3c1.3,0.2,2.7,0.2,4,0.6    c1.1,0.4,0.9,1.7,1.4,2.6C57,9,57,9.8,57.5,10c0.2,0,0.5,0.1,0.6-0.1c0.2-1.6,0-3.2,0.2-4.8c0.2-0.7,0.4-1.5,0.7-2.2    c0.8-0.2,0.9,0.8,1.4,1.2c0.6,0.7-0.4,1.1,0.1,1.7c-0.8,1,0.1,2.3-0.3,3.4c0.3,0.7-0.2,1.8,0.3,2.5c0.9,0,0.8-0.9,1.1-1.4    c-0.3-0.5,0.5-0.6,0.3-1.1c0.8-1.8,1.8-3.2,2.4-5c0.4-1,1.2-2.4,2.4-2.5c0.4,1-0.3,2-0.2,2.9c-0.4,0.2-0.2,0.6-0.5,0.8    c-0.4,1.3-1.1,2.5-1.3,3.9c-0.3,0.6,0.1,1.6-0.4,2.2c0,0.3-0.1,0.6,0.1,0.8c0.3,0,0.7,0.1,0.9-0.3c0.3-0.6,0.5-1.3,0.8-1.9    c0.3-1,1-1.8,1.6-2.7c0.2-1,1.2-1.2,1.9-1.7c0.4,0.1,0.8-0.4,1.2-0.1C71.2,5.4,71.6,5,72.1,5c0.3-0.1,0.5,0.2,0.6,0.3    c0,0.5-0.6,0.8-0.6,1.4c-0.5,0.5-0.1,1.6-0.4,2.1c-0.7,0.8-1.8,1-2.5,1.7c-1.1,0.9-2.1,1.8-3.2,2.7c-1,1.2-2.5,1.5-3.7,2.2    c-0.5,1.1-1.9,0.9-2.5,2c-0.4,0.4-0.4,0.9-0.5,1.4c0.3,1.1-0.1,2.2-0.2,3.4c-0.5,0.8-0.8,1.6-1.1,2.6c-0.1,0.1-0.2,0.3-0.3,0.5    c-0.2,1.2-0.5,3.6-0.5,3.6l0.1,0.9c0,0.1,0.1,0.2,0.1,0.3c-0.1,0.3-0.1,0.5-0.2,0.8c0.3,0,0.7-0.1,1-0.1c0.2-0.6,0.3-1.2,0.6-1.7    c0.1-0.4,0.3-0.6,0.4-1c0.1-0.3,0.4-0.2,0.6-0.2c0.4,0.2,0.9,0.2,1.3,0.4c0.6,0.1,1.3-0.1,1.6-0.7c0.1-1.2-0.2-2.5,0.3-3.5    c-0.1-0.6,0.3-0.9,0.5-1.2c1.2,0.6,2.5,1.9,3.1,3c0.5,0.4,1,0.8,1.7,0.7c0.9-1.5,0.5-3.3,1.5-4.8l0.3,0c1,0.6,1.3,1.7,2.1,2.4    c0.2,0.4,0.1,1.1,0.7,1.2c0.8-0.1,1.2-1,1.5-1.6c0.3-1.2,1.1-2.4,1.6-3.6c0.3-0.2,0.3-0.7,0.8-0.7c0.4,0.2,0.1,0.8,0.2,1    c0.2,0.9,0.8,1.6,0.9,2.5c0,0.4-0.4,0.9,0,1.3c0.2,0.3,0.4,0.3,0.7,0.3c0.6-0.3,1-1,1.4-1.5c0.5-0.7,0.7-1.5,1.3-2.1    c-0.2,1.7-0.1,3.4-0.5,5.1c0.9,0.7,2.5,0.4,3.8,0.9c0.7,0.2,1.3,0.7,2,0.9c0.8,0.4,1.4,1.2,2.1,1.8c0,0.6-0.1,1.4,0.1,1.9    c-0.3,1.5-0.6,2.9-1.1,4.3c0.1,0.9-0.2,1.7-0.5,2.5c0.3,0.2,0.6,0.4,0.9,0.7c0.4-1,0.4-2,0.9-3c-0.1-0.6,0.3-1,0.2-1.7    c0.2-1.1,0.9-2,0.8-3.1c-0.6-0.5,0.2-1.1-0.2-1.6c0.1-0.7-0.7-0.6-0.8-1.2c-0.9-1-2-1.3-3-2.1c-1.2-0.5-2.7-0.8-3.8-1.2    c0.1-1.4,0.4-2.9,0.3-4.3c-0.1-0.7-0.2-1.6-1-1.8C80.2,20,80,21.7,79,22.9c-0.4-0.4,0-1.3-0.7-1.7c0.2-0.6-0.3-0.9-0.2-1.4    c0.1-0.5-0.8-0.6-0.5-1.2c-0.3-0.3-0.6-0.8-1.1-0.6c-1,1.3-1.5,2.8-2.4,4c0.3,0.8-0.4,1.1-0.7,1.7c-0.4-0.8-1.1-1.4-1.5-2.2    c-0.3-0.6-1.1-0.3-1.3-1.1c-0.5,0.2-1-0.5-1.3,0.1c-0.4,0.5-0.5,1.2-0.9,1.7c-0.4,0.7-0.1,2.3-0.9,2.6c-1.1-0.9-2.1-2.1-3.3-2.8    c1-1.6,2.4-2.6,3.9-3.8c1-0.4,1.7-1.8,2.9-1.7c0.5-0.2,1-0.3,1.5-0.4c2-0.8,4.2-0.2,6.1-0.7c1.6,0,3.4,0.1,5.1,0.1    c0.8-0.1,1.5,0.2,1.7,0.8c1.6,1.5,3.3,2.9,5,4.1c0.4,0,0.5,0.8,1,0.6c0.3,1.9,1.5,3.4,1.2,5.4c0.3,1.1-0.3,2.1-0.1,3.2    c-0.3,0.3,0,0.9-0.4,1.2c0.2,0.5-0.4,0.9,0,1.4c-0.7,1.1-0.5,2.3-1.1,3.4c-0.4,1.5-0.5,3-1,4.4c-0.2,0.1-0.5,0.1-0.8,0.1    c0.5,0.4,1,0.8,1.5,1.3c0.1-0.1,0.2-0.3,0.2-0.4c2.2-0.2,4.4,0.4,6.6,0.2c1.3,0.2,2.5,0.9,3.7,1.4c0.5,0.1,0.6,0.9,1.2,0.7    c0.8,0.6,1.9,1.2,1.8,2.4c0.4,0.7-0.2,1.6,0.1,2.3c-0.1,0.5-0.3,1-0.3,1.6c-1.2,0.1-2.1-1-3.3-1.3c-1.3,0.1-2.7-0.2-4-0.2    c0.2,0.3,0.5,0.7,0.7,1C98.8,49.1,99.9,49.2,101,49.2z M47.7,28.4c-1.7,0.5-3.5,0.3-5.2,0.4c-1.6-0.5-3.5-0.4-4.9-1.4    c-0.3-0.4-0.2-1-0.1-1.4c0.4-0.8,1.3-1,2.2-1.1c1.3,0.2,2.5,0.3,3.7,0.8c0.4-1-1.3-1.2-1.2-2.3c-0.1-0.6-0.3-1.5,0.2-2    c0.8-0.7,2.6-0.7,3.2,0.3c0.8,2.1,1.8,4.2,2.5,6.4C48.1,28.5,47.8,28.2,47.7,28.4z M61.8,26.8c-0.6,0.2-1.1-0.2-1.6-0.2    c0.5-0.7,1.3-1.5,1.9-2.2C61.8,25.1,61.5,26,61.8,26.8z"/>
		<path class="st0" d="M89.4,40.1c-0.4-0.3-0.8-0.7-1.2-1c-0.1,0.3-0.3,0.6-0.5,0.8C88.2,40.1,88.8,40.2,89.4,40.1z"/>
		<path class="st0" d="M70.9,77.3c-0.2,0.1-0.2,0.3-0.3,0.5c0.2,0.2,0.1,0.6,0.4,0.8c0.2-0.1,0.8-0.2,0.7-0.6    C71.6,77.6,71.4,77.1,70.9,77.3z"/>
		<path class="st0" d="M80.4,35.7c0.8,0.3,1.7,0.1,2.5,0c-0.6-0.3-1.2-0.7-1.9-1C80.8,35.1,80.5,35.4,80.4,35.7z"/>
		<path class="st0" d="M45.7,50.7c0,0.3,0.3,0.5,0.6,0.4c0.1-0.2,0.6-0.1,0.5-0.5c0-0.4-0.3-0.7-0.8-0.6    C45.8,50.1,45.6,50.4,45.7,50.7z"/>
		<path class="st0" d="M44.5,54.8c0.5,0.2,1.3,0.2,1.8,0c1.6,0,2.6-1.6,3.5-2.8c0.3-1.4-0.9-2.4-1.7-3.3c-0.5,0.1-0.8-0.2-1.3-0.1    c-0.1,0.7,0.6,0.7,1,1.2c0,0.4-0.3,0.8-0.4,1.2c-0.4,0.7-1.1,1.1-1.9,1.1c-0.5-0.2-0.9-0.6-1-1.1c0.3-0.5,0.2-1.2,0.9-1.4    c0.2-0.2,0.7,0,0.5-0.4c-0.1-0.4-0.3-0.2-0.6-0.1c-1,0.3-1.5,1.2-1.6,2.2c-0.3,0.2-0.3,0.5-0.3,0.8c-0.4,0.6-0.4,1.7-0.1,2.4    C43.7,54.6,44,54.9,44.5,54.8z"/>
		<path class="st0" d="M47.8,42.4c-0.7-0.2-0.9,0.5-0.7,1C47.3,43,48,42.9,47.8,42.4z"/>
		<path class="st0" d="M63.7,118.4c-0.2,0.6-0.7,1.1-1.1,1.6c-0.6,0.8-1.6,1.1-1.9,2c-1.1,0.8-2.1,1.7-3.5,1.5    c-0.5,0.2-1,0.1-1.4,0.3c-1.1,0.1-2.1-0.8-3.1-0.6c-0.3-0.5-0.9-0.5-0.9-1c0.3-0.2,0.8-0.2,1.1-0.1c1.3-0.6,2.6-1.1,3.8-1.8    c1.5-0.8,2.6-2,3.6-3.3c0.1-0.4,0.3-0.8,0.5-1.2c-0.5,0-0.9,0-1.3-0.1c-1,1.1-2.3,2.1-3.4,2.9c-1.5,0.8-3.2,1.4-5,1.1    c-0.6-0.2-1.2-0.6-1.9-0.7c-0.1,0.2-0.3,0.1-0.4,0.1c-0.3-0.2-1,0-1.1-0.5c1-0.5,0.3-1.9,1.3-2.4c-0.1-0.4,0.3-1-0.3-1.2    c-1.4,0.2-2.5,1.8-3.9,1.3c-0.5-0.1-1.3-0.3-1.9-0.2c-1.8-0.4-3.6-0.8-5.4-1.3c-0.6-0.4-0.6-1.1-1-1.5c-0.3-0.8,0.5-0.6,0.9-0.7    c1.2-0.1,2.5-0.1,3.7-0.4c0.4-0.2,0.9-0.1,1.3-0.5c0.5,0.1,0.9-0.1,1.3-0.2c-0.5-0.2-0.9-0.5-1.4-0.7c-1.1,0.4-2.2,0.7-3.3,0.9    c-0.7,0.3-1.5-0.1-2.2,0.2c-0.4,0.2-1-0.1-1.3,0.5c-0.2,0.7,0.4,1,0.4,1.6c0.4,0.6,0.8,1,1.3,1.6c1.8,0.3,3.4,0.9,5.2,1.4    c1.7-0.3,3.8,0.8,5.3-0.4c0,0.3,0,0.8,0,1.1c-0.1,0.5-0.9,0.6-0.9,1.2c0.3,0.4,0.5,0.9,1,1c0.7,0,1.5,0.1,2.2,0.2    c0.3,0.3,0.7,0.4,1.1,0.5c0.3,0.1,0.8-0.1,1,0c2.5-0.2,4.8-1.2,6.5-3c0.1-0.1,0.4-0.2,0.5,0c0,0.6-0.8,0.8-0.9,1.1    c-1.8,1.3-3.7,2.1-5.7,2.6c-0.7,0.4-1.5-0.3-2.1,0.4c0,0.2,0.1,0.4,0.2,0.6c0.8,0.1,1.1,0.9,1.5,1.5c0.3-0.1,0.5,0.2,0.8,0.4    c1-0.2,2,0.7,3.1,0.4c0.6-0.3,1.6-0.2,2.3-0.2c0.7-0.2,1.4-0.4,1.9-1c1.4,0,1.4-1.9,2.6-2.2c0.5-1,1.8-1.2,1.7-2.5    c0.3-0.9,0.3-1.9,0.2-2.9c-0.2,0-0.5,0-0.8,0C63.7,116.8,63.7,117.6,63.7,118.4z"/>
		<path class="st0" d="M61.3,113.1c0.2,0,0.3,0.1,0.4,0.2c-0.3,0.9-0.7,1.8-1.1,2.7c0.5,0,1.1,0,1.6,0c0.4,0,0.9,0,1.3,0    c0-0.4,0-0.8,0-1.2c-0.2-0.4-0.7-0.5-0.5-1c-0.1-0.9-0.2-1.7-0.7-2.5c-0.3-1.5-1.9-1.6-2.6-2.9c-2.5,0.2-5-0.1-7.4,0.1    c-0.6-0.3-1.3-0.5-2-0.8c-1.2,1.2-2.9,1.4-4.5,1.8c-0.4,0.2-0.1,0.7-0.1,1c-0.3,0.3-0.7,0.6-1.1,0.8c-0.5-0.1-1,0.1-1.4,0.3    c4.9,2.4,10.2,3.9,15.9,4.3C60.1,115.1,60.9,114.1,61.3,113.1z"/>
		<path class="st0" d="M44.5,109.6c-1,0.3-1.4-0.6-2.3-0.5c-0.3-0.3-0.7-0.2-0.9-0.6c-0.3,0.2-0.4-0.4-0.6,0    c-1.8-0.9-3.8-1.5-5.6-2.6c-1-0.7-1.1-2.4-2.5-2.4c-0.1-0.3-0.3-0.5-0.4-0.6c-0.1-0.1-1.1-0.4-1.2-0.5c3.2,3.4,6.9,6.3,11.1,8.6    c0.9-0.3,1.9-0.6,2.9-0.8C44.8,109.9,44.8,109.7,44.5,109.6z"/>
		<path class="st0" d="M31.3,101.7c-0.4-0.9-0.8-1.8-1-2.8c0.2-0.6,0.6-1.3,1.3-1.6c0.9,0.4,1.6,1.2,2,2.1c1.3,1.6-2.5,3-0.1,3.9    c1,0.3,1.4,1.9,2.5,2.1c1.3,1.2,3.1,1.4,4.5,2.3c0.7,0,1.4,0.6,2,0.7c0.7,0.3,1.6-0.3,2.2,0.4c0.1-0.1,0.1-0.2,0.2-0.3    c-0.9-0.8-2.4-0.7-3.3-1.8c-0.3-1,0.1-2,0.1-3c0.3-0.2,0.4-0.4,0.4-0.8l2.3-2.8c1-0.6,0.4-2,0.8-2.9c-0.3-0.2,0-0.6-0.3-0.8    c-0.8-0.1-0.9,0.4-1.7,0.3c-2.3,0-4.6,0.1-6.8,0.3c-1.1-0.2-2.4-0.7-3.6-0.7c-0.6-0.5-1.8,0-2.1-0.9c1-0.9,2-1.8,3.2-2.5    c2.1-1.4,4.6-1.9,6.8-2.6c0.4,0.1,0.7-0.2,1.1-0.1c1-0.1,1.9-0.7,3-0.9c-0.5-0.9-0.1-2.1-0.2-3.1c0.1-0.5,0.3-0.9,0.4-1.4l0-0.9    c-0.7-0.3-1.4,0.2-2.1,0.2c-0.8,0.5-1.8,0.6-2.7,0.8c-1.7-0.1-3.3,0.5-4.9,0.7c-1.1-0.7-2.2,2-2.5,0c1.3-0.7,0.3-2.2,1.9-2.7    c1-0.6,0.8-2.1,2.1-2.2c0.7-0.6,1.6-1.1,2.3-1.6c0.6-0.4,1.3-0.5,1.9-0.9c0.4,0.2,0.6-0.3,1-0.1c0.5-0.6,1.3-0.3,1.8-0.7    c1.8-0.2,3.6-0.8,5.3-1.1c1.1-0.2,2.3,0.4,3.4,0.5c1,0.5,1.3-0.6,1.8-1.1c0-0.6,0.6-1,0.9-1.5c1.4-0.1,2.6,0.9,4,0.7    c1.8,0.6,3.6-0.6,5.4-0.2c0.7-0.3,0.9-1,1.4-1.5c0.4-0.9,0.5-1.9,0.6-2.8c1-0.9,0.7-2.4,1.3-3.4c0.6-1.8,1.3-3.3,2.7-4.5    c-1.4-0.7-0.9-2.6-2.3-3.3c-0.9-0.8-2.4-0.9-2.8-2.2c-1-0.9-1.2-2.2-2.2-2.9c-0.2-0.3-0.3-0.6-0.2-1c0.7-1.2,1.8-2.6,2.1-4.2    c0.5-2.6,2.4-4.6,4.2-6.3c-1.3-0.1-2.3-0.5-3.6-0.7c-0.2-0.1-0.3-0.5-0.6-0.4c-0.9-0.6-0.8-1.7-1.5-2.3c-0.8,0-1.3,0.4-2.1,0.6    c-1.2-0.1-2.6,0.2-3.6-0.3c-0.5,0.1-0.7-0.4-1.1-0.4c-0.7-0.9-0.1-2.3-0.8-3.1c-0.1-0.4,0.3-0.5,0.5-0.7c0-0.5-0.6-0.8-0.4-1.4    c0.3-1,0.7-2.1,1-3.1c-2.1,0.2-4.1,0.6-6.1,1.1c0.1,0.2,0.2,0.4,0.2,0.7c0.2,0.6,0.9,1.4,1.1,2.3c-0.1,0.4,0.3,1.1,0,1.6    c0.1,1.1-0.3,2.1-0.5,3.2c-0.5,1.4-1.3,2.7-1.9,3.9c-0.7,0.9-1.7,2-3,1.6c-0.5-1.1-1.4,0-2.1,0.1c-0.6,0.3-1.3,0.1-1.7-0.3    c-0.4-0.4-0.6-0.8-0.9-1.2c-1,0.5-2.4,1.2-3.4,0.3c0-0.4-0.3-0.7-0.5-1.1c-0.3,0-0.4,0-0.6-0.1l-0.1,0.2l-2-0.1    c-0.4,1.1-1.3,2-1.8,3c-0.6,0.5-1.2,0.7-1.8,1.3c-1.2,0.1-1.8-0.9-2.4-1.8c-0.8,1-1.6,2-2.3,3c0,0,0,0,0,0c1,0.3,2.2,0.6,3.3,1.1    c0.7,0.4,0.1,1.4,0.5,1.9c-0.1,0.7,0.2,1.6-0.4,2.1c-0.4,0.8-1.5,0-1.9,0.7c-0.4-0.2-0.7,0.4-1-0.1c-0.4-0.2-0.9-0.2-1.2-0.7    c-0.2-0.4-0.1-0.8-0.1-1.2c0.5-0.5,1-1.1,1.7-1c0.4,0.3,0.1,0.6,0.1,1c-0.2,0.3-0.5,0.6-0.7,0.8c0.3,0.2,0.7,0.5,1,0.2    c0.5-0.2,1.2,0.1,1.6-0.3c0.4-0.3,0.2-0.8,0.3-1.2c-0.2-0.4-0.1-1-0.2-1.4c-0.4-0.2-0.4-0.8-0.9-0.7c-0.8-0.3-1.6-0.6-2.4-0.7    c-1.6,2.3-2.9,4.8-4,7.4c0.1,0.3,0.3,0.5,0.6,0.7c0.9,0.9,2,2,3.4,2c0.4,0.2,1.1,0.2,1.6,0c2,0,3.9-1.1,4.9-2.8    c2.5-1.7,1.4-5.2,3.8-7.1c0.9-0.9,1.9-1.5,3-1.7c1-0.5,2.2-0.7,3.3-1.1c0.5,0,1-0.5,1.5-0.1c0.9-0.1,1.4,0.8,2,1.2    c1-0.1,1.7,0.6,2.5,1.1c0.2,0.3,0.9,0.5,0.7,1.1c0.4,0.4,0.4,0.9,0.5,1.5c-0.1,0.9-0.5,1.7-0.8,2.4c-0.4,0.8-1.3,1.2-1.9,1.8    c-1.2,0.5-2.4,0.5-3.6,0.5c-0.6-0.3-1.5-0.4-1.8-1.2c-0.1-0.6-0.3-1.2-0.2-2c0.3-0.4-0.1-1.2,0.4-1.5c-0.2-0.3,0.4-0.5,0-0.6    c-0.2,0.6-0.9,0.7-1.2,1.1c-0.2,0.7-0.9,1.3-1.2,2c-0.7,1.4-1,3-1.2,4.5c0,0.9,0.1,1.9-0.2,2.7c0.1,1.4-0.9,2.4-1.5,3.6    c-0.4,0.2-0.7,0.7-0.9,1c1.1,0.6,2.4,0.7,3.6,1c2.4,0.3,4.9,0.9,7.3,0.8l3.6,0.1c1.7-0.3,3.3-0.6,4.9-1.2c1.6-1.4,3.4-2.1,5-3.4    c0-0.9,1-1,1.4-1.7c0.3-0.3,0.5,0.1,0.7,0.1c0.3,1-0.7,1.4-0.7,2.2c-0.5,1-1.3,2-2.1,2.7c-0.6,1.2-1.9,1.8-2.8,2.7    c-0.9,0.5-1.9,0.9-2.6,1.6c-1.4,0.5-2.8,0.7-4.2,1.3c-1.2,0.1-2.2,0.7-3.5,0.4c-0.3,0.3-0.9,0-1.2,0.4l-3.8-0.1    c-0.3-0.1-0.7-0.3-1-0.4c-1.1-0.1-2.1-0.4-3.1-0.3c-0.5,0.2-0.8,0.8-1,1.2c-0.4,1.4-1.2,2.9-1.4,4.2c-0.6,0.2-1-0.3-1.5-0.3    c-2.3-0.6-3.7-2.4-5.6-3.4c-0.8-0.5-1.6-1.2-1.9-1.9c-0.6-0.8-1.3-1.5-1.5-2.5c-0.2,0.5-0.7,0.9-0.7,1.4c-0.1,0.7-0.2,1.6,0.2,2.3    c0.5,1.4,1.1,2.8,2.4,3.8c0.6,1.2,2.1,0.9,2.7,1.8c-0.7,0.9-1.6,1.8-2.8,1.7c-0.3,0.7-1.1,0.1-1.6,0.5c-2.1,0.5-3.4-1.7-5.1-2    c-0.1,0-0.2-0.1-0.4-0.2c1.1,8.6,4.7,16.4,10.2,22.7C30,101.3,31.4,101.8,31.3,101.7z"/>
		<path class="st0" d="M40.5,40.5c0-0.3,0.4-0.4,0.4-0.7c-0.1-0.1-0.2-0.3-0.4-0.2c-0.6,0.5-1.4,1-1.1,2    C39.9,41.4,40.2,40.9,40.5,40.5z"/>
		<path class="st0" d="M18.6,76.8c-1.1-0.4-1.4-1.7-2.3-2.2c-1.9-1.3-1.2-3.8-2.6-5.4c0-1.8-0.5-3.6-0.4-5.3c0-0.9,0.7-2,0.3-2.9    c0.8-1.8,0.7-3.7,1.5-5.5c1.4-3.3,4-5.6,5.7-8.7c0.7-0.5,1.3-1.4,2.1-1.9c1,0.4,1.9,0.4,2.7,1c1.3,0.4,2.1-0.6,3-1.1    c0.4,0.2,0.6,0.5,0.9,0.9c0.2-0.2,0.4-0.4,0.6-0.7c-0.2-0.2-0.4-0.3-0.5-0.4c-0.7-0.8,0.7-1.2,0.7-2c0.1-0.4,0.2-1-0.1-1.3    c-0.7-0.1-1.3,0.2-2,0.3c-0.7,0.2-0.8,0.9-0.9,1.5c0.3,0.3,0.2,0.8,0.4,1.2c-0.5,0.4-1.1,0.8-1.9,0.6c-0.5-0.6-1.3-0.5-1.9-0.7    c-0.4-0.2-0.9-0.1-1.3-0.2c-3.4,2.1-4.2,6.4-7.1,9c-0.4,1.6-1.9,2.7-1.8,4.5c-0.3,1-0.1,2.1-0.8,2.9c-0.1,1.4-0.4,2.9-0.3,4.4    c0,1.1,0.3,2.2,0.2,3.3c0.4,1.5,0.9,2.8,1.3,4.3c1.1,0.8,0.3,2.9,2.1,2.9c0.8,0.9,1.3,1.4,2.1,2.3c0.6,0,0.9,0.7,1.4,1    c0-0.4-0.1-0.7-0.1-1.1C19.3,77.3,19,77.1,18.6,76.8z M28.4,42.5c0.2-0.2,0.1-0.4,0.5-0.4c0.2,0,0.4,0,0.5,0.2    c-0.1,0.5-0.6,0.6-0.8,1C28.4,43.2,28.3,42.8,28.4,42.5z"/>
		<path class="st0" d="M44.6,40.5c-0.3-0.2-0.6,0-0.8,0c-0.1,0.4-0.7,0.7-0.5,1.2C43.6,41.1,44.4,41.2,44.6,40.5z"/>
		<path class="st0" d="M19.7,77.6c1.1,0.7,2.3,1.4,3.5,2c1,0.2,2.2,0.7,3.1,0.2c0.5,0.2,0.7-0.4,1.2-0.2c0.3-0.3,0.7-0.5,0.9-0.8    l-0.5-0.1c-1.1-1.1-2.5-2.1-3.1-3.6c-1.3-1.2-1.1-3-1.1-4.7c0.5-1.4,0.7-2.8,1.5-4.1c0.3-0.1,0.6-0.6,1-0.3    c-0.2,0.4-0.2,0.9-0.5,1.2c-0.1,0.8,0.1,1.4,0.2,2.1c0.7,1.7,1.9,3.4,3.7,4.2c1.6,1.1,3.1,2.4,4.9,2.8l0.6,0.1    c0.3-1.6,0.9-2.9,1.5-4.3c0.4-0.2,0.7-1.1,1.3-0.8c1.8-0.3,3.4,0.8,5.1,0.6c1.2,0.3,2.3-0.1,3.5-0.1c1.3,0.5,2-0.9,3.2-0.6    c1.9-0.2,3.5-1.2,5.3-1.7c2.4-1.5,5.2-3.8,6.2-6.4c-0.4,0.7-1.2,1.1-1.8,1.6c-1.3,0.2-2.1,1.7-3.5,2.1c-0.8,0.7-1.9,0.5-2.8,1.1    c-0.8,0.1-1.6,0.3-2.3,0.5c-1.1,0-2.2-0.1-3.2,0.1c-3.1-0.1-6.3-0.8-9.4-1.2c-1-0.3-1.9-0.8-2.9-0.7c-0.1-0.3-0.4-0.5-0.2-0.8    c0.8-1,1.4-2,2.2-3c0.7-1.1,0.6-2.4,0.8-3.5c-0.2-0.4-0.2-0.9,0-1.3c-0.1-1.4,0.1-2.7,0.9-3.7c0-1,1-1.5,1.1-2.5    c1-0.9,2.1-1.8,3-2.9c0.8-0.4,1.4-1.1,2.3-1c0.3-0.3-0.2-0.5-0.3-0.6c-0.4,0-0.8-0.3-1.2,0c-0.8-0.1-1.2,0.6-2,0.5    c-1.2,0.3-2.3,0.7-3.4,1.4c-1.2,0.8-1.8,2.2-2.8,3.3c0.1,0.8-0.5,1.5-0.4,2.2c-0.4,1.3-1.5,1.8-2,2.9c-0.4,1.1-1.5,1.2-2.3,2    c-0.7,0.1-1.2,0.5-1.9,0.5c-1.1,0.6-2.1,0-3.1,0.1c-0.4-0.2-1-0.2-1.3-0.5c-0.9,0.1-0.9-1.1-1.8-1.2c-0.3-0.3-0.6-0.7-0.8-1    c-1.9,4.9-3,10.2-3,15.8C19.5,74.7,19.5,76.1,19.7,77.6z"/>
		<path class="st0" d="M24.8,48.7c-0.5,0.6-1.3,1-1.4,1.8c-0.9,0.9-1,2.1-1.4,3.2c0.4,0.5-0.3,1.1,0.1,1.6c-0.3,0.9,0,1.6,0.5,2.2    c0.1-0.3,0.2-0.6,0.3-0.9c-0.3-0.8,0.1-1.8-0.2-2.7c0.4-1.5,1.1-3,2.2-4.2c0.6-0.1,1.1-0.5,1.8-0.5c0.1,0,0.2,0,0.3,0    c0.1-0.2,0.3-0.4,0.4-0.6C26.4,48.8,25.6,48.1,24.8,48.7z"/>
	</g>
	<g id="jungwacht_blauring">
		<path class="st0" d="M54.2,168.3h2.5v3.2h0c0.4-0.6,1-0.9,1.8-0.9c2.2,0,2.8,1.9,2.8,3.4c0,1.6-0.9,3.5-2.7,3.5    c-1.2,0-1.6-0.5-1.9-0.9h0v0.7h-2.4V168.3z M57.7,172.4c-0.9,0-1.1,0.8-1.1,1.6c0,0.8,0.2,1.6,1.1,1.6c0.9,0,1.1-0.8,1.1-1.6    C58.8,173.2,58.6,172.4,57.7,172.4z"/>
		<path class="st0" d="M64.4,168.3h2.5v9h-2.5V168.3z"/>
		<path class="st0" d="M76.6,175.8c0,0.5,0,1,0.3,1.5h-2.5c-0.1-0.2-0.1-0.4-0.1-0.6h0c-0.5,0.6-1.3,0.8-2.1,0.8    c-1.3,0-2.3-0.6-2.3-2c0-2.1,2.4-2,3.7-2.2c0.3-0.1,0.7-0.2,0.7-0.6c0-0.4-0.4-0.6-0.8-0.6c-0.8,0-0.9,0.4-0.9,0.7h-2.3    c0.1-1.8,1.8-2.1,3.4-2.1c3.1,0,3.1,1.3,3.1,2.5V175.8z M74.2,174.3c-0.3,0.2-0.6,0.2-1,0.3c-0.6,0.1-0.8,0.3-0.8,0.7    c0,0.3,0.3,0.6,0.8,0.6c0.6,0,1-0.3,1-1V174.3z"/>
		<path class="st0" d="M86.6,177.3h-2.4v-0.8h0c-0.5,0.7-1.1,1-2.1,1c-1.2,0-2.2-0.7-2.2-2.2v-4.5h2.5v3.4c0,0.8,0.1,1.3,0.8,1.3    c0.4,0,1-0.2,1-1.3v-3.4h2.5V177.3z"/>
		<path class="st0" d="M90,170.8h2.4v1h0c0.4-0.8,0.9-1.2,1.8-1.2c0.3,0,0.5,0,0.7,0.1v2.2c-0.2-0.1-0.5-0.2-1-0.2    c-1,0-1.5,0.6-1.5,2v2.6H90V170.8z"/>
		<path class="st0" d="M100,170.1h-2.5v-1.7h2.5V170.1z M97.5,170.8h2.5v6.5h-2.5V170.8z"/>
		<path class="st0" d="M103.4,170.8h2.4v0.8h0c0.5-0.7,1.1-1,2.1-1c1.2,0,2.2,0.7,2.2,2.2v4.5h-2.5v-3.4c0-0.8-0.1-1.3-0.8-1.3    c-0.4,0-1,0.2-1,1.3v3.4h-2.5V170.8z"/>
		<path class="st0" d="M120.1,176.4c0,1.3-0.3,3.1-3.4,3.1c-1.5,0-3.2-0.4-3.4-2.2h2.5c0,0.1,0.1,0.2,0.1,0.2    c0.2,0.2,0.4,0.5,0.7,0.5c0.8,0,1-1,1-1.5V176h0c-0.4,0.6-1,0.9-1.7,0.9c-1.9,0-2.8-1.4-2.8-3.2c0-1.7,1-3.1,2.8-3.1    c0.7,0,1.4,0.3,1.7,1h0v-0.8h2.5V176.4z M116.7,175.3c0.9,0,1-0.9,1-1.6c0-0.7-0.4-1.3-1.1-1.3c-0.7,0-1.1,0.6-1.1,1.3    C115.6,174.4,115.8,175.3,116.7,175.3z"/>
		<path class="st0" d="M53.1,162.2h0.4c0.5,0,0.7-0.2,0.7-0.8v-5.8h2.5v6.1c0,1-0.1,1.7-0.6,2.1c-0.5,0.4-1.3,0.4-1.8,0.4h-1.2    V162.2z M56.7,154.8h-2.5v-1.7h2.5V154.8z"/>
		<path class="st0" d="M67,162h-2.4v-0.8h0c-0.5,0.7-1.1,1-2.1,1c-1.2,0-2.2-0.7-2.2-2.2v-4.5h2.5v3.4c0,0.8,0.1,1.3,0.8,1.3    c0.4,0,1-0.2,1-1.3v-3.4H67V162z"/>
		<path class="st0" d="M70.3,155.5h2.4v0.8h0c0.5-0.7,1.1-1,2.1-1c1.2,0,2.2,0.7,2.2,2.2v4.5h-2.5v-3.4c0-0.8-0.1-1.3-0.8-1.3    c-0.4,0-1,0.2-1,1.3v3.4h-2.5V155.5z"/>
		<path class="st0" d="M87.1,161.2c0,1.3-0.3,3.1-3.4,3.1c-1.5,0-3.2-0.4-3.4-2.2h2.5c0,0.1,0.1,0.2,0.1,0.2    c0.2,0.2,0.4,0.5,0.7,0.5c0.8,0,1-1,1-1.5v-0.6h0c-0.4,0.6-1,0.9-1.7,0.9c-1.9,0-2.8-1.4-2.8-3.2c0-1.7,1-3.1,2.8-3.1    c0.7,0,1.4,0.3,1.7,1h0v-0.8h2.5V161.2z M83.7,160.1c0.9,0,1-0.9,1-1.6c0-0.7-0.4-1.3-1.1-1.3c-0.7,0-1.1,0.6-1.1,1.3    C82.6,159.2,82.8,160.1,83.7,160.1z"/>
		<path class="st0" d="M98.7,162h-2.5l-0.9-4h0l-1,4h-2.5l-2-6.5h2.6l1,4h0l0.8-4h2.3l0.9,4h0l0.9-4h2.6L98.7,162z"/>
		<path class="st0" d="M109.7,160.6c0,0.5,0,1,0.3,1.5h-2.5c-0.1-0.2-0.1-0.4-0.1-0.6h0c-0.5,0.6-1.3,0.8-2.1,0.8    c-1.3,0-2.3-0.6-2.3-2c0-2.1,2.4-2,3.7-2.2c0.3-0.1,0.7-0.2,0.7-0.6c0-0.4-0.4-0.6-0.8-0.6c-0.8,0-0.9,0.4-0.9,0.7h-2.3    c0.1-1.8,1.8-2.1,3.4-2.1c3.1,0,3.1,1.3,3.1,2.5V160.6z M107.3,159.1c-0.3,0.2-0.6,0.2-1,0.3c-0.6,0.1-0.8,0.3-0.8,0.7    c0,0.3,0.3,0.6,0.8,0.6c0.6,0,1-0.3,1-1V159.1z"/>
		<path class="st0" d="M117.3,158c0-0.3-0.1-0.5-0.3-0.6c-0.2-0.1-0.4-0.2-0.6-0.2c-1,0-1.1,0.8-1.1,1.6s0.1,1.6,1.1,1.6    c0.5,0,0.9-0.4,1-1h2.4c-0.2,1.8-1.6,2.8-3.4,2.8c-2,0-3.5-1.4-3.5-3.4c0-2.1,1.6-3.4,3.5-3.4c1.7,0,3.2,0.8,3.3,2.6H117.3z"/>
		<path class="st0" d="M122.7,153.1h2.5v3.2h0c0.4-0.5,1-0.9,2-0.9c1.2,0,2.2,0.7,2.2,2.2v4.5H127v-3.4c0-0.8-0.1-1.3-0.8-1.3    c-0.4,0-1,0.2-1,1.3v3.4h-2.5V153.1z"/>
		<path class="st0" d="M135.9,155.5h1.3v1.5h-1.3v2.3c0,0.6,0.1,0.9,0.8,0.9c0.2,0,0.4,0,0.6,0v1.9c-0.5,0-1.1,0.1-1.6,0.1    c-1.1,0-2.2-0.2-2.2-1.9v-3.1h-1.1v-1.5h1.1v-2h2.5V155.5z"/>
	</g>
</g>
</svg>
