<svg xmlns="http://www.w3.org/2000/svg" version="1.0" viewBox="0 0 113 152" fill="none"><path fill="#283583" d="M18.1 102.5s.9-.7 2.1-.9 1.8-.4 5.7 0l2 .7-.9-1-1.6-.5s-3.3-.7-6.8.6c0 0-2.8 1.5-3.3 2.3 0 0-1.3 1.3-1.3 3.6-.8 0-1.8.2-2.5.5s-2 1-3.5 2.4-4.5 5.6-5.2 7.5c-.6 1.1-2.3 6.7-2.3 7.6 0 0 0 .9.7 1.9a3 3 0 0 0-.7.9s-.1 7.1.1 8c.8 2.8 3.1 1.1 3.4.9s.7-.7.5-1.1-.3-.3-.8.2-1.1 1.2-2.1.3c0 0-.6 0-.5-4v-4s.2-.3.6-.5l1.3 1s2.2.2 1.8-1-1-2.8-2.9-1.3c-.6-1.2.5-5.1 1.5-7.7s2.6-5 4.4-7.5 4-3.4 6.2-3.3l.6 1.7s.9 2 2.2.7c0 0 1.6-1 .6-2.4 0 0-1.1-.9-2.8-.8 0-.6.8-3.3 3.5-4.8ZM2.7 127.1c.4-.3.4-.2.8 0s.4.3.4.6-.1.4-.4.4-.4-.2-.4-.2-.8-.5-.4-.8Zm13.8-18.7s1 .2.4 1.3c0 0-1.5 1.6-2.2-1.6a4 4 0 0 1 1.8.3m14.9 27.3s-.5.6-1 .1c0 0-.3-.2-.5-2 0 0 0-.6-.5-.6 0 0-.6-.1-1 .4l-1.4 1.8s-.3.6-.5.5c0 0-.3-.6-.2-.9l.1-1.7s.1-.9-.2-1c0 0-.4-.3-.7.3l-2.4 3s-.4.6-1.4.1c0 0-.4-.3-.4-.8 0 0 .8-.2.9-.5 0 0 .4-.5.1-.7 0 0-.5-.5-1-.5 0 0-.7-.2-.9.2l-.2.3v.6s-.8.4-.2.8l.4.2s.2 1.5 2 1.6c0 0 .9.1 1.4-.7l1.8-2.2s-.1 1.8.2 2.5c0 0 .5 1.1 1.3.3 0 0 1-1 1.2-1.6l.9-1 .2 1.2s.1.9.7 1.3c0 0 .2.3.8.2 0 0 .8-.1 1-.5 0 0 .4-.1.3-.6-.2-.1-.3-.4-.8-.1Zm-10.6-1.5c.1-.7.4-.2.4-.2l-.4.2Z"/><path fill="#283583" d="M16.5 132.2s-.7.2-1.9 2.3l.1-4.4s-.4-.6-.9.1c0 0-2.5 3.9-4.1 5.4 0 0-1 1.2-2.5.4 0 0-.9-.6-.7-1.4l1.7-.3s.6-.5.1-1c0 0-.2-.7-1.1-.9 0 0-1.3-.1-1.7 1.8 0 0-.3 2.4 2.1 2.8 0 0 1.6.5 3.3-1.4l2.9-4v5.2c0 .2.7.5 1.3.2 0 0 1.8-.9 2.4-3.9 0 .1.1-1.1-1-.9Zm-10 1.3c.2-.4.8-.3.8-.3.1 0 .2.1.2.3v.1c-.1.2-1 .3-1 .3v-.4Zm10.3 0c0 .3-.8 1.7-.8 1.7-.5.9-1.1 1.2-1.1 1.2l-.2-.2.6-1.4c.3-.7 1.1-1.6 1.1-1.6.6-.6.4.3.4.3Zm17.9-1.4s-.7 0-.6.7v3.1s-.4.2-1.2-.8c0 0-.5-.7-.7-.6 0 0-.3-.1-.5.2l.1.5 1.5 1.4s.9.4 1.2.3c0 0 .4-.1.4-.4v-3.1l.3.3s.2.6.5.1v-.7c.1 0-.4-.9-1-1Zm11.2.9s-.5-.2-1.3.2c0 0-.7.2-1.1 1.4 0 0-.2-1-.7-.9 0 0-.6 0-1.4.4l-1.5 1.2-1.1 1 .1-2.1.2-2.6s.1-1.1.3-1.3c0 0 .4.3.4.6 0 0 .3.6.6.5 0 0 .6-.2 0-1.2 0 0-.7-1.1-1.3-.9 0 0-.8.2-.9 2.7l-.2 5s-.6.4-.9.4c0 0-.3-.1-.4.2 0 0-.5.4 0 .7l.3.1.8-.3v7.7s0 4.6.3 5.1c0 0 .4.4.7-.1l-.2-3.1v-10.1l2.4-2.2s.6-.6 1.3-.8c0 0 .3.3.2 1.1v1.4s.4.4.6.3c0 0 .3 0 .4-.8 0 0 .2-1 1.1-2.4 0 0 .4-.4 1.2-.5.2-.1.5-.5.1-.7Zm10.8 2.4s-.3.5-.5.5c0 0-.3 0-.2-.9l.2-1.4s.2-.5-.4-.7c0 0-.4-.1-1.3 1.1l-.9 1.1-.2.3s-.2.2-.2-.3v-1.2s0-.3-.5-.3c0 0-.2 0-1 1l-1.5 1.6s-.5.5-.9.4-.5-.5-.7-1.1l1.7-1s.3-.3.1-.7c0 0-.2-.3-.7-.5s-.9-.2-1.3.3c0 0-.3.3-.4.9h-1s-.4 0-.4.5.3.4.6.4h.7s-.1 1.3.8 1.7c0 0 1 .5 1.6.1 0 0 .5-.2 2.1-2l.2.8.5.5s.6.1.9-.2c0 0 .7-.7.8-1l.5-.6.1 1.3s.3.7.6.7c0 0 .5.2.9 0 0 0 .6-.4 1.2-1.3 0 0 .1-.2-.2-.4-.3-.2-.5-.5-1.2.4Zm-8-1.3c.4-.1.4.1.4.1l-.6.2v-.1l.2-.2Zm11.1.7s-.1-4.6.1-5.1c0 0 0-.5.3-.5 0 0 .2-.6-.2-.8h-.4s-.7.6-.6 5.8c0 0 0 5 1.3 6.6 0 0 .7.2.4-.4.1 0-.8-1.6-.9-5.6Z"/><path fill="#283583" d="M67.2 135.3a4 4 0 0 0-.9.7c-.4.7-.6-.3-.6-.3l-.3-2.3c-.2-1.1-1.1-.7-1.1-.7-.8.5-1.6 2.1-1.6 2.1v-1.3c-.6-.7-1 .2-1 .2-1 1.2-1.1 1.6-1.1 1.7l.1.2c.3.4.6 0 .6 0l.5-.6v1.1c0 .9.4.8.4.8.5.1.8-.6.8-.6.6-1.3 1.5-2.4 1.5-2.4.2.1.2.7.2.7 0 2.1.9 2.6.9 2.6 1 .4 1.8-1 1.8-1 .6-.9-.2-.9-.2-.9Zm1.5-7.4s-.5-.1-.5.4c0 0 2.1 3 .9 9.6 0 0-.4 4-1.6 6.1 0 0 0 .6.5.3 0 0 1.1-.8 2-6.6 0 0 .9-5.1-.4-8.5-.1 0-.6-1.3-.9-1.3Zm9.1 9.6s-.5.4-.7.3c0 0-.8-.4-.9-1.9 0 0-.3-1.7.2-4.5V130s-.4-.8-1 .8l-.9 2.3-.5.9s-.3-.4-1-.1c0 0-.8.5-1.2 1.9 0 0-.4 1.5.7 1.6 0 0 .4.3 1.3-1.3l1.4-2.8s-.2 3.2.6 4.6c0 0 .7 1 1.4.8 0 0 .3 0 .9-.6.1-.1.3-.7-.3-.6Zm-5.2-.9c-.2-.1-.2-.5-.2-.5 0-.8 1-1.8 1-1.8.3 0 .3.6.3.6-.4.9-1.1 1.7-1.1 1.7Z"/><path fill="#283583" d="M82.7 134.1s-.3-.4-1 .6c0 0-1.2 1.4-1.8 1.6 0 0-.8.4-1-.6 0 0-.1-.2.4-.4 0 0 .9-.4 1.3-1.2 0 0 .3-.8-.5-.9 0 0-1-.2-1.5 1.1 0 0-.1.5-.3.2 0 0-.6 0-.7.6v.3l.4.2s0 1.1.5 1.4c0 0 .9.8 2.2-.1 0 0 1.2-1.1 1.8-1.9s.2-.9.2-.9Zm-3.5.3.1-.2c.2-.4.4-.3.4-.3l.1.1-.1.2-.5.2Zm.6-97.5c-1 .1-1.9-.2-2.8-.1-.6 1.4-1.4 2.7-2.4 3.9a8 8 0 0 1-5.7 2.1c-1.4-.4-2.2 1.4-3.1 2.1-.6.2-.7.9-1.2 1.2-1.1 1.8-1.5 3.9-2.5 5.7-.1.4-.4.8-.7 1.1-.8.8.5.8.6 1.5a6.5 6.5 0 0 0 3.8 4c.6.8 1.7 1.5 1.8 2.6.3.2.4.6.8.7.7-.3.7-1.2 1.2-1.6-.2-.7.5-.9.4-1.5-.3-1.3.9-2.3 1.7-3.3l2-2.5c.7-.5 1.2-1.1 1.9-1.4s1.1-1.4 1.7-2.1 2.4-.8 3.5-1.5.9-.3 1.2-.8 1.4-1.6 2.4-2.1c0-.7.4-1.2.7-1.7.8-.4 1.1-1.1 1.3-1.9-.3-.1-.4.3-.7.1-.8-.4-2.1.4-2.6-.7l1.1-2-2.9-1.9c-.4 0-1 .3-1.5.1ZM40.1 90.8c-.5.2-1 .1-1.4.5l-1.6.2c-1.9.7-3.9 1.2-5.7 2.2-.4.8-1.5.7-1.6 1.6 1.8.4 3.6.8 5.4.7 1 .1 2.2-.2 3.3-.1 1.1 0 2.3-.3 3.5-.5-.1-.7-.1-1.5.1-2.2-.1-.9.3-1.8.2-2.8l-.6.3c-.7-.1-1.1.2-1.6.1Zm22.6-53.3c.3-.7-.3-1.1.2-1.9s1.5-.8 2.2-.6.8.7.5 1.2-.9.8-1 1.2.6.3 1.3-.4.6-2.1.3-3-.9-.7-1.4-.9-1.6.4-2.1 1.2-.6.8-.8 1.5-.3 1.3-.2 1.8.9.2 1-.1Zm-21 63.4c-.7.8-1.2 1.6-1.8 2.5-.5.6-.6 1.5-.5 2.3-.3.9.5.8 1 1.2.4-.1.6.3 1 .2 0-.6-.3-1.4-.2-2.1.2-.5.1-1.1.7-1.5l-.3-.3.1-2.3Zm26.7 12.5c-.3-.8-.9-1.6-.9-2.5V109c0-.5 1.2-3.7 1.1-4.3s.3-1.6.2-2.6.8-3.1 1-4.8 2-3.6 2.6-4.8.2-3 .2-3.4-.7.2-1.1.1-7 2.2-10.4 3.5-2.8.4-4 .9-2.1 0-3.1.3-4.8 1.2-7.1 1.3c-2 .5-3 .6-4 1 .3.8-.1 1.9.2 2.6.7-.3 1.6-.3 2.4-.5 1.7.8 3.2 2 4.4 3.8.5 1.8-1.1 4.1-1.1 5.1.3.3.7 0 1 .3l4.4-.2c-.4-.8-1.5-1.7-1-2.9s.3-1.2.9-1.7 1-1.2 1.5-1.9 4-1.1 5.3-.4 1.4 1.1 1.4 1.3.3 3.4-1 4.5-1.5 2.1-2.8 1.6-.6 0-.8.2c.8.7 1.6 1.2 2.2 1.9.4.5.4 1.2.8 1.8.1.8-.1 1.8.5 2.5l.3 1.8c2.4-.1 4.7-.4 7-.9-.2-.6-.2-1.1-.1-1.7Z"/><path fill="#283583" d="M64.6 35.8c-.3-.1-.9-.2-1 .3s0 .7.4.7.8-.5.6-1ZM29.8 99.2c-.4-.3-.7-.8-1.1-1-.2 0-.5-.1-.6.2-.2.7.1 1.3.3 1.9-.2.6.6.7.6 1.2.6-.7.9-1.4.8-2.3Zm28.3 3.5c-.9.5-1 1.3-1.3 2.1.2.2 0 .7.3.8.3-.3.5-.9 1-1.1s1.3-.2 1.6.4-.1.8-.4 1.2-.8.9-1.6.7v.3c.4.1.8 0 1.2-.1s1.5-.9 1.6-1.6 0-1.4-.2-2.1-1.6-.9-2.2-.6Zm20.7 6.3c-.4.1-.9 0-1.2.2.7.5 1.2 1.3 2.1 1.6l1.6-.9c-.3-.3-.7-.5-1.1-.6-.4-.1-1 .2-1.4-.3Z"/><path fill="#283583" d="M77.5 110.2c-.7-.3-.9-1-1.5-1.4.1-.2 0-.5.3-.6 1.9.2 4.2-.4 5.7 1.3 1.4-.9 2.7-1.8 3.9-2.8-1.5-.6-2.7-1.5-4.2-1.8-.8-.3-1.8-.4-2.3-.7s-.7-1.1-.8-1.8.1-2.8.4-4.6.4-4.5 2.4-5.6 6.8.2 8.8-1.6c-.5-.6-1.3-.6-2-1.2l-2.3-.4c-1 .5-2 0-3 .3-.3-.1-.5-.4-.4-.8.7-.4 1.5-.8 2.1-1.4v-.6c-.5-.2-1 .4-1.4 0-1 .7-2.2 1-3.3 1.5s-.9-1-1.1-1.8-.4-2.5-.8-3.1c-.6-.5-1.4.4-1.9.2-1.6-.4-3-1.4-4.5-2.2-.6.3-1.4.2-2 .7s-1.1.4-2.5.2-2.9-1.5-3.9-2.9 0-2.9.1-3.2.7-1.1 1.2-1.6c-.4.4-1 0-1.5.8.2.5-.7.5-.4 1-.5.6-1.2 1-1.8 1.4l-3.7 1.4c-.9-.2-1.8 0-2.6 0-1-.5-2.2-1-3.3-1-1.2-.2-2.2.7-3.4.7-.4.5-.9.6-1.4.9-.6-.3-.7.4-1.2.4-.4.9-1.2 1-1.9 1.7.1.5-.3.7-.2 1.2.5.5 1-.2 1.5.3 2.6.2 5.3-.1 8 .3 1.6 0 3.2-.4 5-.3 1.3-.8 3.1-.7 4.5-1.3.3-.1.8-.1 1 .2-.2.8-.4 1.5-.8 2.2-1.2.7-2.2 1.6-3.6 2a169 169 0 0 0-14 3.7 3 3 0 0 0-1.6.2c.2.2.1.6.1 1-.4.4 0 .9-.3 1.3 0 1-.3 1.7 0 2.7.8 0 1.5-.5 2.4-.6l5.4-.7 2.4-1c1-.2 1.6-.1 2.4 0s2.4-.7 3.7-.8 2.8-.8 4.9-1.4 4.4-1.1 5.8-1.7l2.3-1c.7-.4.8 0 1.2-.1s.5.5.4.9 0 1.4-.4 1.9l.1.5-.6 2.3c-.3.8-2 3.6-2.9 5.8s-.3 1.6-.2 2.4l-.4 1c.1.9-.3 1.5-.2 2.3-.4 1.3-.2 2.9-.7 4.2l.2 3c.5.5.5 1.2.6 1.8v.7a45 45 0 0 0 9.5-3.5c-.5-.1-.9-.4-1.3-1Zm-3.9-69.8c.6-1.2 2-2.1 2.1-3.5-1.6.9-2.9 2.1-4.7 2.8l-2.1 2.1a7 7 0 0 0 4.7-1.4Z"/><path fill="#283583" d="M55.3 106.9c.2.4.4-.3.6.1.2-.1.6.2.6-.2s-.5-.8-.5-1.4.3-2.2 1.1-2.9 1.1-.8 1.8-.9 1.1.1 1.6.2 1 1.2.9 3.3c.7-.6.7-1.6.5-2.4s-.2-.6-.4-.9-1.2-1.2-3.5-.7-3.4 2.4-3.9 3.3-.2 1.6.2 2 .3.7 1 .5Zm31.5.1c2.7 1.9 5.7 3.2 8.5 5l.4.5c-.6.4-1.4.3-2.2.5l-5.6-1.4c-1.3-.2-2.6 0-3.8-.3-.5-1-1.7-.8-2.1-1.8l-.7.5 1.7 1.5c-.8-.4-2.1.1-2.8-.5l-.5-.1-.9.5c.7.4 1.4.8 2.2 1l2.7.1c1 .8 2.3 1.2 3.4 1.7 1.7 1.3 3.8 2.2 5.6 3.3-.2.2-.6.3-1 .4s-1.9.3-2.9-.1l-7.2-2.2c-1.2-.4-2.7-1-3.3-1.5s-1.2-.4-1.6.1-.2 1 .1 1.2 1.7 1.1 2.3 1.8 6 2.8 7.6 3.7 3.4 1.8 5.3 2 2.9.8 3.2 1.4c-1.4-.1-2.9.1-4.3-.2s-4.2-1.5-5-2-1.9-2-3.3-2.5l-4.3-1.8c-1.4-.5-2.5-1.4-3.9-1.9-.4.2-.3.6-.3 1 .3 1.2 1.9 1.8 2 3.2 0 .3.3.5.2.9 1 1.1 1.6 2.9 3.2 3.2 1.1 1.2 2.3 2 3.7 2.6 3 .9 5.5 3 8.4 4-1-.2-2 0-3.6 0s-2-.2-3 .1-2.7-.3-4-.6-5.7-3.2-7.4-5.1-1.4-1.6-1.7-2.8-.8-2.3-1.2-3.5c-.6-1.2-.9-2.6-1-3.9l-.9.2.2 1.5c1 2.5 1.6 5.2 2.7 7.7 1.2.9 1.7 2.4 3 3 1.4 1 2.6 2 4.3 3s1 .6 2 1 2.8.3 4 .4 1.1-.2 1.6-.2l5.7.2c.7.4 1.3 0 1.9-.3s-.9-.5-1.1-1.1-1-.6-1.5-.9l-1.8-.4c-1.9-.8-3.5-2.1-5.5-2.8s-2.5-1.7-3.7-2.6-2-1.8-3-2.7-.9-1.4-.7-2.3c-.3-.2-.7-.6-.7-1 2.6 1 5.8 2 7 3.5s4 2.3 5.4 3.3 2.8.7 4.7.7 3 .2 3.4-.6c.5-.3-.1-.6-.3-.9-.6-.3-1.3-.9-2-1.2l-3.3-.9c-2-.6-1.7-.7-2.5-1l-6.7-3c-1.2-.5-2-1.4-3.1-2.4 10.7 4.2 14.7 5.2 15.9 3.3.5-1.1-.1-1.1-.3-1.4-2.7-1.4-5.5-2.8-8.1-4.5l1.6-.1c.5.1 1.3 0 2.2.4l2 .7c.7.3 2.2.4 3.3.3.6-.5 1.5-.2 2-.6.2-.6-.2-.9-.5-1.4l-3.3-2.3-4-2-2.7-1.6-.7.6Zm4.9-57.2c0 1-.7 1.6-.4 2.6.2.2.1.5.1.7-.5 1.4-.1 3-.5 4.4-1.4 0-2.6-.3-4-.8-1-.4-1.9-.7-2.8-1.2-.3 1 .7 1.5.7 2.5.7 1 2 1.2 2.6 2.2.3.1.5.5.9.3.4 1.1 1.8 1.8 2.2 2.4s.5.5.4.9-1.6.9-2.4 1.1-3 .3-6.2.3-8.4-.5-10.9-.9c-.8-.4-1.6-.8-2.3-1.4-.6 1-1.8 1.4-2.1 2.5s-1.5 3.8-2.3 5.7-.6 2.2-.3 2.4c1.5-.1 2.2-2.1 3.9-1.7s1.6.6 2.4 1 1.2 1.6 1.9 2.3.1 2.1.5 3l-.4 1.5c-.4.2-.3.6-.5.9.8.4 1.5.8 2.4 1-.4-.5-1-.9-1.1-2s1-3 1.5-3.5 2.2-.8 3.3-1.2 1.6-.5 2.4-.1 1.4 1.2 1.9 1.8.8 1.9.3 3-.5 1.9-1.4 2.4-1.4.6-2.2.6c-.5.2-.2.8-.3 1.2 1 .8.4 2.3 1.2 3.2s2-1 2.9-1.1 1.5 0 2.1-.3.6.1.8.4 0 1.6-.8 2.2c.8.2 1.9-.1 2.7.4s1.4.3 1.9.7l2 1.3c.6.4-.1.7-.4.7s-1.7.9-2.7 1.1-2.8-.3-4.2.1-2.1.2-2.8.8-1.1 3.4-1.6 5.3-.3 1.4-.4 2.4 0 1.6.3 2.3.2.4.5.5 1-.2 1.6.3 3.2 1.3 4.8 2a42.9 42.9 0 0 0 8-57Zm-14 6.8.9-1c.3-1 1-1.8.9-2.8h-.2c-.3-.4-.8-.6-1.2-.7l-1.7.2c-.5.6-1.1 1.1-1 2 .9.8 1 2.4 2.3 2.3Z"/><path fill="#283583" d="M58.3 106.2c.4 0 .5-.6.4-.8s-.8.2-.8.5.2.3.4.3Zm22.1-26.5c.7-1.3-.3-2-.6-2.2s-1.1-.2-1.5 0-.6.7-.7 1.1-.2 1.3.3 1.5c-.1-.5.2-.8.4-1s.8-.4 1.2-.4 1 .5.7 1.1Z"/><path fill="#283583" d="M75 80.9c-.1.6.7.6.8 1.1.7.1 1.2-.1 1.8-.3-.4-.6-.8-1.3-.8-2s-.1-2.4 1.1-3.1 1.9-.3 2.5.2 1 1.8 1 2.9-.8 1-.9 1.6c.7 0 1.2-.8 1.4-1.3s0-3.4-1-4-2-.4-3.2-.1-1.8.3-2.8 2-.5 2.5.1 3Z"/><path fill="#283583" d="M78.5 80.5c.1.2.3.1.5.1s.5-.5.3-.8-1 0-.8.7Zm-9.1-2.6c.2-.5.2-1 .1-1.6s-2.6-.6-3.1.5 0 1.4 0 1.4c.2.1.3.4.6.3 0-.4-.4-.7-.2-1.2s.5-.7.9-.9 1 .1 1.3.5-.1.9.4 1Zm-7.9-2.2-4.3.6c-3.4 0-3.7-1.2-4.4-.9-.6.4-.7 1.2-1.1 1.9l1.4.2c.5.1.9.1 1.2.6H58c1.2-.6 2.5-1.2 3.7-2.1l-.2-.3Zm9.9 4.4.6-1.2c.1-.4.1-.9.3-1.3 0-.6.2-1.6-.4-1.8V77c-.5.7-.2 1.8-1 2.5l.5.6Z"/><path fill="#283583" d="M63.9 77.6c.1.6-.3.9.1 1.4 1 1.2 2 1.8 3.3 2.3.7-.2 1.5.2 2.2-.4.4.2.8-.3 1-.5-1.3-1.6-3.8-.2-4.8-2-.2-.3-.1-.6-.4-.9.1-.7.2-1.5.9-1.9.7-.9 1.9-.7 3-.7l.8.7c.8.8.4 2.1.1 2.9.1 0 .3.2.4.1.4-.6.4-1.3.5-1.9.7-1.2-.7-2.1-1.3-2.9l-.5-.4c-.7.1-1.5-.2-2 .2-1.7.1-1.7 1.8-2.8 2.7-.3.4-.3.9-.5 1.3ZM42.5 87.9c.3.4-.2 1.3.3 1.5l3.6-.7c1.9-.8 3.9-1.2 5.9-1.8.7 0 1.1-.4 1.8-.2 1.6-.6 3.4-.5 4.9-1.4.9-.6 2.2-.8 2.5-2-3.1 1-6.2 1.3-9.3 1.5-3.1.1-6.2-.3-9.3-.7-.1.6 0 1.3-.4 1.7v2.1Zm2.8-10c-.2 0-.5.1-.6-.1-2.2.5-4.5.8-6.9 1.9s-2.4 1.4-3.6 2.4c-.7.7-1.1 1.4-1.9 2.1l.1.5a5 5 0 0 0 1.8-.1l1-.4c.4-.1 1.8 0 2.6-.3s3-.8 4.6-1c-.1-.3 0-.7.2-1.2s.6-1 1-1.4 2.9-2.1 4.6-2.7h-1.5c-.5-.2-1 .1-1.4.3Zm.8 27.1c.4 0 .2-.5.3-.7-.2-.3-.3-.5-.8-.5l-.1.5c.1.2 0 .9.6.7Z"/><path fill="#283583" d="M44.4 103.3c0 .2 0 .6.4.4v-.2c.2-.3.4-.7.9-.5s1 .5 1.4 1 .1.8-.2 1-.6.7-1 .9c-.1.3.2.4.4.3s.9-.8 1.1-1.4.7-2.2.2-3l-.6-.7-1.3-.2c-.5.7-1.2 1.4-1.3 2.4Z"/><path fill="#283583" d="m47 106.4.6.1c.9-1.2 1.9-2.6 1.6-4.2-.1-.4-.5-.6-.7-.9-.2-.1-.3.1-.2.3.4.4.2 1.1.4 1.6-.5.5-.2 1.3-.8 1.8.1.7-.6 1-.9 1.3Zm-2 1.1c-.5.7-1.6.5-2.3.6l.1.5c1.3 0 2.5-.4 3.4-1-.3-.3-.9-.2-1.2-.1Zm-2.6-3.3-.4 1.7c.1.4.3.7.2 1.2.4.3 1.1.2 1.5.1.6.2.9-.3 1.4-.5-.1-1.3-1.3-1.1-1.2-2.4.1-.6-.3-1.2-.1-1.9.1-.7.9-1.2 1.1-1.9.3-.6 1.1-.2 1.6-.2-.1-.5-.7-.4-.8-.9-.9.1-1.8-.3-2.6.4-.5.3-.5 1-.7 1.5v2.9ZM85 45.7c-.7 1.3-2.1 1.9-3.2 2.8s-2.3.7-3.4 1.5-.7.7-1.1 1.1c.5-.1 1.1.4 1.6.3s1.4.7 1.6 1.6-.3 1.3-.4 1.8-.6 2.2-1.4 2.5-.9.6-1.4.4-2.1-2-3-3.2V54l-1.2 1.3c-.8 1-1.5 2-2 3.1s-.5 1.6-.6 2.7-.6.7-.7 1.2c.9.5 1.7 1.2 2.7 1.3l1.7.3 11.3.5a9 9 0 0 0 4.2-.8c-1.3-1.5-2.7-2.7-4.5-4s-1.2-1.3-1.6-2-1.5-2.1-.7-3.4c1.2.3 2.4.9 3.6 1.4l3.5.7.3-1.1c.1-.7-.4-2.9.1-4.3s.4-1.9.9-2.2 1.1-.1 1.7-.3l1-.1a38.9 38.9 0 0 0-6.1-6.7c-.6.9-1.2 1.8-2 2.6s-.8.8-.9 1.5ZM33.4 42c.5.2 1.1-.2 1.5.2.3-.1.4-.3.5-.6s-.2-.9.4-1.9 1.5-1.2 2.3-1 .7.5.8.7 0 .6-.2 1.1-.8 1.3-2.1 2.1c-.1.4.1.7.3 1.1.5-.3.8.3 1.1-.3.5 0 .8-.6 1.3-.8-.3-.7-.1-1.5.4-2s1.7-1.4 2.7-.7-.4 2-2 3.5l.6.9c.4.2.8 0 1.1-.1s1.3 0 1.3-.8c-.2-.3 0-.8.3-1.1s1.1-1 1.9-.6.5.7.4.9L44.7 44c-.1.1 0 .5.3.3l.7-.2c.9-1.4 2.1-2.5 2.5-4.1s.9-2.6.7-4-.7-2.5-1.3-3.7a41.7 41.7 0 0 0-13.2 6.5c0 .9-.8 2.1-1 3.2Zm21.3-4.1c.3.8 1.3.6 2 .7.7.2 1.6.2 2.4 0 .4-.4 1.1-.2 1.5-.7s-.3-1.5 0-2.2l.7-1.4c.2-.4.8-1.1 1.4-1.6s2.3-.8 3.3-.3 1.1 1 1.4 1.6-.1 2.9-1.3 3.7-1.4.5-2.1.4-1.2.3-1.9.6c.2.4.5.9.5 1.4s1.1.7 1.8.9 2 .5 3.1.5c1-1 1.9-2.1 3-2.9s4.1-2.3 6.1-3.5l.5-.8a42 42 0 0 0-21.8-3.7c-.4 1.5-.6 3.1-.8 4.7s.1 1.8.2 2.6Zm29.9-5.3c-.1-1.6-1-3.2-2.5-3.7-1.2.5-2 1.8-1.9 3a6.1 6.1 0 0 0-3.1 2.4l1 .5.8-1.2c.4 0 .6-.6 1.1-.5l.5.8c.6.3.9 1 1.6.9-.2.3-.9.6-1.3.9l-.8.1 1.5.8.8-.4c.5-1.5 2.8-1.8 2.3-3.6ZM82 30.2c.7.1 1.1.8 1.5 1.2l.1 1.4c-.4-.1-.2-.7-.7-.9s-1.2-.5-1.7-.1c-.2-.8.3-1.1.8-1.6Zm-.5 3.3c-.1-.2-.7-.4-.2-.7s1-.1 1.3.2.2.5.1.7-1 0-1.2-.2ZM29.6 45.8c.9-.6 1.4-2 2-2.8-.6-.1-1.3-.4-1.8-.7a65 65 0 0 0-2.6 2.7c.7.7 1.4 1.8 2.4.8Zm.5-4.5c-.5-.1-.6-.8-.9-1s-.4-1.6.4-2 1.5-.9 2.4-.5.8.6 1.1 1l.2.6 1-.6-.4-.8a3 3 0 0 0-2.3-1.3c-.6-.3-1.3.4-1.9.4-.4.6-1.2.9-1.1 1.7a2 2 0 0 0 0 1.8c.2.7.7 1.2 1.2 1.6l.8-.8-.5-.1Z"/><path fill="#283583" d="M32 41.9c.9-1.6 1.3-2.1 1.3-2.7l-2.7 2.2 1.4.5Zm-5 59.4.9 1-.9-1Zm71-52.1c.9.4 1.5 1.2 2.5 1.3s.6.3 1.3.3.3-.5.3-.7.5-2.9.2-4.3-.7-1.9-1.4-2.6-2.2-1.3-3.3-2-5.5-1.1-9.5-1.1c.5-2.5 1.3-4.8 2-7.3s.9-3.6.7-5.5-.3-1.7-.6-3.1-.8-2.1-1-3.2-3.4-2.3-4.3-3.1-.6-1-1.2-1.7-1.5-1.1-2.5-1.3-2.7 0-4-.1-4.5.2-6.3 0-3.4.7-4.8 1.7-2.4 1.4-3.2 2.6-3.3 1.9-3.8 2.7-.5 1.8-1.1 2.5-1.6 1.4-3.2 3.9c-.1-2.1 1.5-3.8 1.8-5.8l.3-2.4c.1-.8 0-1.6.8-2.1s2.1-1.3 3.1-2.1l7.4-5.4c1.4-.9 2.4-4.7 2.4-5.2s-.3-.8-.7-.9-2.8.4-4.2 1-1.6 2.1-2.7 3c.4-1.8 1-3.6 1.7-5.3s.5-1.9.3-2.1-.8-.2-1.4-.1-1.1.3-1.5.7-1 1-1.5 1.9-1 2.5-1.5 3.8-.4 1.4-1 1.8l.1-4.8c-.3-.3-.7-.5-.5-1-.4-.8-1.2-1.2-2.1-1.2a7 7 0 0 0-1 2.5c-.3.6-.1 1.4-.4 2-.5-1.4-2-.8-2.8-1.4l-4-.5c-.6.8-.3 1.9-.3 2.9.7.4 1 1 1 1.7.5.7 1.3.9 1.7 1.6.1.3.5.7.5 1-.8 0-1.5-.3-2.4-.2-.6.3-1.3.5-2 .5-1.7.5-2.7 1.9-4 2.9 0 .3-.1.7.2.8.6-.2 1.3-.1 2-.1s3.2-.7 5-.9 2.4.8 2.6 1.7-.4 4.8-1.2 7.4-3.2 3.8-4.4 4.3c-.4-1.5-1.2-2.8-1.5-4.3s-.9-2.6-1.9-3.4-1.6-1-2.6-.5-1.1.5-1.4 1-1 1.8-.4 2.9v.2c-1.5 0-2.3-.2-3.5.5s-1.4 1.3-1 2.3.7 1.7 1.6 1.9 2.3 1 4.3 1.2 2.4-.1 3.5-.3l2.4-.3 1.4 2.1.3.6.8-.2-.1-.5-1.6-2.2 2.8-1.4 1.1-.9c0-.7.4-1.1.8-1.7s1.2-2.7 1.4-4.4.1-3.1.1-4.6-.5-1.7-1.1-2.2-1.5-.3-2.3-.2-3.8.5-5.6 1.1.4-.8.9-1.2.9-.5 1.6-.8 1.3-.3 2.2-.4 2.7.3 3.9.1c-.4-1.1-1.3-1.9-1.9-2.9s-.5-.7-1.1-1.5-2.2-2.3-.5-2.9c1.3.2 2.7.2 4 .6s1.2 1.8 1.4 2.6-.1 1.3.4 1.5.5.1.6-.1 0-3.2.2-4.8l.7-2.2c.8-.2 1 .6 1.4 1.2s0 1 .1 1.7-.2 2.2-.3 3.4-.2 1.8.3 2.5c.9 0 .8-.9 1.1-1.4 1.1-2.9 2.1-4.3 2.7-6.1.4-1 1.2-2.4 2.4-2.5.4 1-.3 2-.2 2.9-.4.2-.2.6-.5.8-.4 1.3-1.1 2.5-1.3 3.9-.3.6.1 1.6-.4 2.2 0 .3-.1.6.1.8.3 0 .7.1.9-.3l.8-1.9c.3-1 1-1.8 1.6-2.7.2-1 1.2-1.2 1.9-1.7.4.1.8-.4 1.2-.1.4-.2.8-.6 1.3-.6.3-.1.5.2.6.3 0 .5-.6.8-.6 1.4-.5.5-.1 1.6-.4 2.1-.7.8-1.8 1-2.5 1.7L63 13.2c-1 1.2-2.5 1.5-3.7 2.2-.5 1.1-1.9.9-2.5 2-.4.4-.4.9-.5 1.4.3 1.1-.1 2.2-.2 3.4-.5.8-.8 1.6-1.1 2.6l-.3.5-.5 3.6.1.9.1.3-.2.8 1-.1c.2-.6.3-1.2.6-1.7l.4-1c.1-.3.4-.2.6-.2l1.3.4c.6.1 1.3-.1 1.6-.7.1-1.2-.2-2.5.3-3.5-.1-.6.3-.9.5-1.2 1.2.6 2.5 1.9 3.1 3 .5.4 1 .8 1.7.7.9-1.5.5-3.3 1.5-4.8h.3c1 .6 1.3 1.7 2.1 2.4.2.4.1 1.1.7 1.2s1.2-1 1.5-1.6l1.6-3.6c.5-1.2.3-.7.8-.7s.1.8.2 1 .8 1.6.9 2.5-.4.9 0 1.3.4.3.7.3 1-1 1.4-1.5.7-1.5 1.3-2.1-.1 3.4-.5 5.1c.9.7 2.5.4 3.8.9s1.3.7 2 .9 1.4 1.2 2.1 1.8-.1 1.4.1 1.9-.7 2.9-1.1 4.3-.2 1.7-.5 2.5l.9.7c.4-1 .4-2 .9-3s.3-1 .2-1.7.9-2 .8-3.1.2-1.1-.2-1.6-.7-.6-.8-1.2-2-1.3-3-2.1-2.7-.8-3.8-1.2c.1-1.4.4-2.9.3-4.3s-.2-1.6-1-1.8-1.5 2.6-2.5 3.8c-.4-.4-.4-1-.7-1.7s-.3-.9-.2-1.4-.8-.6-.5-1.2-.6-.8-1.1-.6-1.5 2.8-2.4 4-.4 1.2-.7 1.7-1.1-1.4-1.5-2.2-.8-.8-1.3-1.1-1-.5-1.3.1c-.4.5-.5 1.2-.9 1.7-.4.7-.1 2.3-.9 2.6-1.1-.9-2.1-2.1-3.3-2.8 1-1.6 2.4-2.6 3.9-3.8 1-.4 1.7-1.8 2.9-1.7l1.5-.4c2-.8 4.2-.2 6.1-.7l5.1.1c.8-.1 1.5.2 1.7.8 1.6 1.5 3.3 2.9 5 4.1.4 0 .5.8 1 .6.3 1.9 1.5 3.4 1.2 5.4.3 1.1-.3 2.1-.1 3.2-.3.3 0 .9-.4 1.2.2.5-.4.9 0 1.4-.7 1.1-.5 2.3-1.1 3.4-.4 1.5-.5 3-1 4.4l-.8.1 1.5 1.3.2-.4c2.2-.2 4.4.4 6.6.2 1.3.2 2.5.9 3.7 1.4.5.1.6.9 1.2.7.8.6 1.9 1.2 1.8 2.4.4.7-.2 1.6.1 2.3-.1.5-.3 1-.3 1.6-1.2.1-2.1-1-3.3-1.3-1.3.1-2.7-.2-4-.2l.7 1 3.6.1ZM44.7 28.4c-1.7.5-3.5.3-5.2.4s-3-.3-3.8-1-1.4-1-1.2-1.8 1.3-1 2.2-1.1 2.5.3 3.7.8c.4-1-1-1.2-1.2-2.3s-.3-1.5.2-2 2.6-.7 3.2.3 1.8 4.2 2.5 6.4c0 .4-.3.1-.4.3Zm14.1-1.6c-.6.2-1.1-.2-1.6-.2l1.9-2.2c-.3.7-.6 1.6-.3 2.4Z"/><path fill="#283583" d="m86.4 40.1-1.2-1-.5.8c.5.2 1.1.3 1.7.2ZM67.9 77.3c-.2.1-.2.3-.3.5s.2.8.4.8.8-.2.7-.6-.3-.9-.8-.7Zm9.5-41.6c.8.3 1.7.1 2.5 0l-1.9-1-.6 1Zm-34.7 15c0 .3.3.5.6.4s.6-.1.5-.5-.4-.7-.8-.6-.4.4-.3.7Z"/><path fill="#283583" d="M41.5 54.8c3.7.5 4.4-1.6 5.3-2.8.3-1.4-.9-2.4-1.7-3.3-.5.1-.8-.2-1.3-.1-.1.7.9.9 1 1.2s-.3.8-.4 1.2-1.1 1.1-1.9 1.1-.9-.6-1-1.1.2-1.2.9-1.4.7 0 .5-.4c-.1-.4-.3-.2-.6-.1s-1.7 2.4-1.9 3-.4 1.7-.1 2.4c.4.1.7.4 1.2.3Zm3.3-12.4c-.7-.2-.9.5-.7 1 .2-.4.9-.5.7-1Zm15.9 76c-.2.6-.7 1.1-1.1 1.6s-1.6 1.1-1.9 2-2.1 1.7-3.5 1.5-1 .1-1.4.3-2-.4-3.1-.6-.9-.5-.9-1 .7-.2 1.1-.1a15 15 0 0 0 7.4-5.1l.5-1.2-1.3-.1c-1 1.1-2.3 2.1-3.4 2.9s-3.4 1.2-5 1.1-1.2-.6-1.9-.7c-.7-.1-1.4.1-1.5-.4 1-.5.9-2 1.1-2.4s.5-1-.1-1.2-2.5 1.8-3.9 1.3-1.3-.3-1.9-.2l-5.4-1.3c-.6-.4-.6-1.1-1-1.5-.3-.8.5-.6.9-.7 1.2-.1 2.5-.1 3.7-.4.4-.2.9-.1 1.3-.5.5.1.9-.1 1.3-.2l-1.4-.7-3.3.9c-.7.3-1.5-.1-2.2.2-.4.2-1-.1-1.3.5-.2.7.4 1 .4 1.6l1.3 1.6c1.8.3 3.4.9 5.2 1.4 1.7-.3 3.8.8 5.3-.4v1.1c-.1.5-.9.6-.9 1.2s.5.9 1 1l2.2.2c.3.3.7.4 1.1.5h1a9.9 9.9 0 0 0 6.5-3c.1-.1.4-.2.5 0 0 .6-.8.8-.9 1.1a16.3 16.3 0 0 1-5.7 2.6c-.7.4-1.5-.3-2.1.4l.2.6c.8.1 1.1.9 1.5 1.5s.5.2.8.4 2 .7 3.1.4 1.6-.2 2.3-.2 1.2-.5 1.9-1 2-1.5 2.6-2.2 1.8-1.2 1.7-2.5.1-2 .2-2.9h-.8c-.2 1-.2 1.8-.2 2.6Z"/><path fill="#283583" d="m58.3 113.1.4.2-1.1 2.7h2.9v-1.2c-.2-.4-.7-.5-.5-1s-.2-1.7-.7-2.5-1.9-1.6-2.6-2.9c-2.5.2-5-.1-7.4.1l-2-.8c-1.2 1.2-2.9 1.4-3.9 1.7s-.7.8-.7 1.1l-1.1.8c-.5-.1-1 .1-1.4.3a42.7 42.7 0 0 0 15.9 4.3c1-.8 1.8-1.8 2.2-2.8Zm-16.8-3.5c-1 .3-1.4-.6-2.3-.5s-.5-.4-1.6-.8-3.7-1.3-5.5-2.4-1.1-2.4-2.5-2.4l-.4-.6-1.2-.5c3.2 3.4 6.9 6.3 11.1 8.6l2.9-.8c-.2-.3-.2-.5-.5-.6Z"/><path fill="#283583" d="M28.3 101.7c-.4-.9-.8-1.8-1-2.8s.4-1.5 1.3-1.6 1.6 1.2 2 2.1-1.7 3-.1 3.9 1.4 1.9 2.5 2.1c1.3 1.2 3.1 1.4 4.5 2.3.7 0 1.4.6 2 .7.7.3 1.6-.3 2.2.4l.2-.3c-.9-.8-2.4-.7-3.3-1.8s-1.4-1.3.1-3 3.8-4.7 3.5-6.5-1.3-.4-2-.5-5.1.7-6.8.3-2.4-.7-3.6-.7-1.8 0-2.1-.9c1-.9 2-1.8 3.2-2.5s4.6-1.9 6.8-2.6 3-.8 4.1-1c-.5-.9-.1-2.1-.2-3.1l.4-1.4v-.9c-.7-.3-1.4.2-2.1.2-.8.5-1.8.6-2.7.8-1.7-.1-3.3.5-4.9.7-1.1-.7-2.2 2-2.5 0s.3-2.2 1.9-2.7.8-2.1 2.1-2.2 1.5-1 2.3-1.6 1.3-.5 1.9-.9 2.3-.4 2.8-.8 3.6-.8 5.3-1.1 2.3.4 3.4.5 1.3-.6 1.8-1.1.6-1 .9-1.5 2.6.9 4 .7 3.1 0 5.4-.2.9-1 1.4-1.5.5-1.9.6-2.8.7-2.4 1.3-3.4 1.2-3.2 2.7-4.5c-1.4-.7-.9-2.6-2.3-3.3s-2.4-.9-2.8-2.2-1.2-2.2-2.2-2.9-.3-.6-.2-1 1.8-2.6 2.1-4.2 2.4-4.6 4.2-6.3c-1.3-.1-2.3-.5-3.6-.7s-1.4-2.1-2.1-2.7-1.3.4-2.1.6-2.6.2-3.6-.3-.8-.2-1.1-.4-.1-2.3-.8-3.1.3-.5.5-.7-.6-.8-.4-1.4l1-3.1a41 41 0 0 0-6.1 1.1l.2.7c.2.6.9 1.4 1.1 2.3s0 1 0 1.6l-.5 3.2c-.2 1.1-1.3 2.7-1.9 3.9s-1.7 2-3 1.6-1.4 0-2.1.1-1.3.1-1.7-.3l-.9-1.2c-1 .5-2.4 1.2-3.4.3 0-.4-.3-.7-.5-1.1h-2.7c-.4 1.1-1.3 2-1.8 3s-.8 1.2-1.8 1.3-1.8-.9-2.4-1.8l-2.3 3c1 .3 2.2.6 3.3 1.1s.3 1.1.5 1.9.2 1.6-.4 2.1-1 .4-1.9.7-1.9-.3-2.2-.8-.3-.8-.1-1.2 1-1.1 1.7-1 .3.7.1 1l-.7.8c.3.2.7.5 1 .2s1.2.1 1.6-.3.3-.8.3-1.2l-.2-1.4c-.1-.4-.4-.6-.9-.7s-1.6-.6-2.4-.7a40.6 40.6 0 0 0-4 7.4c.9 1.6 2.6 2.7 4 2.7s3.6-.3 6.5-2.8 1.4-5.2 3.8-7.1 1.3-1 3-1.7 2.2-1 3.3-1.1l1.5-.1c.6-.1 1.4.8 2 1.2s1.7.6 2.5 1.1.3.5.7 1.1.4.9.5 1.5-.5 1.7-.8 2.4-1.3 1.2-1.9 1.8-2.4.5-3.6.5-1.5-.4-1.8-1.2-.3-1.2-.2-2-.1-1.2.4-1.5.4-.5 0-.6c-.2.6-.9.7-1.2 1.1s-.9 1.3-1.2 2-1 3-1.2 4.5.1 1.9-.2 2.7l-1.5 3.6c-.6 1.2-.7.7-.9 1 1.1.6 2.4.7 3.6 1s4.9.9 7.3.8 6.9-.7 8.5-1.1 3.4-2.1 5-3.4 1-1 1.4-1.7c.3-.3.5.1.7.1s-.7 1.4-.7 2.2-1.3 2-2.1 2.7l-2.8 2.7c-.9.9-1.9.9-2.6 1.6s-2.8.7-4.2 1.3-2.2.7-3.5.4l-6-.1c-1.1-.1-2.1-.4-3.1-.3s-.8.8-1 1.2-1.2 2.9-1.4 4.2-1.3-.1-1.5-.3-3.7-2.4-5.6-3.4-3.2-3.4-3.4-4.4c-.2.5-.6.8-.7 1.4s-.2 1.6.2 2.3l2.4 3.8c.8 1.3 2.1.9 2.7 1.8-.7.9-1.6 1.8-2.8 1.7s-4.9.1-7-1.7a42.6 42.6 0 0 0 10 22.7c-.3.3 1.1.8 1 .7Z"/><path fill="#283583" d="M37.5 40.5c0-.3.4-.4.4-.7s-.2-.3-.4-.2-1.4 1-1.1 2c.5-.2.8-.7 1.1-1.1ZM15.6 76.8c-1.1-.4-1.4-1.7-2.3-2.2s-2.1-3.3-2.6-5.4-.5-3.6-.4-5.3l.3-2.9c.1-.6.7-3.7 1.5-5.5s5-7.5 5.7-8.7 1.7-1.8 2.1-1.9 1.9.4 2.7 1 2.1-.6 3-1.1c.4.2.6.5.9.9l.6-.7-.5-.4c-.7-.8.4-1.2.7-2s.2-1-.1-1.3-1.3.2-2 .3-.8.9-.9 1.5.2.8.4 1.2c-.5.4-1.1.8-1.9.6l-1.9-.7c-.6-.2-.9-.1-1.3-.2s-5 5.5-7.1 9-2 5.3-2.6 7.4-.4 2.9-.3 4.4l.2 3.3c.1 1.3 1.6 7.2 3.4 7.2l2.1 2.3c.6 0 .9.7 1.4 1l-.1-1.1-1-.7Zm9.8-34.3c.2-.2.1-.4.5-.4s.4 0 .5.2-.6.6-.8 1c-.2-.1-.3-.5-.2-.8Zm16.2-2c-.3-.2-.6 0-.8 0s-.7.7-.5 1.2c.3-.6 1.1-.5 1.3-1.2Z"/><path fill="#283583" d="m16.7 77.6 2.8 1.1c1 .2 2 .4 3 .2s1 0 1.3-.2l.9-.8h-.5c-1-1.3-2.2-1.6-3.1-3.7s-1.1-3-1.1-4.7.7-2.8 1.5-4c.3-.2.6-.7 1.5-.2l-.5 1.2c-.2.6 0 1 .2 2s2.3 3.3 3.7 4.3 3.1 2.4 5 2.8c.3-1.7 1-3.6 1.5-4.4s.8-.7 1.2-1.2 3.4.6 5.1.6h3.5c1.2 0 2-.2 3.3-.3s3.7-.6 4.9-.9 5.6-2.7 6.8-5l-2.4 1.3c-1.2.7-2.1 1.7-4.1 2.3s-2.5.3-6.6.5-6.3-.8-9.4-1.2-2.5-.3-2.9-.7c-.1-.3-.4-.5-.2-.8l2.2-3c.7-1.1.6-2.4.8-3.5s.1-4 .9-5 1-1.5 1.1-2.5 2.1-1.8 3-2.9 1.4-1.1 2.3-1c.3-.3 0-.5-.3-.6s-1.8-.1-3.2.5-2.3.7-3.4 1.4-2.4 2.5-2.8 3.3-.3 1.2-.4 2.2-1.5 1.8-2 2.9-1.5 1.2-2.3 2-1.2.5-1.9.5l-3.1.1c-1 .1-3-1.1-3.7-2.6a42 42 0 0 0-2.4 20Z"/><path fill="#283583" d="M21.8 48.7c-.5.6-1.3 1-1.4 1.8-.9.9-1 2.1-1.4 3.2.4.5-.3 1.1.1 1.6-.3.9 0 1.6.5 2.2l.3-.9c-.3-.8.1-1.8-.2-2.7a10 10 0 0 1 2.2-4.2c.6-.1 1.1-.5 1.8-.5h.3l.4-.6c-1 .2-1.8-.5-2.6.1Z"/></svg>
