<svg xmlns="http://www.w3.org/2000/svg" viewBox="0 0 60.4 68.71" fill="currentColor">
    <path d="M13.94 23.68c-5.45 5.87-5.64 15.1.04 20.07 5.57-5.44 5.62-15.02-.04-20.07zM.32 42.27a71.5 71.5 0 0 0-.22 3.04c2.47-.3 5.62-.14 7.7 1.07a7.79 7.79 0 0 0-7.48-4.1Zm13.55 19.61c1.9-1.98 1.9-4.1 0-6.07-1.9 1.97-1.9 4.1 0 6.07zm36.97-35.03a2.03 2.03 0 0 0-2.08-2.1c-1.26 0-3.76 2.66-5.8 4.73 1.89 1.87 4.24 4.73 5.8 4.74a2.05 2.05 0 0 0 2.08-2.11c-.01-.48-.16-.95-.24-1.4a6.74 6.74 0 0 1 0-2.45c.1-.5.22-.93.24-1.4zM21.86 57.14c-.04-2.05-.86-2.93-2.9-2.97.03 2.05.85 2.93 2.9 2.97zm-15.82-.16c2.05-.05 2.93-.86 2.97-2.91-2.05.04-2.92.86-2.97 2.9zM35.69 15.3a2.46 2.46 0 0 0-2.55 2.52c0 2.63 3.23 4.73 5.76 7.22 2.48-2.48 5.28-4.34 5.66-6.93-1.1-.94-2.2-1.84-3.31-2.71a9.46 9.46 0 0 1-3.87.2c-.6-.11-1.11-.27-1.7-.3zm-6.61 9.19a2.15 2.15 0 0 0-2.2 2.22c.02.51.19 1.03.27 1.48.15.85.16 1.73 0 2.58-.1.53-.24.98-.27 1.48a2.15 2.15 0 0 0 2.2 2.22c1.22 0 3.9-2.78 6.07-4.95-2.17-2.25-4.46-4.99-6.07-5.03zm1.72 22.06c.51-2.42-1.86-4.25-4.2-4.14a8.2 8.2 0 0 0-6.8 4.17c3.54-1.58 7.71-2.1 11-.03z"/>
    <path d="M53.74 26.47a9.07 9.07 0 0 0-.26 4.87c.12.76.32 1.4.37 2.1a3.74 3.74 0 0 1-3.58 3.97c-.7.03-1.69.06-4.08-1.82-.63-.5-6.03-6.1-6.03-6.1 0-.01 5.41-5.6 6.03-6.11a9.79 9.79 0 0 1 2.76-1.65c-.75-.7-1.5-1.38-2.28-2.06-.26.4-.56.84-.96 1.34-.55.7-6.84 6.76-6.85 6.77 0 0-6.29-6.06-6.85-6.77-2.1-2.68-2.04-3.78-2.04-4.58a4.25 4.25 0 0 1 4.45-4.01c.81.04 1.65.27 2.36.41.52.11 1.06.15 1.59.16A91.43 91.43 0 0 0 13.94 0C6.64 13.87 2.13 26.17.56 40.26c5.12.14 8.65 3.09 9.6 8.33-3.2-1.2-7.25-1.68-10.13-.44-.1 3.92.06 7.84.47 11.74 3.96 1.75 8.02 3.25 12.16 4.5a7.06 7.06 0 0 1-1.63-4.56 6.85 6.85 0 0 1 2.84-5.67 6.85 6.85 0 0 1 2.83 5.67 6.97 6.97 0 0 1-2.15 5.12 105.94 105.94 0 0 0 35.2 3.52c5.48-11.84 8.92-22.52 10.65-34.26-2.02-2.6-4.25-5.2-6.66-7.74zm-39.8-8.35c9.2 6.96 8.97 21.2 0 28.34-9.08-6.82-9.6-21.13 0-28.34zM3.93 59.19a5.32 5.32 0 0 1 6.01-6.02c.22 4.26-2.68 6.49-6.01 6.02zm5.75-8.57c2.67-1.8 6.16-1.88 8.5 0-2.66 1.8-6.15 1.88-8.5 0zm14.12 8.57a5.3 5.3 0 0 1-6-6.02c3.5-.5 6.5 2.51 6 6.02zm8.53-8.38c-3.84-3.88-10.39-3.72-14.62-2.22 1.25-4.8 4.33-8.3 8.55-8.36 6.3-.07 9.38 4.6 6.07 10.58zm5.24-21.33s-5.4 5.61-6.03 6.1c-2.4 1.89-3.38 1.83-4.08 1.83a3.79 3.79 0 0 1-3.58-3.96c.03-.72.24-1.43.37-2.11.24-1.27.21-2.5 0-3.72-.13-.75-.32-1.4-.37-2.1a3.76 3.76 0 0 1 3.58-3.97c.7 0 1.69-.06 4.08 1.83.63.5 6.03 6.1 6.03 6.1zm1.37 13.53a14.78 14.78 0 0 1 0-13.13c1.9 4.26 2 9.2 0 13.13z"/>
</svg>