<svg xmlns="http://www.w3.org/2000/svg" viewBox="0 0 155.4 155.4" style="enable-background:new 0 0 155.4 155.4"><path d="M0 52.5h155.4v54.8H0V52.5z" style="fill:#ed1c24"/><path d="M85.6 28.2c20.1 7.2 44.8 24.6 53.6 33.2-.6 15.4-8 37.2-10.1 41.2-14.5.2-43.2-3.2-54.8-5-3.2-20-3.4-44.7 11.3-69.4" style="fill:#0054a6"/><path d="M13.9 62.4c18.9-4.9 33.9-7.5 56.4-7-1.8 20.4-2.2 37.1 3.6 57.9-10.5 6.8-30.4 12.9-39.1 13.9-18.1-32.7-14.3-37.5-20.9-64.8" style="fill:#00a651"/><path d="M126 63.6c-1.1-.8-2.8-.9-4.2-.4-4.8 1.3-7.9 6.7-12.3 9-.4-.3-1-.7-.6-1.2l5.6-7.4c2.1-2.7 4.8-5.2 5.1-8.7.2-1.9-.3-3.4-1.5-4.7-1.2-1.2-2.9-1.2-4.7-1.3-5.7 1.5-12.3.6-18.2 0-1.5.2-2.8 1.7-3.6 3-3 7.7 5.3 12.6 9.4 18.2l.4 1.2c-1.6.7-3-1.6-4.5-2.4-4.1-2.2-7.7-7.2-12.8-5.6-5 2.5-1.7 8.4-2 12.6.4 4.5-2.6 9.9 1.8 13.1 6.9 3.4 11.7-4.1 16.8-7.6 1.2-.4 2.4.4 3 1.4.5 5.6-.5 12 4.1 15.6.5-.7 1.1-1.5 1.2-2.4-3.2-3.5-3.5-8.6-2.9-13.4.6-.8 1.4-1.2 2.3-.8 5.4 3.3 9.7 11.2 16.7 8.8 3.6-2.1 2.1-6.5 1.8-9.9-2.3-6.1 4.1-11.9-.9-17.1zm-21 13.5c-.3-.1-.4-.4-.7-.6l.6-.9c.3.1.5.4.7.6-.1.3-.3.6-.6.9zm20.1 4.4c.1 2.2 1.4 4.9-.1 6.9-1.1 1-2.9 1.2-4.1.6-4.8-2-8.1-7.5-13-9.3l-1.9.5c-.3-1.2.5-1.9.7-2.9l15.4-.2c.5-.5.9-1.3.3-1.8l-.6-.5h-15.1l-.8-1.1.1-18.5c-.4-.5-1-.9-1.7-.6l-.5.5.3 18.7-1.1 1.1-15.7-.1c-.8.6-.6 1.5-.2 2.2 5.2.4 10.7.1 16.1.2.1 1 .8 1.8.5 2.9-5.4-2.5-8.5 5-13 6.9-1.4 1-3.4 1.3-5.1.8-1.2-.4-1.7-1.8-2.1-2.8-.3-3 .7-5.8.6-8.9.7-3.8-3.3-9.4 1.5-11.4l1.9.3c4.4 2.4 8.4 5.9 12.7 8.5 1.4.4 2.5-.5 3-1.6.7-1.7-.9-2.8-1.8-4.1-3.4-4.9-11.4-9.5-7.4-16 1.3-1.7 3.9-.9 5.6-.8 4.3 1 9.6.9 13.7-.3 1.7-.1 3.4.4 4.2 1.9 1.2 4.7-3 7.7-5.5 11.2-1.9 2.8-5.8 5.3-4.7 9 .9 1.1 2.2 1.4 3.5 1 4.2-2.6 7.3-7.6 12-9 1.4-.3 2.7.5 3.1 1.7.2 4.9-2.2 9.8-.8 15zm-57.4 5.4c0-1.6-.3-3.2-1.5-4.3-2.4-2.2-5.7-2.9-8.8-2.2-4.3 1.2-7.3 5.4-8.1 9.5-.5 1.4-.2 3.2-.8 4.3C47 87 52 81.9 54.1 75.9c1.5-7.4-5.2-12.3-8.3-18.1-3.3 6.4-11.2 12-7.5 20.1 2.8 5 5.9 9.9 5 16.2l-.3.1c-.4-2.2-.5-4.6-1.3-6.7-1.3-3.7-4.7-6.6-8.5-7.2-3.2-.5-6 .6-8.2 2.8-4.1 4.8 3.8 8.4.6 13.2.4.3.9.6 1.5.7 4.6 1.5 4.6-4 8.1-5.2 1.3-.5 2.3.4 3.1 1.4 1.9 1.8-1.7 1.6-1.4 3.3-.4 1.2.2 2.2.7 3.1 1.2 1.3 3.1.7 4.7 1v.6c-2.1 2.9-6.3 1.5-8.4 4.4-1 2-.8 5 .7 6.5 1.8-.6 4.2-.4 5.8.3l-.6 1.6c-1.2 4.3 3.7 6 6 8.7 1.7-1.8 3.9-2.7 5.4-4.8 1.2-1.7.7-4.1.2-5.8 1.9-.6 3.9-.4 5.8-.1 1.3-1.6 1.5-4.2.7-6.1-1.5-2.5-4.7-2.2-7-3.4-.7-.3-1.8-1.1-1.4-2 1.6-.2 3.6.5 4.7-1.1.5-.9.9-1.9.6-3-.3-1.1-1.4-1.5-1.9-2.3.3-1 1.1-1.7 2-2.3 2.9-.6 4.4 2.5 5.8 4.5 1.6 1.1 3.7.7 5.6.5-2.9-3.4 1.3-6.4 1.4-9.9zm-27.6-9.6C36.9 71 43 66.2 45.8 61.2c2.6 4.6 7.6 8.4 6.5 14.2-2.7 6-6.8 11.4-5.8 19h-1.2c.7-6.6-2.1-11.9-5.2-17.1zm-3.7 12.5c-3-.2-5.2 2.7-6.6 5-.6.1-1 .6-1.7.4 1.6-4.5-5.2-7.5-.9-11.6 1.8-1.3 4.1-1.8 6.5-1.4 1.8.7 3.7 1.7 4.9 3.4 1.5 2.6 2.4 5.4 2.4 8.6-.6-1.7-2.4-4-4.6-4.4zm19.5 16.3c.9 1 .6 2.7.3 3.9-2.6-.5-5.1.2-7.4.8.2 1.8 1.9 3.6 1.1 5.6-1 1.6-2.6 2.6-4 3.6-1.6-1.1-3.8-2.3-4.3-4.3-.3-1.9.9-3.1 1.4-4.7-2.2-.7-4.8-1.5-7.5-1-.4-1-.5-2.5.1-3.4 2.7-2.1 8.1-1.3 8.6-6h3.3c.4 4.4 5.4 4.1 8.4 5.5zm-3.2-7.9l-.8.4H39.4c-.8-.3-.8-1.2-.6-1.8l.5-.5 13.2.1c.6.4.6 1.3.2 1.8zm4.5-8.2c-1.3-.5-2.9-.1-4 .6-1.2 1-2 2.4-2.4 3.8-.1-3.7.8-7.4 3.4-10.1 2.7-2.6 7.6-3.2 10.5-.6 1.2 1.1 1.3 3 .9 4.5-1.3 2.1-2.4 4.3-2.1 6.9-2.9 0-3.2-4.5-6.3-5.1z" style="fill:#fff200"/></svg>
