<?xml version="1.0" encoding="UTF-8" standalone="no"?>
<svg
   xmlns:dc="http://purl.org/dc/elements/1.1/"
   xmlns:cc="http://creativecommons.org/ns#"
   xmlns:rdf="http://www.w3.org/1999/02/22-rdf-syntax-ns#"
   xmlns:svg="http://www.w3.org/2000/svg"
   xmlns="http://www.w3.org/2000/svg"
   viewBox="0 0 755.90668 755.90668"
   height="755.90668"
   width="755.90668"
   xml:space="preserve"
   id="svg2"
   version="1.1"><metadata
     id="metadata8"><rdf:RDF><cc:Work
         rdf:about=""><dc:format>image/svg+xml</dc:format><dc:type
           rdf:resource="http://purl.org/dc/dcmitype/StillImage" /><dc:title></dc:title></cc:Work></rdf:RDF></metadata><defs
     id="defs6"><clipPath
       id="clipPath18"
       clipPathUnits="userSpaceOnUse"><path
         d="M0.0 566.93C0.0 566.93 566.93 566.93 566.93 566.93C566.93 566.93 566.93 0.0 566.93 0.0C566.93 0.0 0.0 0.0 0.0 0.0C0.0 0.0 0.0 566.93 0.0 566.93"
         id="path16" /></clipPath></defs><g
     id="g10"><path
       d="M723.898381903 95.3509531806C740.783114814 126.971019057 749.846421254 160.83601821 747.601487977 195.859297335C747.661221308 208.516870351 747.625354643 323.497827477 747.625354643 323.497827477C747.625354643 323.497827477 639.319250684 323.497827477 639.319250684 323.497827477C673.243943169 340.525853718 703.132542422 366.999293056 721.832315288 400.482172219C740.149981496 431.397704779 747.386301315 465.573170592 747.278834651 503.056316321C747.159367988 551.214808451 753.452381164 598.28667394 733.403261665 642.110548845C712.709315516 695.77389417 661.61330346 737.555839792 607.185718154 751.09706692C547.539866312 766.023453214 484.502734554 748.661079914 440.356455658 707.153773885C401.667256625 670.267681474 379.731430507 618.992553423 381.212137136 564.815741444C381.212137136 564.815741444 433.132082505 564.970968107 433.132082505 564.970968107C433.132082505 564.970968107 433.132082505 433.606811391 433.132082505 433.606811391C433.132082505 433.606811391 563.242425919 433.606811391 563.242425919 433.606811391C563.624545909 394.72655903 563.242425919 323.50976081 563.242425919 323.50976081C563.242425919 323.50976081 433.132082505 323.50976081 433.132082505 323.50976081C433.132082505 323.50976081 433.132082505 191.047017455 433.132082505 191.047017455C433.132082505 191.047017455 380.26877716 191.154484119 380.26877716 191.154484119C379.432910514 148.154538527 394.992176792 99.7213930713 423.137376088 66.5609272336C467.08065499 11.2974619486 545.426293031 -14.2206840801 615.150437955 6.92702205782C654.735223632 18.6173684322 693.042302674 46.320741073 714.894542128 81.212673534C714.894542128 81.212673534 723.898381903 95.3509531806 723.898381903 95.3509531806M356.040524432 105.118792936C368.184630795 132.428112254 375.504537279 161.397244863 373.259604002 191.154497452C373.259604002 191.154497452 322.402405273 191.047030788 322.402405273 191.047030788C322.402405273 191.047030788 322.402405273 323.509774143 322.402405273 323.509774143C322.402405273 323.509774143 190.41731524 323.509774143 190.41731524 323.509774143C190.41731524 323.509774143 190.41731524 433.606824724 190.41731524 433.606824724C190.41731524 433.606824724 322.402405273 433.606824724 322.402405273 433.606824724C322.402405273 433.606824724 322.402405273 564.97098144 322.402405273 564.97098144C322.402405273 564.97098144 373.749190656 565.006848106 373.749190656 565.006848106C373.749190656 565.006848106 373.701457324 754.822746854 373.701457324 754.822746854C373.701457324 754.822746854 175.837235604 754.966040184 175.837235604 754.966040184C121.791770289 750.786653595 71.4719315465 720.96969354 39.8518656704 674.769534695C13.0560127403 636.462455653 8.38703952366 589.366714163 7.96910620077 542.891915325C7.55115954455 493.993063215 7.96910620077 288.665655014 7.96910620077 288.665655014C8.1721061957 244.447722786 7.52727954515 216.553283484 8.49450618764 170.412831304C12.5423060864 101.142446369 63.6980250742 31.7287681044 134.711809966 8.73019534608C181.950848785 -7.53360424733 239.005474025 -0.595817754104 280.727726315 23.6207549738C314.724058799 42.1414211775 339.012284858 72.5434870841 356.040311099 105.11884627M670.163143246 340.585560383C669.900436586 340.776613712 669.781036589 341.2303737 669.398916598 341.099027037C668.68244995 340.848267043 668.68244995 339.809387069 669.398916598 339.558627075C669.649676592 339.881027067 670.485556571 339.881027067 670.163143246 340.585560383"
       style="fill:#e92d35;fill-opacity:1;fill-rule:evenodd;stroke:none"
       id="path116" /></g></svg>