<svg xmlns="http://www.w3.org/2000/svg" data-name="Ebene 2" viewBox="0 0 513.5 246.7">
  <g data-name="edge-left">
    <path fill="#487051" d="M170.3 108.4c-1.3 6.6-7.8 5.5-8.2 9.8l-.6.4c-2.5 1.3-10.8.2-7.1-3.1.5-.4 2.2-3.1 2.5-3.8 1.2.5 2.4 1.3 3.7 1.4 1.3.2 0 .4 1-.3 1.3-1.2 2.8-3.3 3.3-5.4 2-.2 4.8-1.8 5.4 1ZM109.8 125c-2.3 3.9-3.8 9.3-7.4 11.5-2.4.3-10-.3-8.1-3 1.6-1.4.2-3-.3-4-11-17-6.8-12 8.9-16 2.5 3.7 5.4 8 6.9 11.5Z"/>
    <path fill="#3a554e" d="M56.6 121.8c-1-.2 10.9 23.4 10.3 23.4 0 0-40 3.6-41-.2-.8-3 9.2-33.2 8.2-36-.2-.6 7.5-15.8 7-16 1.4-.2 2-2 3-2.5.5-.2.6-1.4 1.2-1.6 1.7 11.8 6.4 22.2 11.3 32.9Z"/>
    <path fill="#203d45" d="M55 122.1h-.2l.3.7-.2-.7Zm27.9 56.3a66.5 66.5 0 0 1-3.2-14.8c-.7-5.7-2-11.5-4.7-16.8-3 7.9-3.7 16.3-7.2 23.7l-.7.2c-1.5-3.5-3.4-7-4.6-10.5 2.1-1.3.4-3.3 0-5H64c-2.8-7-6.6-13.5-7.4-21.3 0-.7-.3-1.5 0-2 1-2.3 0-4.2-.6-6.3-.3 1.5-1.2 2-3 3.5l-2.5-6.7c5.7-.3 3.3-4.4 1.2-7.4-5.4-6.5-7-14.5-9.7-22.4-.9-4.7-3.2-17.2-4.4-16.8-1.7.5-2 18.3-3.6 19.1-1.4 7.5-6.2 13.4-10 19.9.3 1.7-.3 1.8-2.2 5.3l-3.7 6c1.2 2-2 17.9-.4 18 1.3 2.9 15.9 14.2 14.8 15.1.5 2.8.7 3 3.5 2.6.1.3.7.5 1 .8l-.5.5c-2.7 5.4 10 2.4 13 8 0 2-3 4.5-2.7 6.4 1.2 2.4 1.3 6 4.4 6.9 10 .5 20-1 30-1.8l.6-.7c2.1-.5 1.7-1.9 1.2-3.5ZM94 161v.4-.4Z"/>
    <path fill="#3a554e" d="M27.4 239.8s-3-74 14.4-82.3c-9.4-.7 8.6-14 4.8-27.8a49 49 0 0 1 6-16c1.5 6.7 6 13.1 5.1 20.3.8 7.6 5.7 13.8 8.4 20.8l-2.4.8c.4 1.7 2.2 4 .1 5.3 1.2 3.6 1.7 4.3 3.1 7.8.3 0 .7.5 1 .5 3.5-7.6 4.2-15.8 7.2-23.6C78 151 85.2 157.7 86 163.5c13.5 87.7 31.4 56.6-58.6 76.3ZM360 144.5c-1.8 1.8-17.4-3.8-19.2-2 1.9-5.5 19.7-66 16.5-70.6-12.5-5.8 1.1-5 4.4-9.4.2-8.8 5.8-15.8 9.6-23.4 2.1-2.7-1-2.5-.4-4.8 3.1-5.5 2.7-11.8 4-17.7 1-5.6 2.8-11.1 4.3-16.6h.8c1.7 10.7 5.8 20.6 9.4 30.6 1 1.4 2.2 2.7 3 4.2h.2v.9q-3.7 1.3-1.5 5c-4.2 2.8 5.1 16.1 7.4 19.2 2.1 2.6 2 2.6-.5 4.6 1.8 4.1 13.3 5.5 8.9 8.2-2 1.4-4.2 2.3-6.3 3.5-1.5 0-1.2 1-1 2 0 1.7 10.6 73 8.4 70.2l-48-4Z"/>
    <path fill="#213d45" d="M360 183.3c1.1-.3-23.6-61.2-22.5-61.5 1-.4 1.8-1.4.7-2-2.2-1.3-2.2-3.2-2.3-5.2-5.6 6.9-4.2-18.7-9-20.3l-4 10.9a25.2 25.2 0 0 1-5.6-17.9c1.4-1 .7-2.1.3-3.2-2.3-5.2-3.8-10.7-5.7-16-2.6 7.9-4 15.8-6.4 23.6-1.5 3.4-1.8 10.5-7.2 5.7-7.8-2-35.5 87-35.8 90.8l97.5-4.9Z"/>
    <path fill="#314c4a" d="M258.4 155.8s-.4 0 0 0Zm164.2-13.3h-.2.2Z"/>
    <path fill="#203d45" d="M386.2 133.2c0-.1.2-.1 0 0Z"/>
    <path fill="#3a554e" d="M422.6 142.5h-.2.2Z"/>
    <path fill="#3e7f6c" d="m250.3 110.5-.3-.4.3.4Z"/>
    <path fill="#487051" d="M248.6 108.1c1.1 2.2 0 5-1.6 3-.7-1.5-2.5-4.6-2.7-6.3.1-6.9-2.9-4.6-7.3-3.6.8-2.4 5.6-10 6.5-12.7 2.3 6.5 3.5 13 5.1 19.6Z"/>
    <path fill="#3a554e" d="M250 110Z"/>
    <path fill="#487051" d="m226.8 105.6-.1 2a12 12 0 0 1-2 5 23 23 0 0 1-5-11.4c2.5 1 5.5 1.3 7 3.7v.7Zm176.4-20c-.7 0-1.4 1.4-2 1.6-.6.4-.5 1-.5 2.3-.9-.1-.4.7-.4 1.4-2.5-2-3.2-4.3-4.7-6.8 7.3.5-.7-9.8 4.8-8-.8 3.9 2 6.2 2.8 9.5ZM223 95.2a6 6 0 0 1-3.3 5.1l-2.3-4.5c2.1-.3 3.6-.8 5.6-.6Zm243.2 40.3c-1-3-2-6.4-2.8-9.4 5.2 3.5 9.4-5.5 9.2-9.6 3.6-2.4 13 5 9.1 9.4-7.3 8.2-7.7 8.5-16.6 20.6.6-2.7 1-8.2 1.1-11Z"/>
    <path fill="#c6d1cb" d="m289 39.9-.8.2.8-.2Z"/>
    <path fill="#3a554e" d="m323.1 201.2-29.5-83c.8-2.5-7.8-63.3-5.1-64.4l-.1-5.4-.4-.6c0-3 .5-6 0-8.8 1-2.3.1-6-1.3-7.9-4.8 12.4-8 25.7-13.1 38-1.3 3.2-1.3 3.3 2.7 3.2-2.1 8.3-11 27.7-18.3 32-1.3.7-.8 2.7.9 3.2 1.7.7 5 0 5.7 2 0 1.7-7.9 10-15.2 17a81 81 0 0 1 2-20.6c.7-2.5-.6-6 4-6.1a107.1 107.1 0 0 1-10.8-31.6c-.4-2-.8-4.3.5-6.6l2.6 2.3c-1.4-8.2-3.7-15.6-5.5-23.6-.8-4.1-.1-8.3-2.6-12.2-1.2 3.7-1.7 7.1-2.6 10.9h-.1v.8c-2.7 8-4.4 16-6.9 24.2l4-2.2a82.9 82.9 0 0 1-11 33.4 6 6 0 0 1-3.3 5.1v1c-3.2 12.7-6.9 18.1-7.5 21.3-.6 2.5-7 .2-10.9 19.9-2.7-17-10-9.3-8-19.4-4.5-4.6-14.2-15.9-10.2-18.9-2-1.5-2.4-3.6-1.3-5.6-.5-3.8-6.6-13.6-2.4-15.8-.7-6-3.4-12-5-18.6-1.3 6.3-3.4 12-3.9 17.7 3.3 2 1.7 5 1 7.4-.8 2.8-2.4 5.3-3.6 8-.4 1-2 2.1.3 3 .5 2.3-2.2 5-3.3 7.1a153 153 0 0 0-1 7c-1 .7-2 1.4-2.4 2.4-.6 1.6-1.3 1-1.5 1-3 1.6-6.7-.6-3.1-3.5.5-.4-.3-2 0-2.6-1.8-5-2.6-10-5-14.7l-2.2 6.4c-2.2-3.6-4.1-6.6-5.8-9.7.2-3 7.8-4.3 3.8-7.8-4.6-3.4-8.6-21.1-9.7-27 2-1.4.8-3 .5-4.4-2.2-9.7-3.2-19.5-6.3-29-2.4 15.5-18 94-17.4 118.2a64 64 0 0 1-9.4-5.8c-1.4-1.4-7.3-.3-5.8-3.5-1.6 0-4.3 0-4-2.2 3.3-.5 1-3.8.3-4.5-15.3-22.2-19.4-49.5-23.7-75.6-4.7 18-10.5 89-3.9 106.2-.6 12.4-15.4 40.3-26 45.8 0 2.3 23 25 24.6 26.2 1.6 2.2 255.8-28.7 256.2-29.1Z"/>
    <path fill="#487051" d="M158.4 133.5c0 .2 0 .6-.2.9l-.3.3c-2.1 1.2-5.8 7.3-8 5.3-2.1-3-6.5-5.2-5.8-9.3h5.6a13 13 0 0 0 8.7 2.8Z"/>
    <path fill="#3a554e" d="m118.7 98.2-1.4.8c-.3-.4-1.6-1.5-2-1.5-2.9.7-4.3-1.7-6.3-3-.6-2.9 5.2-4.3 7-6.1 3.6 3.5 6.8 6.5 2.7 9.8Z"/>
    <path fill="#487051" d="M118 81.4c-2.3 1.5-1.7 5-2.6 7.5 3.5-1.5 4.1-5.6 2.6-7.5Z"/>
    <path fill="#3a554e" d="m24 114.8-1.5 1H24v-1Zm288 14c-2.7 0-5.1-1.3-7.5-2.4l3-6.4 4.5 8.8Zm74.2 4.4c0-.1.2-.1 0 0Zm36.4 9.3h-.2.2Z"/>
    <path fill="#314c4a" d="M115.4 88.9c2.6-2.5 3.6-5.3 2.6-7.5 1.5 1.9.9 6-2.6 7.5Zm143 66.9s-.4 0 0 0Zm53.9-26.4c-2.9.2-5.5-1.2-8-2.5l.2-.5c2.4 1.1 4.8 2.4 7.5 2.4l.3.6Z"/>
    <path fill="none" d="M41.1 93a52 52 0 0 1-7.2 2c2.2-.9 4.9-3.4 7.2-2Z"/>
    <path fill="#3a554e" d="M33.9 95Z"/>
    <path fill="#314c4a" d="M487 118.9c-1.6-2.8-2-7-3.2-9.3 0-.7.2-1.2.3-2 .2 0 .3-.2.4-.4-1.5-4.4-2.8-8.7-4.7-13-1.4 1-6.9 10.3-5.7 11.7 1.2 1.4.5 2.5-.1 3.8-.4 2.2-3.5 5-1.4 6.8 3.8 0 12 5.1 8.1 9.5-7.3 8.2-6.1 7.1-15 19.3.3-1.8 3.3-10.5-1.4-18.8-2.7-4.7-1.8-15.3-6-22.6-3.4 8.3-4 16.6-7.9 23.9h-.6c-1.6-3.5-3.7-7-5-10.5 2.4-1.6.3-3.2 0-5h1.5c-3-7-7.1-13.5-8-21.3 1-7-2.6-13.5-4.3-20.3a48 48 0 0 0-6.5 16.1c3.8 14.4-15.4 27-5.2 27.8-2.2 2.4-4.9 3.9-6.3 6.5.8-4.7-2.1-11.6-6.2-16.6l10-1.2.1-.7c-6-3.3-7.8-2.8-11.3-9-4-1-4-5-5.4-8-2.2-.3-3.4 1.1-2.9 3.2-7-7.3-12.3-16.2-21.8-21-1.7-1.2-3-.7-4.3.6-5.7 5.6-12 10.4-17.7 16-6 7-14.3 11.8-23.5 13 .3 2.6 1.4 3 5 3.2-.5 1.6-3.8 2.3-.8 4 .8.3 2.2 12.7 3.2 16.5-21.2 10.3-22.4 13.5-43 .6-4.3-4.2 1.4-4.5 1.4-8.1-1-7-7.8-9-.5-15.5l-3.5-7c1.5.2 2.7-.2 2.4-1.2a80.7 80.7 0 0 1-8.8-35.4c-11.7 12.5-12.9 40.4-20.6 72.8l-4-2c3.8-7.3 8.3-14.8 7.9-23.3-.7 2.5-11.5 24.4-13.8 17.4-3-2.8-5.8-5.8-7.9-9.3l-1-.8.3 1c-2.6-1.9-3.7-5.1-4-8.3 0-3-1.5-5-4.4-5.4-5.7-.8-9.2 7-14.1 9l-.1 2c-.2 1.9-.8 3.7-2 5.6-4.7-5-1.9-9-5.2-14.3 0 0-2-2.5-1.8-2.5l-.3-.6 3.9-.6c-1.2-3-10.2-21.3-6-22-.4-7-4.2-14.1-5.3-21.2l-4.3 1-5.5 21c2.6.1 3.6.2 3.2 1.8-1.6 5.9-4.8 11.7-6.5 17.6 0 1.6 2.8 1 1.8 3.6-8.1 11.3 3 3.8-1.3 12.4h.2l-4.7 14.1.2-.2-4 12.5-.2-.1-.1.3c-8.2-6-9-25.8-13.6-36-6.1 6-4.4 13.2-7.8 20-.8 1.6-2 3.3 1.3 3.5-1 1.6-1.7 3.1-2.3 4.3-2.5-.3-3 .5-3.4 2.4l-4.6 3.3c0 .5 0 .9-.5 1.2-2.1 1.2-5.8 7.3-8 5.3-2.1-3-6.5-5.2-5.8-9.3h5.6c-.4-9.1 9.3-1.7 5.6-9.5a88.2 88.2 0 0 1-21.6-50.5c-6.3 3.7-2.4-24.8-4.9-28.3-2.8 13.2-3.4 27.3-10.8 39 1.5 1.9.9 6-2.6 7.5 6.9 6.6 1.6 8.2-2.5 13.8l.4.6c1.4-.5 3-.5 4.1-1.6l-.1.2c-3 5.7-8.5 9.2-14.4 11.6 2 2-4.6 4-5.2 5 3 3.3 4.8 7.7 10.2 6.6-2.3 3.8-4.7 7-8.3 9.3-1.5 3.2 2 2.5 3.4 4-.5.7-1 1.3-1.7 1.9-3.3 3.1-7.1 0-9.4-3.1-1.7-1.2-6.4-2-6.2-4.3 10.5-5.5-4.4-19.9-6.2-26.1-6.8-15.2-7.5-24.8-9.3-41-2.4 14.3-3.9 28.8-12.6 41-3.2 4.7 3.7 3.2 6.3 3 .8 1.8-2.7 8.7-6.6 14l-.3-1.7c-.2 0-.3-.2-.5-.3l-1.4.3c.8 3.2.8 5.2-.3 8.6-.3.5 1.6 2.5 1.7 3.2.8 7.7 4.7 14.3 7.4 21.3h-1.4c.4 1.7 2.1 3.7 0 5 1.3 3.6 3.1 7 4.6 10.5h.6c3.7-7.7 4.3-17.2 7.4-25 5.7 10 5 21.7 9 32.2.9 3.1-.2 4.3-3 5.5-10 .9-20 1.5-30 1-3-1-1.8-4.6-3-7.1 7-14-15.8-6.4-11.2-14.7-.3-.3-.9-.5-1-.8-2.8.4-3 .2-3.5-2.6 1-.9 3-1.7 4-2.5a31.7 31.7 0 0 0-4.7-10l8-1.1v-.7c-5.5-3.3-7.3-3-10.4-9-3.7-1-3.6-5.1-5-8-1.6 0-3 .1-2.6 3.2-2-1.5-2.5-3-3.7-5l-.4-.6a15 15 0 0 1-4-4.4c1.7-.5 2.2-2.3 1.7-4.4 0-1-.3-1.9 1-2 13.7-6.9 2.6-4.8-2.4-11.7 2.4-2 2.5-2 .5-4.6-2.1-3.2-10.6-16.1-6.8-19q-2-3.9 1.4-5.2v-1l-.2.2C4.4 68.4 3.6 62 0 56.6v190s417.9-55.4 513.5-57.4c-3.3-15-30.4-70.4-26.5-70.3Z"/>
    <path fill="#487051" d="M24.4 127.9c-1.7 0-3.2.1-2.7 3.2-2.2-1.6-2.7-3.5-4.1-5.6 6.4.4 1.2-5.8 4.3-6.4-.2.3-.2.7-.2 1 .2 2.8 2.3 5 2.7 7.8Z"/>
    <path fill="#3a554e" d="M36 161.8c-2.9.4-3.1.2-3.6-2.6 1-.9 3-1.7 4-2.5.2 1.7-.6 3.4-.5 5Z"/>
    <path fill="#213d45" d="M442.3 193.3 320.8 188s-2.3-44.2 3.4-46.5c6.9-3.4 18.4-2 19.9-11.4.5-6.4 6.6-10 9.6-15.3l1.4-1.4c-2.6-.6-12.7-3.3-9-7.1.2-.4 0-1.9-.4-2.2-3.3-2.8-1.3-8 2.7-8.3 10.7-.9 18-7.2 24.8-14.8 10-15.5 7.2 20.8 34 28.5-14.7 2.7 17.7 30 20 32.9 1.2 1.8-9.9.8-11.3 2.8l26.4 48Z"/>
    <path fill="#3b564f" d="M258.4 155.8s-.4 0 0 0Zm127.7-22c.1-.1.2-.1 0 0Z"/>
    <path fill="#3b564f" d="m412 196.4-169.2 21.8c.6-1 13.3-57.4 17.5-62.5h-2c.1 0-.2-.2-2-.6 2-22.7 1.8-10.5 11.2-20.1 5.2-7.8.2-4.3.2-7.9 4-7.9 10-16.5 8-25.7l-1.7 1.1 5.3-23.4 8.7 20.4c-5 2.3 2.2 10.3 1.8 14.1-.8 2.2-.8 4 .6 6 1 2.9.9 6.1 2 9 1.3 3.7-1.2 6.7 1.9 9.5 3.5-3.3 3.7-7.7 5.7-12.3 1.2 1.8 1.2 4.1 2.9 4.6l4.5-9.8c4.1 4.7 5 18.2 13 17.3 6.3-4.2 12.3-9 14.4-16.4a875 875 0 0 0-4.1-2c11.7-6.4 13.8-61.6 20.3-28.1 1 4.1 2 11.5 3.3 14.7.4 1.6 2.2 3.1 0 4.8 0 3.9.8 8.3 3 11.4 1.9-4 3.4-7.6 5.2-11.8 3.7 12.9 7.3 22.1 8.4 34.3 3.6-3.6 1.9-7.2 4-11.2 2.7-6.1 7.8-10.8 10-1.5.3 0 .8 1.5 1.2 1.7l-.9.3c.7 0 .5 1.5 2.3 3.3-3.5-1 2.6 5.3 3.8 8.3 6.3 11.9 9.6 27 9.4 26.4l11.3 24.3Z"/>
  </g>
</svg>
