<svg xmlns="http://www.w3.org/2000/svg" data-name="Ebene 2" viewBox="0 0 311.3 735">
  <defs>
    <linearGradient id="a" x1="80.1" x2="300.9" y1="364" y2="417" data-name="Unbenannter Verlauf 10" gradientUnits="userSpaceOnUse">
      <stop offset="0" stop-color="#203d45"/>
      <stop offset="1" stop-color="#163640"/>
    </linearGradient>
  </defs>
  <g data-name="tree-right">
    <path fill="#3a554e" d="M163.1 469.6a37.8 37.8 0 0 0 17.7-25.4 88.6 88.6 0 0 1 24.7 17.7l-42.4 7.7Z"/>
    <path fill="#314c4a" d="M241.7 245.4c-6.1 11.2-25.2 86.7-34 92.6-9.8 6-42.3 3-42.9-11 1.3-11.8-15.7-10-20.7-18a140.7 140.7 0 0 0 59.8-32.5c2.6-2.2 7.9-7.4 8.6-7.3 3 3.6 26.1-22.7 29.2-23.8Z"/>
    <path fill="#487051" d="M186.4 455.7c-7-2.1-17.5-3-15.1-13 .3-.9-1-1.8-1.6-2-6.9-.1-15 2-21-2a18 18 0 0 1-.3-5.7l4.7-4.3c-12.3-1.2-22-8.5-30.6-16.8-5.4-4 12.3-5.8 15-7.8-7.2-4.5-15.1-7.6-20.4-14.6 7.6-.6 19.8 0 22.8-.6 7.6-.8 26.6-4 30.2-4.8 15.4-3.3 42.4 55.4 38.7 56.4-8.4 10.1-14 18.2-22.4 15.2Z"/>
    <path fill="#3a554e" d="M172.5 461.6c4.3-1 5.3-4.5 6.2-8.2 7.2 3.5 23 3.1 26.8 8.5-7 3-25 1.4-33-.3Zm40-192.4c6.6-6.2 12.6-13 19.7-18.6l-9.8 16.3c-3 1.2-6.9 5.9-9.9 2.3ZM275 47.8A250 250 0 0 0 270 2c-1-.4 0-3.1-2.2-1.7-7.4 36.4-11.6 73.8-23.4 109.2-3.9 13.5-10.6 25.7-17.1 38.1-2.5 3.7-5.1 9 .8 10.6v.2c1.5.7 3.1 1 4.6 1.9-3.8 5.6-10 9.5-12.5 16.1l1.8 2.9c2.8 2.1 16.1-2.2 14.3 2.3a93 93 0 0 1-29.8 29.1c-2.2 1.6-4 4.5-.1 5.3 3 3-5.8 4.8-7.5 6.4-3.5 2.2-7 4.5-11.1 5.6-24.8 2.8 6.7 14 12.3 14.7 6 .7 18.2 1 18.2 1 19.7.4 26.1-2 30.2-3.7C278 227.3 275 53.4 275 47.8Z"/>
    <path fill="url(#a)" d="M311.3 154.8c-31.3-37-30.8-87-39-132.3-.7 25.5-.3 51.2-4.4 76.6 1.7 1.2.3 1.7-.6 2.3v1.8c1.8 1.1.8 1.7-.5 2.3l-.1 1.7c1.6 1.4.4 2.1-.6 3-.6 1.8-.8 5-.7 7-7.9-2.2-5.7 8.5-7.6 13.2-4.2 5-4.7 12.2-6.4 18.3-4 10-7.2 20.5-12.5 30 3.5 3.5 5.4 6.3 2.2 11a97.1 97.1 0 0 1-20.5 24.1c-4.7 3.8-6.2 14.6-6.3 20.2 3.7 2.2 3.2 6.2 4 9.7H237c-8.3 11.4-14 23.7-22.2 35a298 298 0 0 1-15.9 18c-4.6 5.8-12.4 9.2-15 16.4 4.4 3 15.9-3.1 13.2 6-.5 2-1.6 4-1.9 6.2-.2 1.1.5 2.6 1.3 3.6 5 5.6-3 9.1-7.5 10.4 9 6.8 20.8 7.3 30.1 13.6 2-.3 3.8 0 5.6 1.3 4.6 2.8 9.4-.7 14.3.2a45 45 0 0 1-19 13 261.8 261.8 0 0 1-83.1 22.1c-1.3.4-2 1.3-.7 2.4l17.7 17.6c3 3.6 22.9 18.4 12.7 21.3a8.7 8.7 0 0 0-6.1 3.8c-1.7 2.5-2 2.8-.4 4.9l15.9-.6c4.3-.5 12-7.4 13.6-.3-3.8.5-7.7.4-11.4 1.4-8.3 10 2.5 10.6 8.2 15.7 6.2 2.4 14.7.8 19.1 6.2-20.4 5.2-42.6-3-63.2-6-21.1-7.4-43-13.2-62.7-24.1-4-2.1-7.2-3.4-11-5.9a37.5 37.5 0 0 0 22.1 29.7v.7L78.9 458l-.5.8c3 3 5.8 6.3 9.1 9 4.4 4.1 11.9 5.1 14 11.3 3 10.6 12.5 16.7 19.9 24.3 7.3 2.5 15 4.2 21.9 7.8 9 6-20.2 9.9-23.7 9.6-8.4-.8-17-.9-25.3-2.6-16.9-3.4-32.2-14.3-49.1-16.8-.8 11 6 20.9 12.1 29.4 3.8 4.2-4.5 3.4-6.8 4.6-5 4.5-1.3 11 4.1 13.7l-1.4 1.7c11.8 6.6 25 13.3 37 19.3-10 8.3-25.6 3.4-37.1 8.3 9.8 25.3 44.2 31.4 69 29.8-18.2 24.3-50.1 31.8-79 33.8 1.8 3.9 4.6 7.3 8 9.9a64.4 64.4 0 0 1-15.7 1.6c10.2 27.9 42 33.3 65.3 45.6-4.8 3-10.8 2.5-16.4 1.9l-63.2-6.7a74 74 0 0 0 14.6 19.2c-11.7 0-24.6-.6-35.6 3.2-1 6.3 7 13.9 11 18.4h300.2V251.8c-3-3.7-5.8-7.5-9-11.6h9v-40.6c-9-8.4-17.8-18.5-20.3-30.8 14 6.7 20.5 5.4 9.2-9.3l11-2.3v-2.4Z"/>
  </g>
</svg>
