<svg xmlns="http://www.w3.org/2000/svg" data-name="Ebene 2" viewBox="0 0 318 801.2">
  <defs>
    <linearGradient id="a" x1="237" x2="11.1" y1="415" y2="443.7" data-name="Unbenannter Verlauf 11" gradientUnits="userSpaceOnUse">
      <stop offset="0" stop-color="#203d45"/>
      <stop offset="1" stop-color="#163640"/>
    </linearGradient>
  </defs>
  <g data-name="tree-left">
    <path fill="#487051" d="M.2 232v-6.9l6.1-5.7c-.6 5-3 9-6.1 12.6Z"/>
    <path fill="#596965" d="M96.5 210.2c-1.7 7.4-17.8 1-22.3-2.7 2.2.5 12.8-2 15-3 3.4-2.1 5.4 1.5 7 4.2.2.5.4 1 .3 1.5Z"/>
    <path fill="#487051" d="m41.7 0-.8.1c-3.3 24-8.4 47.6-12 71.5-7 27.6-14.1 60.8-24.8 87.3 12.7-3.7-.3-6.7 9.2-17.6 13.6-19 42.4-7.9 50.1-16.6C56.8 89.4 48.4 36 41.7 0Z"/>
    <path fill="#3a554e" d="M50.8 51.4c2.2 17.9 11.6 59 9.6 85.5-.3 4-53.6 43-60.3 45.4-.1-7.5-.8-17.2 4-23.4 12.7-3.7-.3-6.7 9.2-17.6C27.4 122 27.8 112 28.5 93.9c.2-4.7 1-9.4 2-14 1-4.2.7-12 1.3-13.7 3.5-10.8 1.4-24.5 9.1-33.2 6.5-5.8 9.8 14.7 9.9 18.4Z"/>
    <path fill="#314c4a" d="m94.8 189.7-.3-.9a157.2 157.2 0 0 1-27.7-50.2c0 .8-6.6-19-6.5-18.1 0 .5-20.7 5.5-28.7 4.8-3.6-.3-6.8 2-7.7 5.5-2.6 9-4.6 18.3-7.9 27-2.3 6-6.3 11.2-9.7 16.7-1.5 2.3-3.1 4.7-6.2 5.3v15.7c.7-1 76.5 12.8 76.6 13.4l.4.4c2.5.3 5 2 7.6.2.2-.1.8 0 1 .2 2.1 2 3.7.8 5.8-.2 2-1 2.2-2.5 2.6-4.1l-.9-1.2-3.1-2.2c-1.5-.3-2.7-1.1-4-1.4l-5.3-4.5 13.9-5.3v-1.1Z"/>
    <path fill="url(#a)" d="M270.7 785.7c4.3-5.3 6.6-12.6 12.7-15.6 2-1 4.5-1.7 5.5-3.7-5.3-1.2-10.4-3-15.1-5.6 12-15.2 22.6-5.1 33.7-10.4-5.8-3-11-7-15.6-11.6-5.3 2-12.4-.2-18.1-.2-3.7.2-70.3-6.4-57-14 20.2-5 40.6-9.7 58-21.5 5.5-9.2 17.8-3.9 27.6-16.4 2.2-2.6 1.9-3.8-1.2-5.2-4-2-8.6-2.9-11.8-6 1-1 1.8-2.3 2.9-2.5a39 39 0 0 0 23.4-13.2 403 403 0 0 1-55.6-11.4c-5.6-.7-11.6.9-17.2 1.2-10.3-.3-20.6-.4-31-1.3-6.1-.5-12.2-2.1-18.3-3.5-1-.2-1.9-1.6-2.8-2.5 3.3-3.5 8.5-2.5 12.6-4.3 8.7-3.6 17.9-6.4 26-11v-.6c2.5-5.5 6.9-9 12.1-11.6a75.2 75.2 0 0 0 15.2-13.2c3-2.3 6.3-4.1 9.3-6.4 1.8-1.4 3.4-3.4 4.9-5.2.2-.2-.6-1.8-1-1.8-13.4-1.8-27-2.4-40.3-3.7-1.4-.2-2.7-.8-4.6-1.5 3.5-4.4 8.2-7 12.5-10.6.7-.4 1.6-.6 2.5-.7 15.2-2.4 31.9-3.6 44.4-13.5 3.9-3.1-1.3-5.8-3.3-8.4 4.4-2.5 8.7-4.9 12.8-7.4 12-7.6 22-19 24.1-33.4l-3 .7c-1 1-2.5 1-3.6 1.7-56.5 26.2-121.9 35.2-182.3 18.1l.1-.5c20.2-.9 40.6-3 58.2-14-8.5-4-16.4-8.3-24.7-11.8v-.4c13.7 3.7 27.8 5.5 42 5.5 2.8 0 6.2-.5 7.8-3.8l-10.6-9.2c17 3.1 33.5 3.5 45.6-12.8l-32.2-6.3v-1a146 146 0 0 0 41.6-13.6c-.7-.6-1.5-1.8-2.3-1.8l-19.9-.7c-4.7-.1-9.4-.3-14-.6-.6 0-1.2-.6-1.7-.9-9.5.4-19 .4-28.5-.8-7.2-1.7-14.7-1.9-22-3l-7.5-1.1a289.8 289.8 0 0 1-55.6-14.5c-1.5-.5-2.8-1.6-4.2-2.4-7.5-4-14.7-8.1-22-12.4-.4-.2-.5-.9-.8-1.4l-.6-.2.1-.2.6.4c5.6.8 12.3 2 15-4.7 3.5 2 6.8 3.8 9.9 5.9 4.4 2.9 9.3 4.3 14.4 5.2.9.1 1.7.7 2.5 1.1l13.3-1.2 4.3-2c-.8-2.4-13.5-17.5-5.6-15.6 3.4 1 6.8 2.3 10.2 3.2 2.7 1.3 9-.8 10.1 2 6.5-.4 12.7-6 10.8-12.8-.6-.2-1-.4-1.3-.8-2.5-3.5-6.4-4-10-5.3-2.4-1.1-5.8-.6-6.6-3.7.7-.2 1.3-.6 2-.7 7.9-.2 15.8-.1 22.2-6 1.8-1.7 4.1-3 3.3-6-.7-2.6-2.6-4.1-5.4-5-2-.6-4-2-6-3l-.2-1.2c2.8-2 5.4-4.4 8.4-6.2 1.7-1 2.5-1.8 1.6-3.8-.6-1.1-.4-3.3-1-3.5-3.2-1-6.5-2.3-9.7-2.2-16.4 1.5-9.4-14-25.3-12.6-7.2 1.6-5.4 6-15.1 4.6C104 336.5 82 311.2 77 292l10.2 10.8c8.7 2.3 20.7.9 28-3.4-3.7-6-10-10.4-11.9-17.2 6-1 11.7-1.9 17.4-3.1 5.6-1.3 10.9-3.6 16.5-4.6 2.7-3.3 6-5.9 9.2-8.7a28 28 0 0 0-8.1-1.3c-1-.8-4.9-2.7-5.9-2.3l-1-.5h-.1c-24.2-8.5-42.6-28.2-55.1-50-.4-.8-2.6-2.6.5-2.8l-.3-2c9-1.3 3.5-5.4 2.5-10.7 1.3-7 9-6 3.6-15.3-3.4-9-6.3-18-11.8-26-.2-.4-.4-1-.8-1.2-4.2-2.6-5-6-2.7-10.4-1.6-13.3-6.1-26.6-8.6-40-3.1-17-5.2-34.2-8-51.3l-.5-.6c-2.3 10.6-2 22-3.7 32.7-.7 6.2-2 12.3-3 18.4-.6 4-.4 8-3.5 11-1.1-1.3-2.8-2.5-3.2-4-1.5-5.8-2.6-11.7-4-18.2l-4.2 32.2a289.4 289.4 0 0 1-11 37.8c-3.4 9-7.3 17.7-13.4 25.4-1.7 2.5-1.3 6.5-4 8.8V225c2-2 4.2-3.8 6.2-5.7-.6 5-3 9-6.1 12.6-.4 189.8 0 379.5-.2 569.2h245.8c8.7-4.8 18.7-7.9 25-15.5Z"/>
  </g>
</svg>
