<svg width="700pt" height="700pt" viewBox="0 0 700 700" xmlns="http://www.w3.org/2000/svg">
	<g transform="translate(0 700) scale(.1 -.1)">
		<path d="m4355 6343c-504-259-1224-433-1795-433h-105l-185-407c-322-714-418-920-585-1258-304-614-548-1033-854-1460-118-166-321-418-329-410-4 3-34 84-67 178-60 171-60 172-92 175-23 2-40-4-63-25l-32-29 87-189c48-105 91-196 97-202 14-18 58-16 78 2 16 14 24 10 97-49 166-136 306-338 404-583 38-97 189-536 185-540-1-2-13 20-27 48-22 48-48 69-84 69-19 0-78-52-67-59 5-3 65-105 132-226 68-121 129-226 136-234 17-18 61-17 82 2 14 13 630 103 2565 378 1401 199 2550 360 2552 357 3-3 1-17-4-30-12-33 2-48 46-48 21 0 36 6 42 18 15 29 181 495 181 510 0 7-4 21-10 31-8 16-15 17-60 8-29-5-54-17-59-26-4-9-32-105-62-213-29-109-57-198-60-198-9 0-141 203-268 414-420 693-808 1520-1136 2421-169 465-391 1144-581 1783-43 144-80 262-83 262-3-1-37-17-76-37zm-64-1685c515-1761 784-2059 1652-3121-336-65.4-2955-419-3685-577 1236 2115 1053 1373 1871 3855 40 121 75 227 78 235s16-45 29-118 38-196 55-274z"/>
	</g>
</svg>
