<svg xmlns="http://www.w3.org/2000/svg" viewBox="0 0 24 24" width="16" height="16">
    <path fill="#B55C47" d="M4.74 21.5L15.2 2.1c1.8 6.1 3.6 11.6 7.15 16.9L4.74 21.5z"/>
    <path fill="#cfc9c0" d="M14.45 6.55c.63 4.43 2.86 8.36 5.56 12.57l-13 1.79 7.44-14.36z"/>
    <path fill="#b4aea6" d="M14.45 6.55l-.94.21-7.43 12.77.93 1.4c2.4-3.3 5.73-8.6 7.44-14.36z"/>
    <path fill="#4f2c1f" d="M16.74 19.6l-2.5-9-3.54 9.8z"/>
    <path fill="#ff7e4a" d="M15.18 2.13a14.45 14.45 0 01-6.77 1.6C6.44 8 4.73 12.4 1.63 16c2.15 1.41 1.94 3.56 3.1 5.53 5.7-6.9 9.36-14.46 10.45-19.36z"/>
</svg>
