<?xml version="1.0" encoding="UTF-8" standalone="no"?>
<svg
   xmlns:dc="http://purl.org/dc/elements/1.1/"
   xmlns:cc="http://creativecommons.org/ns#"
   xmlns:svg="http://www.w3.org/2000/svg"
   xmlns="http://www.w3.org/2000/svg"
   height="24"
   width="36.805"
   version="1.1"
   viewBox="0 0 36.805 24">
  <path
     id="pbsmidata-logo"
     style="fill:currentColor;stroke-width:1.53353548"
     d="M 29.850259,8.6982606 C 29.589703,8.5087662 29.187027,8.4850792 28.855411,8.6035187 27.71844,8.911448 26.984148,10.190539 25.941925,10.735337 25.847184,10.664273 25.705057,10.569528 25.799813,10.451095 L 27.126276,8.6982667 C 27.6237,8.0587211 28.263246,7.4665494 28.334307,6.6375094 28.381677,6.1874597 28.263247,5.8321564 27.979003,5.5242271 27.694761,5.2399848 27.292085,5.2399848 26.865721,5.2162978 c -1.350151,0.3553033 -2.913484,0.1421127 -4.311009,0 -0.355303,0.047371 -0.663233,0.4026773 -0.852727,0.710605 -0.710606,1.8238889 1.255404,2.9845452 2.226565,4.3110102 l 0.09474,0.284243 c -0.378989,0.165807 -0.710605,-0.37899 -1.065907,-0.5684849 -0.971162,-0.5211122 -1.823888,-1.7054557 -3.031918,-1.3264654 -1.184343,0.5921718 -0.402677,1.9896963 -0.473737,2.9845453 0.09474,1.065908 -0.615858,2.345 0.426362,3.102979 1.634396,0.805353 2.771364,-0.971162 3.979393,-1.800202 0.284242,-0.09474 0.568484,0.09474 0.710606,0.331616 0.118435,1.326464 -0.118435,2.842423 0.971162,3.69515 0.118435,-0.165807 0.260556,-0.355303 0.284242,-0.568484 -0.75798,-0.82904 -0.82904,-2.037071 -0.686919,-3.17404 0.142128,-0.189494 0.331616,-0.284242 0.544798,-0.189494 1.279091,0.781666 2.297625,2.652929 3.955705,2.084444 0.852728,-0.497425 0.497425,-1.539647 0.426364,-2.345 -0.544797,-1.444898 0.971162,-2.8187359 -0.213181,-4.0504533 z m -4.974242,3.1977264 c -0.07106,-0.02369 -0.09474,-0.09474 -0.165807,-0.142128 l 0.142128,-0.213181 c 0.07106,0.02369 0.118435,0.09474 0.165807,0.142128 -0.02368,0.07106 -0.07106,0.142113 -0.142113,0.213181 z m 4.761059,1.042222 c 0.02369,0.52111 0.331616,1.160656 -0.02369,1.634393 -0.260556,0.23687 -0.686919,0.284242 -0.97116,0.142128 -1.136971,-0.473737 -1.918636,-1.776514 -3.079292,-2.202876 l -0.450056,0.118435 c -0.07106,-0.284243 0.118435,-0.45005 0.165809,-0.686919 L 28.926463,11.896 c 0.118435,-0.118434 0.213181,-0.307929 0.07106,-0.426364 L 28.855399,11.3512 h -3.576715 l -0.189496,-0.260555 0.02369,-4.38207 C 25.018139,6.5901401 24.876013,6.4953936 24.710205,6.5664469 l -0.118435,0.118435 0.07106,4.4294421 -0.260555,0.260557 -3.718839,-0.02369 c -0.189494,0.142128 -0.142112,0.355302 -0.04737,0.521111 1.231716,0.09474 2.534494,0.02369 3.813584,0.04737 0.02369,0.236868 0.189496,0.426363 0.118435,0.686918 -1.279092,-0.592172 -2.013384,1.184343 -3.079291,1.634393 -0.331616,0.236868 -0.805355,0.307929 -1.208031,0.189494 -0.28424,-0.09474 -0.402674,-0.426363 -0.49742,-0.663231 -0.07106,-0.710605 0.165807,-1.373838 0.142112,-2.10813 0.165809,-0.900101 -0.781666,-2.2265659 0.355303,-2.7003026 l 0.45005,0.071064 c 1.042223,0.5684846 1.989696,1.3975246 3.008232,2.0133836 0.331616,0.09474 0.592172,-0.118435 0.710605,-0.378991 0.165809,-0.402677 -0.213181,-0.663232 -0.426363,-0.9711615 -0.805353,-1.1606562 -2.700303,-2.2502516 -1.752827,-3.7898966 0.307929,-0.4026774 0.923787,-0.2131831 1.326463,-0.1894961 1.018537,0.2368668 2.273939,0.2131814 3.245102,-0.071064 0.402677,-0.023678 0.805353,0.094742 0.994849,0.4500528 0.284241,1.1132823 -0.710607,1.8238889 -1.30278,2.6529289 -0.450049,0.6632312 -1.373836,1.2554025 -1.113282,2.1318165 0.213181,0.260556 0.521111,0.331617 0.82904,0.236867 0.994849,-0.615857 1.729141,-1.8001987 2.842423,-2.131815 0.331617,-0.071064 0.639546,0.1184349 0.734294,0.4026742 0.04737,1.1606568 -0.521111,2.3213128 -0.189496,3.5530318 z M 16.040819,14.2173 c 0,-0.37899 -0.07106,-0.757981 -0.355303,-1.018536 -0.568485,-0.521111 -1.350152,-0.686918 -2.084445,-0.521111 -1.018535,0.284243 -1.729141,1.279092 -1.918635,2.250252 -0.118435,0.331616 -0.04737,0.75798 -0.189495,1.018536 -0.355303,-1.705454 0.82904,-2.913484 1.326464,-4.334696 0.355303,-1.752828 -1.231717,-2.9134844 -1.96601,-4.2873221 -0.781666,1.515958 -2.6529283,2.8424231 -1.7765145,4.7610591 0.6632322,1.184343 1.3975255,2.344999 1.1843435,3.837272 l -0.07106,0.02369 C 10.095414,15.425329 10.071729,14.856844 9.8822339,14.35942 9.5743047,13.483006 8.7689514,12.796088 7.8688506,12.653966 7.1108709,12.535531 6.4476388,12.796094 5.9265278,13.317199 c -0.9711613,1.136969 0.9001008,1.989696 0.1421219,3.126666 0.094748,0.07106 0.2131817,0.142128 0.3553029,0.165807 1.0895956,0.355303 1.0895956,-0.947474 1.9186359,-1.231716 0.3079292,-0.118435 0.5447978,0.09474 0.7342927,0.331615 0.4500504,0.426364 -0.4026767,0.37899 -0.331616,0.781667 -0.094748,0.284243 0.047374,0.521111 0.165808,0.734293 0.2842423,0.307929 0.7342928,0.165807 1.1132828,0.236868 v 0.142113 c -0.4974244,0.686919 -1.4922727,0.355303 -1.9896968,1.042222 -0.2368685,0.473737 -0.1894948,1.184342 0.1658081,1.539646 0.4263635,-0.142113 0.9948482,-0.09474 1.373838,0.07106 l -0.1421219,0.37899 c -0.2842423,1.018534 0.8764136,1.421211 1.4212116,2.060757 0.402677,-0.426364 0.923788,-0.639546 1.279091,-1.136969 0.284242,-0.402677 0.165808,-0.971162 0.04737,-1.373839 0.45005,-0.142113 0.923787,-0.09474 1.373838,-0.02369 0.307929,-0.378988 0.355303,-0.994847 0.165808,-1.444897 -0.355303,-0.592171 -1.113283,-0.52111 -1.658081,-0.805353 -0.165808,-0.07106 -0.426363,-0.260556 -0.331616,-0.473738 0.37899,-0.04737 0.852727,0.118435 1.113283,-0.260555 0.118435,-0.213182 0.213182,-0.45005 0.142122,-0.710605 -0.07106,-0.260556 -0.331616,-0.355304 -0.450051,-0.544798 0.07106,-0.236868 0.260556,-0.402677 0.473738,-0.544798 0.686919,-0.142128 1.042222,0.592172 1.373838,1.065909 0.378989,0.260555 0.876414,0.165807 1.326464,0.118435 -0.686919,-0.805353 0.307929,-1.51596 0.331616,-2.345 z M 9.503244,11.943361 c -0.7579795,-1.492272 0.686919,-2.6292417 1.350151,-3.8135851 0.615859,1.0895955 1.800202,1.9896961 1.539646,3.3635341 -0.639545,1.421212 -1.610706,2.700303 -1.373838,4.500505 h -0.284242 c 0.165808,-1.563334 -0.497424,-2.818738 -1.231717,-4.050454 z m -0.8764138,2.960857 c -0.710606,-0.04737 -1.2317168,0.639546 -1.5633329,1.184343 -0.1421204,0.02369 -0.2368687,0.142128 -0.4026767,0.09474 0.3789898,-1.065908 -1.2317168,-1.776515 -0.2131818,-2.747677 0.4263636,-0.307928 0.9711615,-0.426362 1.5396461,-0.331615 0.4263635,0.165808 0.876414,0.402676 1.1606563,0.805353 0.3553028,0.615859 0.5684847,1.279092 0.5684847,2.037071 C 9.5743047,15.543764 9.1479412,14.998966 8.6268302,14.904218 Z m 4.6189388,3.860959 c 0.213181,0.236868 0.142121,0.639544 0.07106,0.923787 -0.615858,-0.118435 -1.208029,0.04737 -1.752827,0.189495 0.04737,0.426363 0.45005,0.852727 0.260555,1.326464 -0.236869,0.37899 -0.615859,0.615859 -0.947475,0.852727 -0.37899,-0.260555 -0.9001006,-0.544798 -1.018535,-1.018534 -0.07106,-0.450052 0.213182,-0.734294 0.331616,-1.113283 C 9.6690522,19.760024 9.0531937,19.57053 8.4136484,19.688964 8.3189004,19.452095 8.2952135,19.096792 8.4373354,18.883611 9.0768807,18.386187 10.355971,18.575681 10.474406,17.462399 h 0.781666 c 0.09475,1.042221 1.279091,0.971162 1.989697,1.302778 z m -0.75798,-1.871263 -0.189495,0.09475 H 9.337436 C 9.1479412,16.917601 9.1479412,16.70442 9.1953141,16.562299 l 0.118435,-0.118434 3.1266659,0.02369 c 0.142122,0.09474 0.142122,0.307929 0.04737,0.426362 z m 1.065909,-1.942322 c -0.307929,-0.118435 -0.686919,-0.02369 -0.947475,0.142113 -0.284242,0.236868 -0.473737,0.568484 -0.568484,0.900101 -0.02369,-0.876414 0.189494,-1.752828 0.805353,-2.392374 0.639545,-0.615857 1.800201,-0.75798 2.48712,-0.142128 0.284243,0.260557 0.30793,0.710608 0.213182,1.06591 -0.307929,0.497425 -0.568485,1.018536 -0.497424,1.634394 -0.686919,0 -0.75798,-1.06591 -1.492272,-1.20803 z m 3.09169,-8.4372423 C 11.391926,6.3976016 7.8299425,7.0058692 3.460318,8.1243165 l -4.737e-4,-9.232e-4 -0.20726,0.049963 c -0.00914,0.0023 -0.01722,0.00414 -0.026371,0.00644 l -0.00926,0.0023 -0.2174383,0.052738 9.476e-4,0.00322 -0.0037,9.247e-4 0.058291,0.225764 v 4.739e-4 C 4.6166737,14.921893 3.7464989,16.111248 8.0214328,23.860755 L 8.0982308,24 8.25599,23.98195 c 2.140884,-0.244588 6.82308,-1.68681 9.369729,-3.323942 l 0.147572,-0.09483 -0.04765,-0.168861 C 16.345275,15.514801 16.462348,11.5894 16.876248,6.7715849 l 0.0213,-0.2516731 z M 16.386312,6.9913252 C 15.995485,11.640229 15.911031,15.56511 17.227843,20.333692 14.817041,21.834369 10.391144,23.212803 8.3563736,23.480527 4.2695963,16.033621 5.0358285,14.803804 3.5639481,8.5869504 7.8448558,7.4904036 11.314948,6.9011487 16.386312,6.9913252 Z M 20.199344,0 l -0.02175,0.036084 -0.03932,-0.014262 -0.0754,0.2095714 C 16.549585,6.1171994 16.609213,12.038704 17.382371,16.825152 l 0.0273,0.17025 0.170712,0.02638 c 2.735598,0.416286 9.530252,1.246625 13.008344,1.186656 l 0.139245,-0.0023 0.0657,-0.123066 c 0.283172,-0.531776 0.83124,-2.043359 1.352281,-3.922673 0.52104,-1.879315 0.998725,-4.095265 1.074698,-5.9499366 l 0.0046,-0.1054766 -0.07634,-0.074024 C 31.006874,5.9516311 25.207695,1.8575057 20.389467,0.1143573 Z m 0.190604,0.6250184 c 4.632981,1.7197051 10.25858,5.6794148 12.344001,7.6741733 -0.08631,1.7696313 -0.538999,3.9110803 -1.044629,5.7348123 -0.490671,1.769784 -1.019373,3.198154 -1.261603,3.695521 -3.381901,0.03566 -9.842992,-0.741219 -12.596599,-1.154272 -0.73189,-4.657249 -0.751752,-10.3038721 2.55883,-15.9502346 z M 7.4902588e-5,6.0690186 V 19.037576 H 5.8944961 C 4.2561754,15.132604 4.4648235,13.28641 3.2852391,8.4094836 7.7573187,7.2535644 11.310552,6.6329686 16.640095,6.7514036 16.266313,11.102237 16.137274,14.757784 17.13419,19.037576 H 36.804925 V 6.0690186 H 30.40577 c 1.083162,0.8083419 1.98328,1.5542566 2.578262,2.1318167 -0.14923,3.6430397 -1.895155,8.8233577 -2.399685,9.7708307 C 27.149753,18.030891 20.339779,17.201844 17.61579,16.787323 17.099995,13.594157 16.905085,9.9084318 17.882268,6.0690186 Z"
     clip-path="none" />
</svg>
