<svg xmlns="http://www.w3.org/2000/svg" xmlns:cc="http://creativecommons.org/ns#" viewBox="0 0 24 24" width="24" style="enable-background:new 0 0 24 24"><path fill="currentColor" d="M9.87 13.18c-.412-.376-.978-.496-1.51-.376-.737.205-1.427 1.092-1.526 2.366-.257-1.235.6-2.11.96-3.138.258-1.269-.891-2.11-1.423-3.104-.566 1.098-1.92 2.058-1.286 3.447.48.857 1.012 1.698.858 2.778 0 0-.138-.772-.275-1.132-.223-.634-.806-1.132-1.457-1.234-.549-.086-1.029.102-1.406.48-.703.823.651 1.44.103 2.263a.596.596 0 00.257.12c.789.257.789-.686 1.389-.892.223-.085.394.07.531.24.326.31-.6.466-.12 1.098.206.223.532.12.806.171v.103c-.36.498-1.08.257-1.44.755-.172.343-.137.857.12 1.114.308-.103.72-.068.994.052l-.103.274c-.205.737.635 1.029 1.03 1.492.29-.309.668-.463.925-.823.206-.292.12-.703.035-.995.325-.103.668-.068.994-.017.223-.274.257-.72.12-1.046-.257-.429-.806-.377-1.2-.583-.12-.051-.309-.188-.24-.343.274-.034.617.086.806-.188.085-.155.154-.326.103-.515-.052-.188-.24-.257-.326-.394.051-.172.188-.292.343-.395.497-.102.754.43.994.772.275.189.635.12.96.086-.497-.583.223-1.098.24-1.698 0-.274-.05-.548-.257-.737zm-4.476-.908c-.549-1.08.497-1.903.977-2.76.446.788 1.304 1.44 1.115 2.434-.463 1.03-1.166 1.955-.995 3.258h-.205c.12-1.131-.36-2.04-.892-2.932zm-.635 2.144c-.826-.075-1.159 1.19-1.423.925.275-.771-.891-1.286-.154-1.989a1.47 1.47 0 011.115-.24c.308.12.634.292.84.583.257.446.411.926.411 1.475-.103-.292-.411-.686-.789-.754zm3.344 2.794c.154.172.103.463.052.67-.446-.086-.875.034-1.27.136.035.309.327.618.19.96-.172.275-.446.446-.687.618-.274-.189-.651-.394-.737-.737-.051-.326.154-.532.24-.806-.377-.12-.823-.257-1.286-.172-.068-.171-.086-.428.017-.583.463-.36 1.39-.223 1.475-1.029h.566c.068.755.926.703 1.44.943zm-.686-1.286H5.274c-.192 0-.231-.394-.017-.394l2.15.016c.321 0 .27.378.01.378zm2.35-1.783c-.223.36-.412.737-.36 1.183-.498 0-.503-.745-1.08-.874s-.968.245-1.098.754c-.017-.634.137-1.269.583-1.732.463-.445 1.303-.548 1.8-.102.206.188.223.514.154.771z"/><path d="M24 8.02h-3.186c-1.998-1.516-5.071-3.441-7.65-4.374 0 0-1.164 1.3-1.876 4.374H0v9.388h2.597C2.992 18.36 4.377 21 4.377 21c1.55-.177 5.128-1.309 6.972-2.494 0 0-.215-.734-.25-1.098H24V8.02zM13.275 4.079C16.629 5.324 20.7 8.19 22.21 9.634c-.063 1.281-.39 2.831-.756 4.152-.356 1.28-.738 2.315-.914 2.675-2.448.026-7.125-.537-9.118-.836-.53-3.371-.545-7.459 1.852-11.546zM4.564 20.624c-2.959-5.39-2.404-6.281-3.47-10.782 3.1-.793 5.611-1.22 9.283-1.155-.283 3.366-.344 6.207.609 9.659-1.745 1.086-4.95 2.084-6.422 2.278z"/><path d="M12.904 14.278c1.184.583 2.007-.703 2.881-1.303.206-.068.412.069.514.24.086.96-.085 2.058.703 2.675.086-.12.19-.257.206-.411-.548-.6-.6-1.475-.497-2.298.103-.137.24-.206.394-.137.926.566 1.664 1.92 2.864 1.509.617-.36.632-.57.309-1.698-.324-1.128.703-2.04-.155-2.932-.188-.137-.48-.154-.72-.069-.823.223-1.355 1.15-2.109 1.544-.069-.052-.171-.12-.103-.206l.96-1.269c.36-.463.823-.892.875-1.492a.966.966 0 00-.257-.806c-.206-.205-.498-.205-.806-.223-.978.258-2.11.103-3.121 0-.257.035-.48.292-.617.515-.515 1.32.908 2.16 1.611 3.12l.07.206c-.275.12-2.093-1.646-2.967-1.371-.858.428-.292 1.44-.343 2.16.068.772-.446 1.698.308 2.246zm.404-4.155c.343-.052 1.654 1.052 2.391 1.498.24.068.429-.086.515-.275.12-.291-.155-.48-.309-.703-.583-.84-1.955-1.629-1.269-2.743.223-.292.669-.155.96-.138.738.172 1.647.155 2.35-.051.291-.017.583.069.72.326.206.806-.515 1.32-.943 1.92-.326.48-.995.909-.806 1.543.154.19.377.24.6.172.72-.446 1.252-1.303 2.058-1.543a.455.455 0 01.531.291c.034.84-.372 1.67-.137 2.572.235.902.29 1.51-.72 1.286-.932-.205-1.39-1.286-2.23-1.594l-.325.085c-.052-.205.086-.325.12-.497l2.64-.034c.244 0 .271-.395-.05-.395h-2.59l-.137-.188.017-3.172c0-.227-.377-.237-.377-.018l.051 3.207-.189.189-2.692-.018c-.303 0-.263.378-.034.378.892.068 1.835.017 2.76.034.018.171.138.309.086.497-.925-.428-1.457.858-2.229 1.183-.24.172-.583.223-.874.138-.206-.069-.292-.31-.36-.48-.052-.515.12-.995.103-1.527.12-.651-.56-1.8.369-1.943z"/></svg>
